<?xml version="1.0" encoding="utf-8"?>
<svg xmlns="http://www.w3.org/2000/svg" xmlns:xlink="http://www.w3.org/1999/xlink" width="600" height="400" viewBox="0 0 2400 1600">
<defs>
  <clipPath id="clip980">
    <rect x="0" y="0" width="2400" height="1600"/>
  </clipPath>
</defs>
<path clip-path="url(#clip980)" d="M0 1600 L2400 1600 L2400 0 L0 0  Z" fill="#ffffff" fill-rule="evenodd" fill-opacity="1"/>
<defs>
  <clipPath id="clip981">
    <rect x="480" y="0" width="1681" height="1600"/>
  </clipPath>
</defs>
<path clip-path="url(#clip980)" d="M221.637 1410.9 L2352.76 1410.9 L2352.76 123.472 L221.637 123.472  Z" fill="#ffffff" fill-rule="evenodd" fill-opacity="1"/>
<defs>
  <clipPath id="clip982">
    <rect x="221" y="123" width="2132" height="1288"/>
  </clipPath>
</defs>
<polyline clip-path="url(#clip982)" style="stroke:#000000; stroke-linecap:round; stroke-linejoin:round; stroke-width:2; stroke-opacity:0.1; fill:none" points="281.952,1410.9 281.952,123.472 "/>
<polyline clip-path="url(#clip982)" style="stroke:#000000; stroke-linecap:round; stroke-linejoin:round; stroke-width:2; stroke-opacity:0.1; fill:none" points="1488.25,1410.9 1488.25,123.472 "/>
<polyline clip-path="url(#clip982)" style="stroke:#000000; stroke-linecap:round; stroke-linejoin:round; stroke-width:2; stroke-opacity:0.1; fill:none" points="221.637,1066.42 2352.76,1066.42 "/>
<polyline clip-path="url(#clip982)" style="stroke:#000000; stroke-linecap:round; stroke-linejoin:round; stroke-width:2; stroke-opacity:0.1; fill:none" points="221.637,405.368 2352.76,405.368 "/>
<polyline clip-path="url(#clip980)" style="stroke:#000000; stroke-linecap:round; stroke-linejoin:round; stroke-width:4; stroke-opacity:1; fill:none" points="221.637,1410.9 2352.76,1410.9 "/>
<polyline clip-path="url(#clip980)" style="stroke:#000000; stroke-linecap:round; stroke-linejoin:round; stroke-width:4; stroke-opacity:1; fill:none" points="281.952,1410.9 281.952,1392 "/>
<polyline clip-path="url(#clip980)" style="stroke:#000000; stroke-linecap:round; stroke-linejoin:round; stroke-width:4; stroke-opacity:1; fill:none" points="1488.25,1410.9 1488.25,1392 "/>
<path clip-path="url(#clip980)" d="M246.935 1485.02 L254.573 1485.02 L254.573 1458.66 L246.263 1460.32 L246.263 1456.06 L254.527 1454.4 L259.203 1454.4 L259.203 1485.02 L266.842 1485.02 L266.842 1488.96 L246.935 1488.96 L246.935 1485.02 Z" fill="#000000" fill-rule="nonzero" fill-opacity="1" /><path clip-path="url(#clip980)" d="M286.286 1457.48 Q282.675 1457.48 280.846 1461.04 Q279.041 1464.58 279.041 1471.71 Q279.041 1478.82 280.846 1482.38 Q282.675 1485.92 286.286 1485.92 Q289.92 1485.92 291.726 1482.38 Q293.555 1478.82 293.555 1471.71 Q293.555 1464.58 291.726 1461.04 Q289.92 1457.48 286.286 1457.48 M286.286 1453.77 Q292.096 1453.77 295.152 1458.38 Q298.231 1462.96 298.231 1471.71 Q298.231 1480.44 295.152 1485.04 Q292.096 1489.63 286.286 1489.63 Q280.476 1489.63 277.397 1485.04 Q274.342 1480.44 274.342 1471.71 Q274.342 1462.96 277.397 1458.38 Q280.476 1453.77 286.286 1453.77 Z" fill="#000000" fill-rule="nonzero" fill-opacity="1" /><path clip-path="url(#clip980)" d="M307.935 1435.97 Q305.001 1435.97 303.516 1438.86 Q302.049 1441.74 302.049 1447.53 Q302.049 1453.31 303.516 1456.2 Q305.001 1459.08 307.935 1459.08 Q310.888 1459.08 312.355 1456.2 Q313.841 1453.31 313.841 1447.53 Q313.841 1441.74 312.355 1438.86 Q310.888 1435.97 307.935 1435.97 M307.935 1432.96 Q312.656 1432.96 315.139 1436.7 Q317.64 1440.43 317.64 1447.53 Q317.64 1454.62 315.139 1458.37 Q312.656 1462.09 307.935 1462.09 Q303.215 1462.09 300.713 1458.37 Q298.231 1454.62 298.231 1447.53 Q298.231 1440.43 300.713 1436.7 Q303.215 1432.96 307.935 1432.96 Z" fill="#000000" fill-rule="nonzero" fill-opacity="1" /><path clip-path="url(#clip980)" d="M1453.69 1485.02 L1461.33 1485.02 L1461.33 1458.66 L1453.02 1460.32 L1453.02 1456.06 L1461.28 1454.4 L1465.96 1454.4 L1465.96 1485.02 L1473.6 1485.02 L1473.6 1488.96 L1453.69 1488.96 L1453.69 1485.02 Z" fill="#000000" fill-rule="nonzero" fill-opacity="1" /><path clip-path="url(#clip980)" d="M1493.04 1457.48 Q1489.43 1457.48 1487.6 1461.04 Q1485.8 1464.58 1485.8 1471.71 Q1485.8 1478.82 1487.6 1482.38 Q1489.43 1485.92 1493.04 1485.92 Q1496.67 1485.92 1498.48 1482.38 Q1500.31 1478.82 1500.31 1471.71 Q1500.31 1464.58 1498.48 1461.04 Q1496.67 1457.48 1493.04 1457.48 M1493.04 1453.77 Q1498.85 1453.77 1501.91 1458.38 Q1504.99 1462.96 1504.99 1471.71 Q1504.99 1480.44 1501.91 1485.04 Q1498.85 1489.63 1493.04 1489.63 Q1487.23 1489.63 1484.15 1485.04 Q1481.1 1480.44 1481.1 1471.71 Q1481.1 1462.96 1484.15 1458.38 Q1487.23 1453.77 1493.04 1453.77 Z" fill="#000000" fill-rule="nonzero" fill-opacity="1" /><path clip-path="url(#clip980)" d="M1517.68 1446.41 Q1520.41 1446.99 1521.93 1448.83 Q1523.47 1450.68 1523.47 1453.38 Q1523.47 1457.54 1520.61 1459.82 Q1517.76 1462.09 1512.49 1462.09 Q1510.72 1462.09 1508.84 1461.73 Q1506.98 1461.4 1504.99 1460.7 L1504.99 1457.03 Q1506.56 1457.95 1508.45 1458.42 Q1510.33 1458.89 1512.38 1458.89 Q1515.95 1458.89 1517.81 1457.48 Q1519.69 1456.07 1519.69 1453.38 Q1519.69 1450.9 1517.94 1449.51 Q1516.21 1448.1 1513.11 1448.1 L1509.84 1448.1 L1509.84 1444.98 L1513.26 1444.98 Q1516.06 1444.98 1517.55 1443.87 Q1519.03 1442.74 1519.03 1440.63 Q1519.03 1438.47 1517.49 1437.32 Q1515.97 1436.16 1513.11 1436.16 Q1511.55 1436.16 1509.76 1436.49 Q1507.98 1436.83 1505.83 1437.55 L1505.83 1434.16 Q1507.99 1433.56 1509.88 1433.26 Q1511.77 1432.96 1513.45 1432.96 Q1517.77 1432.96 1520.29 1434.93 Q1522.81 1436.89 1522.81 1440.24 Q1522.81 1442.57 1521.48 1444.19 Q1520.14 1445.79 1517.68 1446.41 Z" fill="#000000" fill-rule="nonzero" fill-opacity="1" /><path clip-path="url(#clip980)" d="M929.253 1531.95 L929.253 1568.9 L937.019 1568.9 Q946.854 1568.9 951.405 1564.45 Q955.989 1559.99 955.989 1550.38 Q955.989 1540.83 951.405 1536.4 Q946.854 1531.95 937.019 1531.95 L929.253 1531.95 M922.823 1526.67 L936.032 1526.67 Q949.846 1526.67 956.307 1532.43 Q962.768 1538.16 962.768 1550.38 Q962.768 1562.66 956.275 1568.42 Q949.782 1574.19 936.032 1574.19 L922.823 1574.19 L922.823 1526.67 Z" fill="#000000" fill-rule="nonzero" fill-opacity="1" /><path clip-path="url(#clip980)" d="M986.576 1542.64 Q981.865 1542.64 979.128 1546.34 Q976.391 1550 976.391 1556.39 Q976.391 1562.79 979.096 1566.48 Q981.834 1570.14 986.576 1570.14 Q991.255 1570.14 993.992 1566.45 Q996.729 1562.76 996.729 1556.39 Q996.729 1550.06 993.992 1546.37 Q991.255 1542.64 986.576 1542.64 M986.576 1537.68 Q994.215 1537.68 998.575 1542.64 Q1002.94 1547.61 1002.94 1556.39 Q1002.94 1565.15 998.575 1570.14 Q994.215 1575.11 986.576 1575.11 Q978.905 1575.11 974.545 1570.14 Q970.216 1565.15 970.216 1556.39 Q970.216 1547.61 974.545 1542.64 Q978.905 1537.68 986.576 1537.68 Z" fill="#000000" fill-rule="nonzero" fill-opacity="1" /><path clip-path="url(#clip980)" d="M1009.24 1538.54 L1015.09 1538.54 L1022.41 1566.36 L1029.7 1538.54 L1036.61 1538.54 L1043.93 1566.36 L1051.22 1538.54 L1057.08 1538.54 L1047.75 1574.19 L1040.84 1574.19 L1033.17 1544.97 L1025.47 1574.19 L1018.56 1574.19 L1009.24 1538.54 Z" fill="#000000" fill-rule="nonzero" fill-opacity="1" /><path clip-path="url(#clip980)" d="M1095.59 1552.67 L1095.59 1574.19 L1089.73 1574.19 L1089.73 1552.86 Q1089.73 1547.8 1087.76 1545.29 Q1085.79 1542.77 1081.84 1542.77 Q1077.1 1542.77 1074.36 1545.79 Q1071.62 1548.82 1071.62 1554.04 L1071.62 1574.19 L1065.73 1574.19 L1065.73 1538.54 L1071.62 1538.54 L1071.62 1544.08 Q1073.72 1540.86 1076.56 1539.27 Q1079.42 1537.68 1083.14 1537.68 Q1089.29 1537.68 1092.44 1541.5 Q1095.59 1545.29 1095.59 1552.67 Z" fill="#000000" fill-rule="nonzero" fill-opacity="1" /><path clip-path="url(#clip980)" d="M1103.86 1538.54 L1109.72 1538.54 L1117.04 1566.36 L1124.33 1538.54 L1131.24 1538.54 L1138.56 1566.36 L1145.85 1538.54 L1151.7 1538.54 L1142.38 1574.19 L1135.47 1574.19 L1127.8 1544.97 L1120.1 1574.19 L1113.19 1574.19 L1103.86 1538.54 Z" fill="#000000" fill-rule="nonzero" fill-opacity="1" /><path clip-path="url(#clip980)" d="M1160.58 1538.54 L1166.44 1538.54 L1166.44 1574.19 L1160.58 1574.19 L1160.58 1538.54 M1160.58 1524.66 L1166.44 1524.66 L1166.44 1532.08 L1160.58 1532.08 L1160.58 1524.66 Z" fill="#000000" fill-rule="nonzero" fill-opacity="1" /><path clip-path="url(#clip980)" d="M1208.33 1552.67 L1208.33 1574.19 L1202.47 1574.19 L1202.47 1552.86 Q1202.47 1547.8 1200.5 1545.29 Q1198.52 1542.77 1194.58 1542.77 Q1189.83 1542.77 1187.1 1545.79 Q1184.36 1548.82 1184.36 1554.04 L1184.36 1574.19 L1178.47 1574.19 L1178.47 1538.54 L1184.36 1538.54 L1184.36 1544.08 Q1186.46 1540.86 1189.29 1539.27 Q1192.16 1537.68 1195.88 1537.68 Q1202.02 1537.68 1205.17 1541.5 Q1208.33 1545.29 1208.33 1552.67 Z" fill="#000000" fill-rule="nonzero" fill-opacity="1" /><path clip-path="url(#clip980)" d="M1243.46 1543.95 L1243.46 1524.66 L1249.32 1524.66 L1249.32 1574.19 L1243.46 1574.19 L1243.46 1568.84 Q1241.62 1572.02 1238.79 1573.58 Q1235.98 1575.11 1232.04 1575.11 Q1225.58 1575.11 1221.5 1569.95 Q1217.46 1564.8 1217.46 1556.39 Q1217.46 1547.99 1221.5 1542.83 Q1225.58 1537.68 1232.04 1537.68 Q1235.98 1537.68 1238.79 1539.24 Q1241.62 1540.77 1243.46 1543.95 M1223.51 1556.39 Q1223.51 1562.85 1226.15 1566.55 Q1228.82 1570.21 1233.47 1570.21 Q1238.12 1570.21 1240.79 1566.55 Q1243.46 1562.85 1243.46 1556.39 Q1243.46 1549.93 1240.79 1546.27 Q1238.12 1542.58 1233.47 1542.58 Q1228.82 1542.58 1226.15 1546.27 Q1223.51 1549.93 1223.51 1556.39 Z" fill="#000000" fill-rule="nonzero" fill-opacity="1" /><path clip-path="url(#clip980)" d="M1305.56 1543.95 L1305.56 1524.66 L1311.42 1524.66 L1311.42 1574.19 L1305.56 1574.19 L1305.56 1568.84 Q1303.72 1572.02 1300.88 1573.58 Q1298.08 1575.11 1294.14 1575.11 Q1287.67 1575.11 1283.6 1569.95 Q1279.56 1564.8 1279.56 1556.39 Q1279.56 1547.99 1283.6 1542.83 Q1287.67 1537.68 1294.14 1537.68 Q1298.08 1537.68 1300.88 1539.24 Q1303.72 1540.77 1305.56 1543.95 M1285.61 1556.39 Q1285.61 1562.85 1288.25 1566.55 Q1290.92 1570.21 1295.57 1570.21 Q1300.21 1570.21 1302.89 1566.55 Q1305.56 1562.85 1305.56 1556.39 Q1305.56 1549.93 1302.89 1546.27 Q1300.21 1542.58 1295.57 1542.58 Q1290.92 1542.58 1288.25 1546.27 Q1285.61 1549.93 1285.61 1556.39 Z" fill="#000000" fill-rule="nonzero" fill-opacity="1" /><path clip-path="url(#clip980)" d="M1323.48 1538.54 L1329.34 1538.54 L1329.34 1574.19 L1323.48 1574.19 L1323.48 1538.54 M1323.48 1524.66 L1329.34 1524.66 L1329.34 1532.08 L1323.48 1532.08 L1323.48 1524.66 Z" fill="#000000" fill-rule="nonzero" fill-opacity="1" /><path clip-path="url(#clip980)" d="M1364.32 1539.59 L1364.32 1545.13 Q1361.83 1543.85 1359.16 1543.22 Q1356.49 1542.58 1353.62 1542.58 Q1349.26 1542.58 1347.07 1543.92 Q1344.9 1545.25 1344.9 1547.93 Q1344.9 1549.96 1346.46 1551.14 Q1348.02 1552.29 1352.73 1553.34 L1354.74 1553.78 Q1360.98 1555.12 1363.58 1557.57 Q1366.23 1559.99 1366.23 1564.35 Q1366.23 1569.32 1362.28 1572.21 Q1358.37 1575.11 1351.49 1575.11 Q1348.63 1575.11 1345.51 1574.54 Q1342.42 1573.99 1338.98 1572.88 L1338.98 1566.83 Q1342.23 1568.52 1345.38 1569.38 Q1348.53 1570.21 1351.62 1570.21 Q1355.76 1570.21 1357.98 1568.81 Q1360.21 1567.37 1360.21 1564.8 Q1360.21 1562.41 1358.59 1561.14 Q1357 1559.86 1351.55 1558.68 L1349.52 1558.21 Q1344.07 1557.06 1341.66 1554.71 Q1339.24 1552.32 1339.24 1548.18 Q1339.24 1543.15 1342.8 1540.42 Q1346.37 1537.68 1352.92 1537.68 Q1356.17 1537.68 1359.03 1538.16 Q1361.9 1538.63 1364.32 1539.59 Z" fill="#000000" fill-rule="nonzero" fill-opacity="1" /><path clip-path="url(#clip980)" d="M1381.35 1528.42 L1381.35 1538.54 L1393.41 1538.54 L1393.41 1543.09 L1381.35 1543.09 L1381.35 1562.44 Q1381.35 1566.8 1382.52 1568.04 Q1383.73 1569.28 1387.39 1569.28 L1393.41 1569.28 L1393.41 1574.19 L1387.39 1574.19 Q1380.61 1574.19 1378.04 1571.67 Q1375.46 1569.12 1375.46 1562.44 L1375.46 1543.09 L1371.16 1543.09 L1371.16 1538.54 L1375.46 1538.54 L1375.46 1528.42 L1381.35 1528.42 Z" fill="#000000" fill-rule="nonzero" fill-opacity="1" /><path clip-path="url(#clip980)" d="M1417.31 1556.27 Q1410.21 1556.27 1407.48 1557.89 Q1404.74 1559.51 1404.74 1563.43 Q1404.74 1566.55 1406.78 1568.39 Q1408.85 1570.21 1412.38 1570.21 Q1417.25 1570.21 1420.18 1566.77 Q1423.14 1563.3 1423.14 1557.57 L1423.14 1556.27 L1417.31 1556.27 M1428.99 1553.85 L1428.99 1574.19 L1423.14 1574.19 L1423.14 1568.77 Q1421.13 1572.02 1418.14 1573.58 Q1415.15 1575.11 1410.82 1575.11 Q1405.34 1575.11 1402.1 1572.05 Q1398.88 1568.97 1398.88 1563.81 Q1398.88 1557.79 1402.89 1554.74 Q1406.94 1551.68 1414.92 1551.68 L1423.14 1551.68 L1423.14 1551.11 Q1423.14 1547.07 1420.46 1544.87 Q1417.82 1542.64 1413.01 1542.64 Q1409.96 1542.64 1407.06 1543.38 Q1404.17 1544.11 1401.49 1545.57 L1401.49 1540.16 Q1404.71 1538.92 1407.73 1538.31 Q1410.75 1537.68 1413.62 1537.68 Q1421.35 1537.68 1425.17 1541.69 Q1428.99 1545.7 1428.99 1553.85 Z" fill="#000000" fill-rule="nonzero" fill-opacity="1" /><path clip-path="url(#clip980)" d="M1470.69 1552.67 L1470.69 1574.19 L1464.83 1574.19 L1464.83 1552.86 Q1464.83 1547.8 1462.86 1545.29 Q1460.88 1542.77 1456.94 1542.77 Q1452.2 1542.77 1449.46 1545.79 Q1446.72 1548.82 1446.72 1554.04 L1446.72 1574.19 L1440.83 1574.19 L1440.83 1538.54 L1446.72 1538.54 L1446.72 1544.08 Q1448.82 1540.86 1451.65 1539.27 Q1454.52 1537.68 1458.24 1537.68 Q1464.39 1537.68 1467.54 1541.5 Q1470.69 1545.29 1470.69 1552.67 Z" fill="#000000" fill-rule="nonzero" fill-opacity="1" /><path clip-path="url(#clip980)" d="M1508.02 1539.91 L1508.02 1545.38 Q1505.54 1544.01 1503.03 1543.34 Q1500.54 1542.64 1498 1542.64 Q1492.3 1542.64 1489.15 1546.27 Q1486 1549.87 1486 1556.39 Q1486 1562.92 1489.15 1566.55 Q1492.3 1570.14 1498 1570.14 Q1500.54 1570.14 1503.03 1569.47 Q1505.54 1568.77 1508.02 1567.41 L1508.02 1572.82 Q1505.57 1573.96 1502.93 1574.54 Q1500.32 1575.11 1497.36 1575.11 Q1489.31 1575.11 1484.57 1570.05 Q1479.82 1564.99 1479.82 1556.39 Q1479.82 1547.67 1484.6 1542.68 Q1489.4 1537.68 1497.74 1537.68 Q1500.45 1537.68 1503.03 1538.25 Q1505.6 1538.79 1508.02 1539.91 Z" fill="#000000" fill-rule="nonzero" fill-opacity="1" /><path clip-path="url(#clip980)" d="M1548.7 1554.9 L1548.7 1557.76 L1521.77 1557.76 Q1522.15 1563.81 1525.4 1566.99 Q1528.68 1570.14 1534.5 1570.14 Q1537.88 1570.14 1541.03 1569.32 Q1544.21 1568.49 1547.33 1566.83 L1547.33 1572.37 Q1544.18 1573.71 1540.87 1574.41 Q1537.56 1575.11 1534.15 1575.11 Q1525.62 1575.11 1520.63 1570.14 Q1515.66 1565.18 1515.66 1556.71 Q1515.66 1547.96 1520.37 1542.83 Q1525.11 1537.68 1533.14 1537.68 Q1540.33 1537.68 1544.5 1542.33 Q1548.7 1546.94 1548.7 1554.9 M1542.84 1553.18 Q1542.78 1548.37 1540.14 1545.51 Q1537.53 1542.64 1533.2 1542.64 Q1528.3 1542.64 1525.34 1545.41 Q1522.41 1548.18 1521.96 1553.21 L1542.84 1553.18 Z" fill="#000000" fill-rule="nonzero" fill-opacity="1" /><path clip-path="url(#clip980)" d="M1559.81 1566.1 L1566.52 1566.1 L1566.52 1571.58 L1561.3 1581.76 L1557.2 1581.76 L1559.81 1571.58 L1559.81 1566.1 Z" fill="#000000" fill-rule="nonzero" fill-opacity="1" /><path clip-path="url(#clip980)" d="M1627.51 1545.38 Q1629.7 1541.43 1632.76 1539.56 Q1635.81 1537.68 1639.95 1537.68 Q1645.52 1537.68 1648.55 1541.59 Q1651.57 1545.48 1651.57 1552.67 L1651.57 1574.19 L1645.68 1574.19 L1645.68 1552.86 Q1645.68 1547.74 1643.87 1545.25 Q1642.05 1542.77 1638.33 1542.77 Q1633.78 1542.77 1631.14 1545.79 Q1628.49 1548.82 1628.49 1554.04 L1628.49 1574.19 L1622.61 1574.19 L1622.61 1552.86 Q1622.61 1547.7 1620.79 1545.25 Q1618.98 1542.77 1615.19 1542.77 Q1610.7 1542.77 1608.06 1545.83 Q1605.42 1548.85 1605.42 1554.04 L1605.42 1574.19 L1599.53 1574.19 L1599.53 1538.54 L1605.42 1538.54 L1605.42 1544.08 Q1607.42 1540.8 1610.22 1539.24 Q1613.03 1537.68 1616.88 1537.68 Q1620.76 1537.68 1623.46 1539.65 Q1626.2 1541.62 1627.51 1545.38 Z" fill="#000000" fill-rule="nonzero" fill-opacity="1" /><polyline clip-path="url(#clip980)" style="stroke:#000000; stroke-linecap:round; stroke-linejoin:round; stroke-width:4; stroke-opacity:1; fill:none" points="221.637,1410.9 221.637,123.472 "/>
<polyline clip-path="url(#clip980)" style="stroke:#000000; stroke-linecap:round; stroke-linejoin:round; stroke-width:4; stroke-opacity:1; fill:none" points="221.637,1066.42 240.535,1066.42 "/>
<polyline clip-path="url(#clip980)" style="stroke:#000000; stroke-linecap:round; stroke-linejoin:round; stroke-width:4; stroke-opacity:1; fill:none" points="221.637,405.368 240.535,405.368 "/>
<path clip-path="url(#clip980)" d="M114.931 1086.21 L122.57 1086.21 L122.57 1059.85 L114.26 1061.52 L114.26 1057.26 L122.524 1055.59 L127.2 1055.59 L127.2 1086.21 L134.839 1086.21 L134.839 1090.15 L114.931 1090.15 L114.931 1086.21 Z" fill="#000000" fill-rule="nonzero" fill-opacity="1" /><path clip-path="url(#clip980)" d="M154.283 1058.67 Q150.672 1058.67 148.843 1062.23 Q147.038 1065.77 147.038 1072.9 Q147.038 1080.01 148.843 1083.58 Q150.672 1087.12 154.283 1087.12 Q157.917 1087.12 159.723 1083.58 Q161.552 1080.01 161.552 1072.9 Q161.552 1065.77 159.723 1062.23 Q157.917 1058.67 154.283 1058.67 M154.283 1054.96 Q160.093 1054.96 163.149 1059.57 Q166.227 1064.15 166.227 1072.9 Q166.227 1081.63 163.149 1086.24 Q160.093 1090.82 154.283 1090.82 Q148.473 1090.82 145.394 1086.24 Q142.339 1081.63 142.339 1072.9 Q142.339 1064.15 145.394 1059.57 Q148.473 1054.96 154.283 1054.96 Z" fill="#000000" fill-rule="nonzero" fill-opacity="1" /><path clip-path="url(#clip980)" d="M175.932 1037.16 Q172.998 1037.16 171.512 1040.06 Q170.045 1042.93 170.045 1048.73 Q170.045 1054.5 171.512 1057.4 Q172.998 1060.28 175.932 1060.28 Q178.885 1060.28 180.352 1057.4 Q181.838 1054.5 181.838 1048.73 Q181.838 1042.93 180.352 1040.06 Q178.885 1037.16 175.932 1037.16 M175.932 1034.15 Q180.653 1034.15 183.136 1037.89 Q185.637 1041.62 185.637 1048.73 Q185.637 1055.82 183.136 1059.56 Q180.653 1063.28 175.932 1063.28 Q171.212 1063.28 168.71 1059.56 Q166.227 1055.82 166.227 1048.73 Q166.227 1041.62 168.71 1037.89 Q171.212 1034.15 175.932 1034.15 Z" fill="#000000" fill-rule="nonzero" fill-opacity="1" /><path clip-path="url(#clip980)" d="M115.853 425.16 L123.492 425.16 L123.492 398.795 L115.182 400.461 L115.182 396.202 L123.446 394.535 L128.121 394.535 L128.121 425.16 L135.76 425.16 L135.76 429.095 L115.853 429.095 L115.853 425.16 Z" fill="#000000" fill-rule="nonzero" fill-opacity="1" /><path clip-path="url(#clip980)" d="M155.205 397.614 Q151.594 397.614 149.765 401.179 Q147.959 404.72 147.959 411.85 Q147.959 418.956 149.765 422.521 Q151.594 426.063 155.205 426.063 Q158.839 426.063 160.644 422.521 Q162.473 418.956 162.473 411.85 Q162.473 404.72 160.644 401.179 Q158.839 397.614 155.205 397.614 M155.205 393.91 Q161.015 393.91 164.07 398.517 Q167.149 403.1 167.149 411.85 Q167.149 420.577 164.07 425.183 Q161.015 429.767 155.205 429.767 Q149.395 429.767 146.316 425.183 Q143.26 420.577 143.26 411.85 Q143.26 403.1 146.316 398.517 Q149.395 393.91 155.205 393.91 Z" fill="#000000" fill-rule="nonzero" fill-opacity="1" /><path clip-path="url(#clip980)" d="M179.844 386.545 Q182.571 387.128 184.095 388.971 Q185.637 390.814 185.637 393.522 Q185.637 397.679 182.778 399.955 Q179.92 402.23 174.653 402.23 Q172.885 402.23 171.005 401.873 Q169.143 401.534 167.149 400.839 L167.149 397.171 Q168.729 398.093 170.61 398.563 Q172.49 399.033 174.541 399.033 Q178.114 399.033 179.976 397.622 Q181.857 396.212 181.857 393.522 Q181.857 391.04 180.108 389.648 Q178.377 388.237 175.274 388.237 L172.001 388.237 L172.001 385.115 L175.424 385.115 Q178.227 385.115 179.713 384.006 Q181.198 382.877 181.198 380.771 Q181.198 378.608 179.656 377.46 Q178.133 376.294 175.274 376.294 Q173.713 376.294 171.926 376.633 Q170.139 376.971 167.995 377.686 L167.995 374.301 Q170.158 373.699 172.039 373.398 Q173.939 373.097 175.613 373.097 Q179.938 373.097 182.459 375.072 Q184.979 377.028 184.979 380.376 Q184.979 382.708 183.643 384.325 Q182.308 385.924 179.844 386.545 Z" fill="#000000" fill-rule="nonzero" fill-opacity="1" /><path clip-path="url(#clip980)" d="M21.7677 1158.93 L58.7206 1158.93 L58.7206 1151.16 Q58.7206 1141.33 54.2646 1136.78 Q49.8086 1132.19 40.1964 1132.19 Q30.6479 1132.19 26.2237 1136.78 Q21.7677 1141.33 21.7677 1151.16 L21.7677 1158.93 M16.4842 1165.36 L16.4842 1152.15 Q16.4842 1138.34 22.2451 1131.88 Q27.9743 1125.41 40.1964 1125.41 Q52.4822 1125.41 58.2432 1131.91 Q64.0042 1138.4 64.0042 1152.15 L64.0042 1165.36 L16.4842 1165.36 Z" fill="#000000" fill-rule="nonzero" fill-opacity="1" /><path clip-path="url(#clip980)" d="M32.4621 1101.61 Q32.4621 1106.32 36.1542 1109.05 Q39.8145 1111.79 46.212 1111.79 Q52.6095 1111.79 56.3017 1109.09 Q59.9619 1106.35 59.9619 1101.61 Q59.9619 1096.93 56.2698 1094.19 Q52.5777 1091.45 46.212 1091.45 Q39.8781 1091.45 36.186 1094.19 Q32.4621 1096.93 32.4621 1101.61 M27.4968 1101.61 Q27.4968 1093.97 32.4621 1089.61 Q37.4273 1085.25 46.212 1085.25 Q54.9649 1085.25 59.9619 1089.61 Q64.9272 1093.97 64.9272 1101.61 Q64.9272 1109.28 59.9619 1113.64 Q54.9649 1117.97 46.212 1117.97 Q37.4273 1117.97 32.4621 1113.64 Q27.4968 1109.28 27.4968 1101.61 Z" fill="#000000" fill-rule="nonzero" fill-opacity="1" /><path clip-path="url(#clip980)" d="M28.3562 1078.94 L28.3562 1073.09 L56.1743 1065.77 L28.3562 1058.48 L28.3562 1051.57 L56.1743 1044.25 L28.3562 1036.96 L28.3562 1031.11 L64.0042 1040.43 L64.0042 1047.34 L34.7856 1055.01 L64.0042 1062.71 L64.0042 1069.62 L28.3562 1078.94 Z" fill="#000000" fill-rule="nonzero" fill-opacity="1" /><path clip-path="url(#clip980)" d="M42.4881 992.594 L64.0042 992.594 L64.0042 998.451 L42.679 998.451 Q37.6183 998.451 35.1038 1000.42 Q32.5894 1002.4 32.5894 1006.34 Q32.5894 1011.09 35.6131 1013.82 Q38.6368 1016.56 43.8567 1016.56 L64.0042 1016.56 L64.0042 1022.45 L28.3562 1022.45 L28.3562 1016.56 L33.8944 1016.56 Q30.6797 1014.46 29.0883 1011.63 Q27.4968 1008.76 27.4968 1005.04 Q27.4968 998.896 31.3163 995.745 Q35.1038 992.594 42.4881 992.594 Z" fill="#000000" fill-rule="nonzero" fill-opacity="1" /><path clip-path="url(#clip980)" d="M28.3562 984.319 L28.3562 978.462 L56.1743 971.142 L28.3562 963.853 L28.3562 956.946 L56.1743 949.626 L28.3562 942.337 L28.3562 936.48 L64.0042 945.806 L64.0042 952.713 L34.7856 960.384 L64.0042 968.086 L64.0042 974.993 L28.3562 984.319 Z" fill="#000000" fill-rule="nonzero" fill-opacity="1" /><path clip-path="url(#clip980)" d="M28.3562 927.6 L28.3562 921.744 L64.0042 921.744 L64.0042 927.6 L28.3562 927.6 M14.479 927.6 L14.479 921.744 L21.895 921.744 L21.895 927.6 L14.479 927.6 Z" fill="#000000" fill-rule="nonzero" fill-opacity="1" /><path clip-path="url(#clip980)" d="M42.4881 879.857 L64.0042 879.857 L64.0042 885.714 L42.679 885.714 Q37.6183 885.714 35.1038 887.687 Q32.5894 889.661 32.5894 893.607 Q32.5894 898.35 35.6131 901.087 Q38.6368 903.824 43.8567 903.824 L64.0042 903.824 L64.0042 909.713 L28.3562 909.713 L28.3562 903.824 L33.8944 903.824 Q30.6797 901.724 29.0883 898.891 Q27.4968 896.026 27.4968 892.302 Q27.4968 886.159 31.3163 883.008 Q35.1038 879.857 42.4881 879.857 Z" fill="#000000" fill-rule="nonzero" fill-opacity="1" /><path clip-path="url(#clip980)" d="M33.7671 844.719 L14.479 844.719 L14.479 838.862 L64.0042 838.862 L64.0042 844.719 L58.657 844.719 Q61.8398 846.565 63.3994 849.397 Q64.9272 852.198 64.9272 856.145 Q64.9272 862.606 59.771 866.68 Q54.6147 870.723 46.212 870.723 Q37.8093 870.723 32.6531 866.68 Q27.4968 862.606 27.4968 856.145 Q27.4968 852.198 29.0564 849.397 Q30.5842 846.565 33.7671 844.719 M46.212 864.675 Q52.6732 864.675 56.3653 862.033 Q60.0256 859.36 60.0256 854.713 Q60.0256 850.066 56.3653 847.392 Q52.6732 844.719 46.212 844.719 Q39.7508 844.719 36.0905 847.392 Q32.3984 850.066 32.3984 854.713 Q32.3984 859.36 36.0905 862.033 Q39.7508 864.675 46.212 864.675 Z" fill="#000000" fill-rule="nonzero" fill-opacity="1" /><path clip-path="url(#clip980)" d="M21.7677 799.395 L58.7206 799.395 L58.7206 791.629 Q58.7206 781.794 54.2646 777.242 Q49.8086 772.659 40.1964 772.659 Q30.6479 772.659 26.2237 777.242 Q21.7677 781.794 21.7677 791.629 L21.7677 799.395 M16.4842 805.824 L16.4842 792.615 Q16.4842 778.802 22.2451 772.341 Q27.9743 765.879 40.1964 765.879 Q52.4822 765.879 58.2432 772.372 Q64.0042 778.865 64.0042 792.615 L64.0042 805.824 L16.4842 805.824 Z" fill="#000000" fill-rule="nonzero" fill-opacity="1" /><path clip-path="url(#clip980)" d="M28.3562 755.885 L28.3562 750.029 L64.0042 750.029 L64.0042 755.885 L28.3562 755.885 M14.479 755.885 L14.479 750.029 L21.895 750.029 L21.895 755.885 L14.479 755.885 Z" fill="#000000" fill-rule="nonzero" fill-opacity="1" /><path clip-path="url(#clip980)" d="M29.4065 715.049 L34.9447 715.049 Q33.6716 717.532 33.035 720.205 Q32.3984 722.879 32.3984 725.744 Q32.3984 730.104 33.7352 732.3 Q35.072 734.465 37.7456 734.465 Q39.7826 734.465 40.9603 732.905 Q42.1061 731.345 43.1565 726.635 L43.6021 724.63 Q44.9389 718.391 47.3897 715.781 Q49.8086 713.14 54.1691 713.14 Q59.1344 713.14 62.0308 717.086 Q64.9272 721.001 64.9272 727.876 Q64.9272 730.741 64.3543 733.86 Q63.8132 736.947 62.6992 740.385 L56.6518 740.385 Q58.3387 737.138 59.198 733.987 Q60.0256 730.836 60.0256 727.749 Q60.0256 723.611 58.6251 721.383 Q57.1929 719.155 54.6147 719.155 Q52.2276 719.155 50.9545 720.778 Q49.6813 722.37 48.5037 727.812 L48.0262 729.85 Q46.8804 735.292 44.5251 737.711 Q42.138 740.13 38.0002 740.13 Q32.9713 740.13 30.2341 736.565 Q27.4968 733.001 27.4968 726.444 Q27.4968 723.197 27.9743 720.333 Q28.4517 717.468 29.4065 715.049 Z" fill="#000000" fill-rule="nonzero" fill-opacity="1" /><path clip-path="url(#clip980)" d="M58.657 698.148 L77.5631 698.148 L77.5631 704.037 L28.3562 704.037 L28.3562 698.148 L33.7671 698.148 Q30.5842 696.302 29.0564 693.501 Q27.4968 690.669 27.4968 686.754 Q27.4968 680.261 32.6531 676.218 Q37.8093 672.144 46.212 672.144 Q54.6147 672.144 59.771 676.218 Q64.9272 680.261 64.9272 686.754 Q64.9272 690.669 63.3994 693.501 Q61.8398 696.302 58.657 698.148 M46.212 678.224 Q39.7508 678.224 36.0905 680.897 Q32.3984 683.539 32.3984 688.186 Q32.3984 692.833 36.0905 695.507 Q39.7508 698.148 46.212 698.148 Q52.6732 698.148 56.3653 695.507 Q60.0256 692.833 60.0256 688.186 Q60.0256 683.539 56.3653 680.897 Q52.6732 678.224 46.212 678.224 Z" fill="#000000" fill-rule="nonzero" fill-opacity="1" /><path clip-path="url(#clip980)" d="M44.7161 631.945 L47.5806 631.945 L47.5806 658.872 Q53.6281 658.49 56.8109 655.243 Q59.9619 651.965 59.9619 646.14 Q59.9619 642.767 59.1344 639.616 Q58.3069 636.433 56.6518 633.314 L62.1899 633.314 Q63.5267 636.465 64.227 639.775 Q64.9272 643.085 64.9272 646.491 Q64.9272 655.021 59.9619 660.018 Q54.9967 664.983 46.5303 664.983 Q37.7774 664.983 32.6531 660.272 Q27.4968 655.53 27.4968 647.509 Q27.4968 640.316 32.1438 636.146 Q36.7589 631.945 44.7161 631.945 M42.9973 637.801 Q38.1912 637.865 35.3266 640.507 Q32.4621 643.117 32.4621 647.445 Q32.4621 652.347 35.2312 655.307 Q38.0002 658.235 43.0292 658.681 L42.9973 637.801 Z" fill="#000000" fill-rule="nonzero" fill-opacity="1" /><path clip-path="url(#clip980)" d="M33.8307 601.676 Q33.2578 602.663 33.0032 603.84 Q32.7167 604.986 32.7167 606.387 Q32.7167 611.352 35.9632 614.025 Q39.1779 616.667 45.2253 616.667 L64.0042 616.667 L64.0042 622.556 L28.3562 622.556 L28.3562 616.667 L33.8944 616.667 Q30.6479 614.821 29.0883 611.861 Q27.4968 608.901 27.4968 604.668 Q27.4968 604.063 27.5923 603.331 Q27.656 602.599 27.8151 601.708 L33.8307 601.676 Z" fill="#000000" fill-rule="nonzero" fill-opacity="1" /><path clip-path="url(#clip980)" d="M29.4065 572.808 L34.9447 572.808 Q33.6716 575.29 33.035 577.964 Q32.3984 580.637 32.3984 583.502 Q32.3984 587.862 33.7352 590.059 Q35.072 592.223 37.7456 592.223 Q39.7826 592.223 40.9603 590.663 Q42.1061 589.104 43.1565 584.393 L43.6021 582.388 Q44.9389 576.15 47.3897 573.54 Q49.8086 570.898 54.1691 570.898 Q59.1344 570.898 62.0308 574.845 Q64.9272 578.759 64.9272 585.634 Q64.9272 588.499 64.3543 591.618 Q63.8132 594.706 62.6992 598.143 L56.6518 598.143 Q58.3387 594.897 59.198 591.746 Q60.0256 588.594 60.0256 585.507 Q60.0256 581.369 58.6251 579.141 Q57.1929 576.913 54.6147 576.913 Q52.2276 576.913 50.9545 578.537 Q49.6813 580.128 48.5037 585.571 L48.0262 587.608 Q46.8804 593.05 44.5251 595.469 Q42.138 597.888 38.0002 597.888 Q32.9713 597.888 30.2341 594.324 Q27.4968 590.759 27.4968 584.202 Q27.4968 580.956 27.9743 578.091 Q28.4517 575.227 29.4065 572.808 Z" fill="#000000" fill-rule="nonzero" fill-opacity="1" /><path clip-path="url(#clip980)" d="M28.3562 561.572 L28.3562 555.716 L64.0042 555.716 L64.0042 561.572 L28.3562 561.572 M14.479 561.572 L14.479 555.716 L21.895 555.716 L21.895 561.572 L14.479 561.572 Z" fill="#000000" fill-rule="nonzero" fill-opacity="1" /><path clip-path="url(#clip980)" d="M32.4621 529.648 Q32.4621 534.359 36.1542 537.096 Q39.8145 539.833 46.212 539.833 Q52.6095 539.833 56.3017 537.128 Q59.9619 534.39 59.9619 529.648 Q59.9619 524.969 56.2698 522.232 Q52.5777 519.495 46.212 519.495 Q39.8781 519.495 36.186 522.232 Q32.4621 524.969 32.4621 529.648 M27.4968 529.648 Q27.4968 522.009 32.4621 517.649 Q37.4273 513.288 46.212 513.288 Q54.9649 513.288 59.9619 517.649 Q64.9272 522.009 64.9272 529.648 Q64.9272 537.319 59.9619 541.679 Q54.9649 546.008 46.212 546.008 Q37.4273 546.008 32.4621 541.679 Q27.4968 537.319 27.4968 529.648 Z" fill="#000000" fill-rule="nonzero" fill-opacity="1" /><path clip-path="url(#clip980)" d="M42.4881 473.948 L64.0042 473.948 L64.0042 479.805 L42.679 479.805 Q37.6183 479.805 35.1038 481.778 Q32.5894 483.751 32.5894 487.698 Q32.5894 492.44 35.6131 495.178 Q38.6368 497.915 43.8567 497.915 L64.0042 497.915 L64.0042 503.803 L28.3562 503.803 L28.3562 497.915 L33.8944 497.915 Q30.6797 495.814 29.0883 492.982 Q27.4968 490.117 27.4968 486.393 Q27.4968 480.25 31.3163 477.099 Q35.1038 473.948 42.4881 473.948 Z" fill="#000000" fill-rule="nonzero" fill-opacity="1" /><path clip-path="url(#clip980)" d="M55.9197 460.771 L55.9197 454.055 L61.3942 454.055 L71.5793 459.275 L71.5793 463.381 L61.3942 460.771 L55.9197 460.771 Z" fill="#000000" fill-rule="nonzero" fill-opacity="1" /><path clip-path="url(#clip980)" d="M35.1993 393.072 Q31.2526 390.876 29.3747 387.82 Q27.4968 384.765 27.4968 380.627 Q27.4968 375.057 31.4117 372.033 Q35.2948 369.009 42.4881 369.009 L64.0042 369.009 L64.0042 374.898 L42.679 374.898 Q37.5546 374.898 35.072 376.712 Q32.5894 378.526 32.5894 382.25 Q32.5894 386.802 35.6131 389.443 Q38.6368 392.085 43.8567 392.085 L64.0042 392.085 L64.0042 397.973 L42.679 397.973 Q37.5228 397.973 35.072 399.788 Q32.5894 401.602 32.5894 405.389 Q32.5894 409.877 35.6449 412.519 Q38.6686 415.161 43.8567 415.161 L64.0042 415.161 L64.0042 421.049 L28.3562 421.049 L28.3562 415.161 L33.8944 415.161 Q30.616 413.156 29.0564 410.355 Q27.4968 407.554 27.4968 403.703 Q27.4968 399.819 29.4702 397.114 Q31.4436 394.377 35.1993 393.072 Z" fill="#000000" fill-rule="nonzero" fill-opacity="1" /><path clip-path="url(#clip980)" d="M423.787 18.8205 L423.787 65.8515 L433.671 65.8515 Q446.188 65.8515 451.981 60.1802 Q457.814 54.509 457.814 42.2752 Q457.814 30.1225 451.981 24.4918 Q446.188 18.8205 433.671 18.8205 L423.787 18.8205 M415.604 12.096 L432.415 12.096 Q449.996 12.096 458.219 19.4281 Q466.443 26.7198 466.443 42.2752 Q466.443 57.9117 458.179 65.2439 Q449.915 72.576 432.415 72.576 L415.604 72.576 L415.604 12.096 Z" fill="#000000" fill-rule="nonzero" fill-opacity="1" /><path clip-path="url(#clip980)" d="M496.744 32.4315 Q490.748 32.4315 487.264 37.1306 Q483.781 41.7891 483.781 49.9314 Q483.781 58.0738 487.224 62.7728 Q490.708 67.4314 496.744 67.4314 Q502.698 67.4314 506.182 62.7323 Q509.666 58.0333 509.666 49.9314 Q509.666 41.8701 506.182 37.1711 Q502.698 32.4315 496.744 32.4315 M496.744 26.1121 Q506.466 26.1121 512.015 32.4315 Q517.565 38.7509 517.565 49.9314 Q517.565 61.0714 512.015 67.4314 Q506.466 73.7508 496.744 73.7508 Q486.981 73.7508 481.431 67.4314 Q475.922 61.0714 475.922 49.9314 Q475.922 38.7509 481.431 32.4315 Q486.981 26.1121 496.744 26.1121 Z" fill="#000000" fill-rule="nonzero" fill-opacity="1" /><path clip-path="url(#clip980)" d="M525.586 27.2059 L533.04 27.2059 L542.357 62.6108 L551.633 27.2059 L560.424 27.2059 L569.741 62.6108 L579.017 27.2059 L586.471 27.2059 L574.602 72.576 L565.811 72.576 L556.049 35.3887 L546.246 72.576 L537.455 72.576 L525.586 27.2059 Z" fill="#000000" fill-rule="nonzero" fill-opacity="1" /><path clip-path="url(#clip980)" d="M635.487 45.1919 L635.487 72.576 L628.033 72.576 L628.033 45.4349 Q628.033 38.994 625.522 35.7938 Q623.01 32.5936 617.987 32.5936 Q611.951 32.5936 608.467 36.4419 Q604.984 40.2903 604.984 46.9338 L604.984 72.576 L597.49 72.576 L597.49 27.2059 L604.984 27.2059 L604.984 34.2544 Q607.657 30.163 611.263 28.1376 Q614.908 26.1121 619.648 26.1121 Q627.466 26.1121 631.477 30.9732 Q635.487 35.7938 635.487 45.1919 Z" fill="#000000" fill-rule="nonzero" fill-opacity="1" /><path clip-path="url(#clip980)" d="M646.019 27.2059 L653.473 27.2059 L662.79 62.6108 L672.067 27.2059 L680.857 27.2059 L690.174 62.6108 L699.451 27.2059 L706.904 27.2059 L695.035 72.576 L686.245 72.576 L676.482 35.3887 L666.679 72.576 L657.889 72.576 L646.019 27.2059 Z" fill="#000000" fill-rule="nonzero" fill-opacity="1" /><path clip-path="url(#clip980)" d="M718.206 27.2059 L725.66 27.2059 L725.66 72.576 L718.206 72.576 L718.206 27.2059 M718.206 9.54393 L725.66 9.54393 L725.66 18.9825 L718.206 18.9825 L718.206 9.54393 Z" fill="#000000" fill-rule="nonzero" fill-opacity="1" /><path clip-path="url(#clip980)" d="M778.97 45.1919 L778.97 72.576 L771.516 72.576 L771.516 45.4349 Q771.516 38.994 769.005 35.7938 Q766.493 32.5936 761.47 32.5936 Q755.434 32.5936 751.951 36.4419 Q748.467 40.2903 748.467 46.9338 L748.467 72.576 L740.973 72.576 L740.973 27.2059 L748.467 27.2059 L748.467 34.2544 Q751.14 30.163 754.746 28.1376 Q758.391 26.1121 763.131 26.1121 Q770.949 26.1121 774.96 30.9732 Q778.97 35.7938 778.97 45.1919 Z" fill="#000000" fill-rule="nonzero" fill-opacity="1" /><path clip-path="url(#clip980)" d="M823.692 34.0924 L823.692 9.54393 L831.146 9.54393 L831.146 72.576 L823.692 72.576 L823.692 65.7705 Q821.343 69.8214 817.737 71.8063 Q814.172 73.7508 809.149 73.7508 Q800.926 73.7508 795.741 67.1883 Q790.596 60.6258 790.596 49.9314 Q790.596 39.2371 795.741 32.6746 Q800.926 26.1121 809.149 26.1121 Q814.172 26.1121 817.737 28.0971 Q821.343 30.0415 823.692 34.0924 M798.293 49.9314 Q798.293 58.1548 801.655 62.8538 Q805.058 67.5124 810.972 67.5124 Q816.887 67.5124 820.289 62.8538 Q823.692 58.1548 823.692 49.9314 Q823.692 41.7081 820.289 37.0496 Q816.887 32.3505 810.972 32.3505 Q805.058 32.3505 801.655 37.0496 Q798.293 41.7081 798.293 49.9314 Z" fill="#000000" fill-rule="nonzero" fill-opacity="1" /><path clip-path="url(#clip980)" d="M881.377 18.8205 L881.377 65.8515 L891.261 65.8515 Q903.778 65.8515 909.571 60.1802 Q915.405 54.509 915.405 42.2752 Q915.405 30.1225 909.571 24.4918 Q903.778 18.8205 891.261 18.8205 L881.377 18.8205 M873.194 12.096 L890.005 12.096 Q907.586 12.096 915.81 19.4281 Q924.033 26.7198 924.033 42.2752 Q924.033 57.9117 915.769 65.2439 Q907.505 72.576 890.005 72.576 L873.194 72.576 L873.194 12.096 Z" fill="#000000" fill-rule="nonzero" fill-opacity="1" /><path clip-path="url(#clip980)" d="M936.753 27.2059 L944.206 27.2059 L944.206 72.576 L936.753 72.576 L936.753 27.2059 M936.753 9.54393 L944.206 9.54393 L944.206 18.9825 L936.753 18.9825 L936.753 9.54393 Z" fill="#000000" fill-rule="nonzero" fill-opacity="1" /><path clip-path="url(#clip980)" d="M988.726 28.5427 L988.726 35.5912 Q985.566 33.9709 982.163 33.1607 Q978.761 32.3505 975.115 32.3505 Q969.565 32.3505 966.77 34.0519 Q964.015 35.7533 964.015 39.156 Q964.015 41.7486 966 43.2475 Q967.985 44.7058 973.981 46.0426 L976.533 46.6097 Q984.472 48.3111 987.794 51.4303 Q991.156 54.509 991.156 60.0587 Q991.156 66.3781 986.133 70.0644 Q981.151 73.7508 972.401 73.7508 Q968.755 73.7508 964.785 73.0216 Q960.856 72.3329 956.481 70.9151 L956.481 63.2184 Q960.613 65.3654 964.623 66.4591 Q968.633 67.5124 972.563 67.5124 Q977.829 67.5124 980.665 65.73 Q983.5 63.9071 983.5 60.6258 Q983.5 57.5877 981.434 55.9673 Q979.409 54.3469 972.482 52.8481 L969.889 52.2405 Q962.962 50.7821 959.883 47.7845 Q956.805 44.7463 956.805 39.4801 Q956.805 33.0797 961.342 29.5959 Q965.879 26.1121 974.224 26.1121 Q978.356 26.1121 982.001 26.7198 Q985.647 27.3274 988.726 28.5427 Z" fill="#000000" fill-rule="nonzero" fill-opacity="1" /><path clip-path="url(#clip980)" d="M1010.24 65.7705 L1010.24 89.8329 L1002.74 89.8329 L1002.74 27.2059 L1010.24 27.2059 L1010.24 34.0924 Q1012.59 30.0415 1016.15 28.0971 Q1019.76 26.1121 1024.74 26.1121 Q1033 26.1121 1038.15 32.6746 Q1043.33 39.2371 1043.33 49.9314 Q1043.33 60.6258 1038.15 67.1883 Q1033 73.7508 1024.74 73.7508 Q1019.76 73.7508 1016.15 71.8063 Q1012.59 69.8214 1010.24 65.7705 M1035.59 49.9314 Q1035.59 41.7081 1032.19 37.0496 Q1028.83 32.3505 1022.92 32.3505 Q1017 32.3505 1013.6 37.0496 Q1010.24 41.7081 1010.24 49.9314 Q1010.24 58.1548 1013.6 62.8538 Q1017 67.5124 1022.92 67.5124 Q1028.83 67.5124 1032.19 62.8538 Q1035.59 58.1548 1035.59 49.9314 Z" fill="#000000" fill-rule="nonzero" fill-opacity="1" /><path clip-path="url(#clip980)" d="M1094.49 48.0275 L1094.49 51.6733 L1060.22 51.6733 Q1060.71 59.3701 1064.84 63.421 Q1069.01 67.4314 1076.43 67.4314 Q1080.72 67.4314 1084.73 66.3781 Q1088.78 65.3249 1092.75 63.2184 L1092.75 70.267 Q1088.74 71.9684 1084.53 72.8596 Q1080.32 73.7508 1075.98 73.7508 Q1065.13 73.7508 1058.77 67.4314 Q1052.45 61.1119 1052.45 50.3365 Q1052.45 39.1965 1058.44 32.6746 Q1064.48 26.1121 1074.69 26.1121 Q1083.84 26.1121 1089.15 32.0264 Q1094.49 37.9003 1094.49 48.0275 M1087.04 45.84 Q1086.96 39.7232 1083.6 36.0774 Q1080.28 32.4315 1074.77 32.4315 Q1068.53 32.4315 1064.76 35.9558 Q1061.03 39.4801 1060.47 45.8805 L1087.04 45.84 Z" fill="#000000" fill-rule="nonzero" fill-opacity="1" /><path clip-path="url(#clip980)" d="M1133.02 34.1734 Q1131.76 33.4443 1130.26 33.1202 Q1128.81 32.7556 1127.02 32.7556 Q1120.7 32.7556 1117.3 36.8875 Q1113.94 40.9789 1113.94 48.6757 L1113.94 72.576 L1106.45 72.576 L1106.45 27.2059 L1113.94 27.2059 L1113.94 34.2544 Q1116.29 30.1225 1120.06 28.1376 Q1123.82 26.1121 1129.21 26.1121 Q1129.98 26.1121 1130.91 26.2337 Q1131.84 26.3147 1132.98 26.5172 L1133.02 34.1734 Z" fill="#000000" fill-rule="nonzero" fill-opacity="1" /><path clip-path="url(#clip980)" d="M1169.76 28.5427 L1169.76 35.5912 Q1166.6 33.9709 1163.2 33.1607 Q1159.8 32.3505 1156.15 32.3505 Q1150.6 32.3505 1147.8 34.0519 Q1145.05 35.7533 1145.05 39.156 Q1145.05 41.7486 1147.04 43.2475 Q1149.02 44.7058 1155.02 46.0426 L1157.57 46.6097 Q1165.51 48.3111 1168.83 51.4303 Q1172.19 54.509 1172.19 60.0587 Q1172.19 66.3781 1167.17 70.0644 Q1162.19 73.7508 1153.44 73.7508 Q1149.79 73.7508 1145.82 73.0216 Q1141.89 72.3329 1137.52 70.9151 L1137.52 63.2184 Q1141.65 65.3654 1145.66 66.4591 Q1149.67 67.5124 1153.6 67.5124 Q1158.86 67.5124 1161.7 65.73 Q1164.54 63.9071 1164.54 60.6258 Q1164.54 57.5877 1162.47 55.9673 Q1160.44 54.3469 1153.52 52.8481 L1150.92 52.2405 Q1144 50.7821 1140.92 47.7845 Q1137.84 44.7463 1137.84 39.4801 Q1137.84 33.0797 1142.38 29.5959 Q1146.91 26.1121 1155.26 26.1121 Q1159.39 26.1121 1163.04 26.7198 Q1166.68 27.3274 1169.76 28.5427 Z" fill="#000000" fill-rule="nonzero" fill-opacity="1" /><path clip-path="url(#clip980)" d="M1184.06 27.2059 L1191.51 27.2059 L1191.51 72.576 L1184.06 72.576 L1184.06 27.2059 M1184.06 9.54393 L1191.51 9.54393 L1191.51 18.9825 L1184.06 18.9825 L1184.06 9.54393 Z" fill="#000000" fill-rule="nonzero" fill-opacity="1" /><path clip-path="url(#clip980)" d="M1224.69 32.4315 Q1218.7 32.4315 1215.21 37.1306 Q1211.73 41.7891 1211.73 49.9314 Q1211.73 58.0738 1215.17 62.7728 Q1218.66 67.4314 1224.69 67.4314 Q1230.65 67.4314 1234.13 62.7323 Q1237.61 58.0333 1237.61 49.9314 Q1237.61 41.8701 1234.13 37.1711 Q1230.65 32.4315 1224.69 32.4315 M1224.69 26.1121 Q1234.41 26.1121 1239.96 32.4315 Q1245.51 38.7509 1245.51 49.9314 Q1245.51 61.0714 1239.96 67.4314 Q1234.41 73.7508 1224.69 73.7508 Q1214.93 73.7508 1209.38 67.4314 Q1203.87 61.0714 1203.87 49.9314 Q1203.87 38.7509 1209.38 32.4315 Q1214.93 26.1121 1224.69 26.1121 Z" fill="#000000" fill-rule="nonzero" fill-opacity="1" /><path clip-path="url(#clip980)" d="M1295.58 45.1919 L1295.58 72.576 L1288.13 72.576 L1288.13 45.4349 Q1288.13 38.994 1285.62 35.7938 Q1283.11 32.5936 1278.08 32.5936 Q1272.05 32.5936 1268.56 36.4419 Q1265.08 40.2903 1265.08 46.9338 L1265.08 72.576 L1257.58 72.576 L1257.58 27.2059 L1265.08 27.2059 L1265.08 34.2544 Q1267.75 30.163 1271.36 28.1376 Q1275 26.1121 1279.74 26.1121 Q1287.56 26.1121 1291.57 30.9732 Q1295.58 35.7938 1295.58 45.1919 Z" fill="#000000" fill-rule="nonzero" fill-opacity="1" /><path clip-path="url(#clip980)" d="M1359.79 9.54393 L1359.79 15.7418 L1352.66 15.7418 Q1348.65 15.7418 1347.07 17.3622 Q1345.53 18.9825 1345.53 23.1955 L1345.53 27.2059 L1357.8 27.2059 L1357.8 32.9987 L1345.53 32.9987 L1345.53 72.576 L1338.04 72.576 L1338.04 32.9987 L1330.91 32.9987 L1330.91 27.2059 L1338.04 27.2059 L1338.04 24.0462 Q1338.04 16.471 1341.56 13.0277 Q1345.08 9.54393 1352.74 9.54393 L1359.79 9.54393 Z" fill="#000000" fill-rule="nonzero" fill-opacity="1" /><path clip-path="url(#clip980)" d="M1383.61 32.4315 Q1377.61 32.4315 1374.13 37.1306 Q1370.65 41.7891 1370.65 49.9314 Q1370.65 58.0738 1374.09 62.7728 Q1377.57 67.4314 1383.61 67.4314 Q1389.56 67.4314 1393.05 62.7323 Q1396.53 58.0333 1396.53 49.9314 Q1396.53 41.8701 1393.05 37.1711 Q1389.56 32.4315 1383.61 32.4315 M1383.61 26.1121 Q1393.33 26.1121 1398.88 32.4315 Q1404.43 38.7509 1404.43 49.9314 Q1404.43 61.0714 1398.88 67.4314 Q1393.33 73.7508 1383.61 73.7508 Q1373.85 73.7508 1368.3 67.4314 Q1362.79 61.0714 1362.79 49.9314 Q1362.79 38.7509 1368.3 32.4315 Q1373.85 26.1121 1383.61 26.1121 Z" fill="#000000" fill-rule="nonzero" fill-opacity="1" /><path clip-path="url(#clip980)" d="M1443.08 34.1734 Q1441.82 33.4443 1440.32 33.1202 Q1438.86 32.7556 1437.08 32.7556 Q1430.76 32.7556 1427.36 36.8875 Q1424 40.9789 1424 48.6757 L1424 72.576 L1416.5 72.576 L1416.5 27.2059 L1424 27.2059 L1424 34.2544 Q1426.35 30.1225 1430.11 28.1376 Q1433.88 26.1121 1439.27 26.1121 Q1440.04 26.1121 1440.97 26.2337 Q1441.9 26.3147 1443.03 26.5172 L1443.08 34.1734 Z" fill="#000000" fill-rule="nonzero" fill-opacity="1" /><path clip-path="url(#clip980)" d="M1522.88 16.7545 L1522.88 25.383 Q1518.75 21.5346 1514.05 19.6307 Q1509.39 17.7268 1504.12 17.7268 Q1493.75 17.7268 1488.24 24.0867 Q1482.73 30.4061 1482.73 42.3968 Q1482.73 54.3469 1488.24 60.7069 Q1493.75 67.0263 1504.12 67.0263 Q1509.39 67.0263 1514.05 65.1223 Q1518.75 63.2184 1522.88 59.3701 L1522.88 67.9175 Q1518.58 70.8341 1513.76 72.2924 Q1508.98 73.7508 1503.64 73.7508 Q1489.9 73.7508 1482 65.3654 Q1474.11 56.9395 1474.11 42.3968 Q1474.11 27.8135 1482 19.4281 Q1489.9 11.0023 1503.64 11.0023 Q1509.06 11.0023 1513.84 12.4606 Q1518.67 13.8784 1522.88 16.7545 Z" fill="#000000" fill-rule="nonzero" fill-opacity="1" /><path clip-path="url(#clip980)" d="M1535.19 9.54393 L1542.65 9.54393 L1542.65 72.576 L1535.19 72.576 L1535.19 9.54393 Z" fill="#000000" fill-rule="nonzero" fill-opacity="1" /><path clip-path="url(#clip980)" d="M1578.86 49.7694 Q1569.83 49.7694 1566.34 51.8354 Q1562.86 53.9013 1562.86 58.8839 Q1562.86 62.8538 1565.45 65.2034 Q1568.09 67.5124 1572.58 67.5124 Q1578.78 67.5124 1582.51 63.1374 Q1586.27 58.7219 1586.27 51.4303 L1586.27 49.7694 L1578.86 49.7694 M1593.73 46.6907 L1593.73 72.576 L1586.27 72.576 L1586.27 65.6895 Q1583.72 69.8214 1579.91 71.8063 Q1576.11 73.7508 1570.6 73.7508 Q1563.63 73.7508 1559.5 69.8619 Q1555.41 65.9325 1555.41 59.3701 Q1555.41 51.7138 1560.51 47.825 Q1565.66 43.9361 1575.82 43.9361 L1586.27 43.9361 L1586.27 43.2069 Q1586.27 38.0623 1582.87 35.2672 Q1579.51 32.4315 1573.39 32.4315 Q1569.5 32.4315 1565.82 33.3632 Q1562.13 34.295 1558.73 36.1584 L1558.73 29.2718 Q1562.82 27.692 1566.67 26.9223 Q1570.52 26.1121 1574.16 26.1121 Q1584.01 26.1121 1588.87 31.2163 Q1593.73 36.3204 1593.73 46.6907 Z" fill="#000000" fill-rule="nonzero" fill-opacity="1" /><path clip-path="url(#clip980)" d="M1638 28.5427 L1638 35.5912 Q1634.85 33.9709 1631.44 33.1607 Q1628.04 32.3505 1624.39 32.3505 Q1618.84 32.3505 1616.05 34.0519 Q1613.29 35.7533 1613.29 39.156 Q1613.29 41.7486 1615.28 43.2475 Q1617.26 44.7058 1623.26 46.0426 L1625.81 46.6097 Q1633.75 48.3111 1637.07 51.4303 Q1640.44 54.509 1640.44 60.0587 Q1640.44 66.3781 1635.41 70.0644 Q1630.43 73.7508 1621.68 73.7508 Q1618.03 73.7508 1614.06 73.0216 Q1610.13 72.3329 1605.76 70.9151 L1605.76 63.2184 Q1609.89 65.3654 1613.9 66.4591 Q1617.91 67.5124 1621.84 67.5124 Q1627.11 67.5124 1629.94 65.73 Q1632.78 63.9071 1632.78 60.6258 Q1632.78 57.5877 1630.71 55.9673 Q1628.69 54.3469 1621.76 52.8481 L1619.17 52.2405 Q1612.24 50.7821 1609.16 47.7845 Q1606.08 44.7463 1606.08 39.4801 Q1606.08 33.0797 1610.62 29.5959 Q1615.16 26.1121 1623.5 26.1121 Q1627.63 26.1121 1631.28 26.7198 Q1634.93 27.3274 1638 28.5427 Z" fill="#000000" fill-rule="nonzero" fill-opacity="1" /><path clip-path="url(#clip980)" d="M1681.23 28.5427 L1681.23 35.5912 Q1678.07 33.9709 1674.67 33.1607 Q1671.26 32.3505 1667.62 32.3505 Q1662.07 32.3505 1659.27 34.0519 Q1656.52 35.7533 1656.52 39.156 Q1656.52 41.7486 1658.5 43.2475 Q1660.49 44.7058 1666.48 46.0426 L1669.03 46.6097 Q1676.97 48.3111 1680.3 51.4303 Q1683.66 54.509 1683.66 60.0587 Q1683.66 66.3781 1678.64 70.0644 Q1673.65 73.7508 1664.9 73.7508 Q1661.26 73.7508 1657.29 73.0216 Q1653.36 72.3329 1648.98 70.9151 L1648.98 63.2184 Q1653.11 65.3654 1657.13 66.4591 Q1661.14 67.5124 1665.06 67.5124 Q1670.33 67.5124 1673.17 65.73 Q1676 63.9071 1676 60.6258 Q1676 57.5877 1673.94 55.9673 Q1671.91 54.3469 1664.98 52.8481 L1662.39 52.2405 Q1655.46 50.7821 1652.39 47.7845 Q1649.31 44.7463 1649.31 39.4801 Q1649.31 33.0797 1653.84 29.5959 Q1658.38 26.1121 1666.73 26.1121 Q1670.86 26.1121 1674.5 26.7198 Q1678.15 27.3274 1681.23 28.5427 Z" fill="#000000" fill-rule="nonzero" fill-opacity="1" /><path clip-path="url(#clip980)" d="M1695.85 12.096 L1734.09 12.096 L1734.09 18.9825 L1704.03 18.9825 L1704.03 36.8875 L1732.84 36.8875 L1732.84 43.7741 L1704.03 43.7741 L1704.03 65.6895 L1734.82 65.6895 L1734.82 72.576 L1695.85 72.576 L1695.85 12.096 Z" fill="#000000" fill-rule="nonzero" fill-opacity="1" /><path clip-path="url(#clip980)" d="M1765.85 9.62495 Q1760.42 18.942 1757.79 28.0566 Q1755.16 37.1711 1755.16 46.5287 Q1755.16 55.8863 1757.79 65.0818 Q1760.46 74.2369 1765.85 83.5134 L1759.37 83.5134 Q1753.29 73.9938 1750.26 64.7983 Q1747.26 55.6027 1747.26 46.5287 Q1747.26 37.4952 1750.26 28.3401 Q1753.25 19.1851 1759.37 9.62495 L1765.85 9.62495 Z" fill="#000000" fill-rule="nonzero" fill-opacity="1" /><path clip-path="url(#clip980)" d="M1779.14 9.62495 L1785.62 9.62495 Q1791.7 19.1851 1794.69 28.3401 Q1797.73 37.4952 1797.73 46.5287 Q1797.73 55.6027 1794.69 64.7983 Q1791.7 73.9938 1785.62 83.5134 L1779.14 83.5134 Q1784.53 74.2369 1787.16 65.0818 Q1789.83 55.8863 1789.83 46.5287 Q1789.83 37.1711 1787.16 28.0566 Q1784.53 18.942 1779.14 9.62495 Z" fill="#000000" fill-rule="nonzero" fill-opacity="1" /><path clip-path="url(#clip980)" d="M1867.97 28.5427 L1867.97 35.5912 Q1864.81 33.9709 1861.41 33.1607 Q1858.01 32.3505 1854.36 32.3505 Q1848.81 32.3505 1846.02 34.0519 Q1843.26 35.7533 1843.26 39.156 Q1843.26 41.7486 1845.25 43.2475 Q1847.23 44.7058 1853.23 46.0426 L1855.78 46.6097 Q1863.72 48.3111 1867.04 51.4303 Q1870.41 54.509 1870.41 60.0587 Q1870.41 66.3781 1865.38 70.0644 Q1860.4 73.7508 1851.65 73.7508 Q1848 73.7508 1844.03 73.0216 Q1840.1 72.3329 1835.73 70.9151 L1835.73 63.2184 Q1839.86 65.3654 1843.87 66.4591 Q1847.88 67.5124 1851.81 67.5124 Q1857.08 67.5124 1859.91 65.73 Q1862.75 63.9071 1862.75 60.6258 Q1862.75 57.5877 1860.68 55.9673 Q1858.66 54.3469 1851.73 52.8481 L1849.14 52.2405 Q1842.21 50.7821 1839.13 47.7845 Q1836.05 44.7463 1836.05 39.4801 Q1836.05 33.0797 1840.59 29.5959 Q1845.13 26.1121 1853.47 26.1121 Q1857.6 26.1121 1861.25 26.7198 Q1864.9 27.3274 1867.97 28.5427 Z" fill="#000000" fill-rule="nonzero" fill-opacity="1" /><path clip-path="url(#clip980)" d="M1889.65 14.324 L1889.65 27.2059 L1905 27.2059 L1905 32.9987 L1889.65 32.9987 L1889.65 57.6282 Q1889.65 63.1779 1891.15 64.7578 Q1892.69 66.3376 1897.34 66.3376 L1905 66.3376 L1905 72.576 L1897.34 72.576 Q1888.72 72.576 1885.43 69.3758 Q1882.15 66.1351 1882.15 57.6282 L1882.15 32.9987 L1876.68 32.9987 L1876.68 27.2059 L1882.15 27.2059 L1882.15 14.324 L1889.65 14.324 Z" fill="#000000" fill-rule="nonzero" fill-opacity="1" /><path clip-path="url(#clip980)" d="M1935.42 49.7694 Q1926.39 49.7694 1922.9 51.8354 Q1919.42 53.9013 1919.42 58.8839 Q1919.42 62.8538 1922.01 65.2034 Q1924.65 67.5124 1929.14 67.5124 Q1935.34 67.5124 1939.07 63.1374 Q1942.84 58.7219 1942.84 51.4303 L1942.84 49.7694 L1935.42 49.7694 M1950.29 46.6907 L1950.29 72.576 L1942.84 72.576 L1942.84 65.6895 Q1940.28 69.8214 1936.48 71.8063 Q1932.67 73.7508 1927.16 73.7508 Q1920.19 73.7508 1916.06 69.8619 Q1911.97 65.9325 1911.97 59.3701 Q1911.97 51.7138 1917.07 47.825 Q1922.22 43.9361 1932.38 43.9361 L1942.84 43.9361 L1942.84 43.2069 Q1942.84 38.0623 1939.43 35.2672 Q1936.07 32.4315 1929.95 32.4315 Q1926.06 32.4315 1922.38 33.3632 Q1918.69 34.295 1915.29 36.1584 L1915.29 29.2718 Q1919.38 27.692 1923.23 26.9223 Q1927.08 26.1121 1930.72 26.1121 Q1940.57 26.1121 1945.43 31.2163 Q1950.29 36.3204 1950.29 46.6907 Z" fill="#000000" fill-rule="nonzero" fill-opacity="1" /><path clip-path="url(#clip980)" d="M1998.21 49.9314 Q1998.21 41.7081 1994.81 37.0496 Q1991.45 32.3505 1985.53 32.3505 Q1979.62 32.3505 1976.21 37.0496 Q1972.85 41.7081 1972.85 49.9314 Q1972.85 58.1548 1976.21 62.8538 Q1979.62 67.5124 1985.53 67.5124 Q1991.45 67.5124 1994.81 62.8538 Q1998.21 58.1548 1998.21 49.9314 M1972.85 34.0924 Q1975.2 30.0415 1978.77 28.0971 Q1982.37 26.1121 1987.35 26.1121 Q1995.62 26.1121 2000.76 32.6746 Q2005.95 39.2371 2005.95 49.9314 Q2005.95 60.6258 2000.76 67.1883 Q1995.62 73.7508 1987.35 73.7508 Q1982.37 73.7508 1978.77 71.8063 Q1975.2 69.8214 1972.85 65.7705 L1972.85 72.576 L1965.36 72.576 L1965.36 9.54393 L1972.85 9.54393 L1972.85 34.0924 Z" fill="#000000" fill-rule="nonzero" fill-opacity="1" /><path clip-path="url(#clip980)" d="M2018.3 27.2059 L2025.76 27.2059 L2025.76 72.576 L2018.3 72.576 L2018.3 27.2059 M2018.3 9.54393 L2025.76 9.54393 L2025.76 18.9825 L2018.3 18.9825 L2018.3 9.54393 Z" fill="#000000" fill-rule="nonzero" fill-opacity="1" /><path clip-path="url(#clip980)" d="M2041.35 9.54393 L2048.81 9.54393 L2048.81 72.576 L2041.35 72.576 L2041.35 9.54393 Z" fill="#000000" fill-rule="nonzero" fill-opacity="1" /><path clip-path="url(#clip980)" d="M2064.4 27.2059 L2071.86 27.2059 L2071.86 72.576 L2064.4 72.576 L2064.4 27.2059 M2064.4 9.54393 L2071.86 9.54393 L2071.86 18.9825 L2064.4 18.9825 L2064.4 9.54393 Z" fill="#000000" fill-rule="nonzero" fill-opacity="1" /><path clip-path="url(#clip980)" d="M2094.83 14.324 L2094.83 27.2059 L2110.18 27.2059 L2110.18 32.9987 L2094.83 32.9987 L2094.83 57.6282 Q2094.83 63.1779 2096.32 64.7578 Q2097.86 66.3376 2102.52 66.3376 L2110.18 66.3376 L2110.18 72.576 L2102.52 72.576 Q2093.89 72.576 2090.61 69.3758 Q2087.33 66.1351 2087.33 57.6282 L2087.33 32.9987 L2081.86 32.9987 L2081.86 27.2059 L2087.33 27.2059 L2087.33 14.324 L2094.83 14.324 Z" fill="#000000" fill-rule="nonzero" fill-opacity="1" /><path clip-path="url(#clip980)" d="M2138.86 76.7889 Q2135.7 84.8907 2132.7 87.3618 Q2129.7 89.8329 2124.68 89.8329 L2118.73 89.8329 L2118.73 83.5945 L2123.1 83.5945 Q2126.18 83.5945 2127.88 82.1361 Q2129.58 80.6778 2131.65 75.2496 L2132.98 71.8468 L2114.63 27.2059 L2122.53 27.2059 L2136.71 62.6918 L2150.89 27.2059 L2158.79 27.2059 L2138.86 76.7889 Z" fill="#000000" fill-rule="nonzero" fill-opacity="1" /><polyline clip-path="url(#clip982)" style="stroke:#009af9; stroke-linecap:round; stroke-linejoin:round; stroke-width:4; stroke-opacity:1; fill:none" points="281.952,1374.46 1088.06,968.051 1208.23,907.462 1278.75,871.91 1328.84,846.655 1367.72,827.053 1399.5,811.03 1426.38,797.48 1449.67,785.739 1470.21,775.381 1488.59,766.115 1505.22,757.732 1520.4,750.078 1534.37,743.036 1547.3,736.517 1559.34,730.447 1570.6,724.768 1581.18,719.434 1591.16,714.404 1600.6,709.647 1609.55,705.133 1618.07,700.84 1626.19,696.746 1633.94,692.834 1641.37,689.089 1648.5,685.496 1655.35,682.044 1661.93,678.723 1668.28,675.522 1674.41,672.434 1680.33,669.45 1686.05,666.564 1691.59,663.77 1696.96,661.061 1702.18,658.434 1707.24,655.883 1712.15,653.403 1716.94,650.991 1721.59,648.644 1726.13,646.358 1730.55,644.129 1734.86,641.956 1739.07,639.835 1743.18,637.764 1747.19,635.74 1751.11,633.762 1754.95,631.827 1758.7,629.934 1762.38,628.081 1765.98,626.266 1769.51,624.488 1772.97,622.745 1776.36,621.035 1779.68,619.359 1782.94,617.713 1786.15,616.098 1789.29,614.512 1792.38,612.954 1795.42,611.423 1798.41,609.918 1801.34,608.439 1804.23,606.984 1807.07,605.552 1809.86,604.144 1812.61,602.758 1815.32,601.393 1817.98,600.049 1820.61,598.725 1823.19,597.421 1825.74,596.136 1828.26,594.869 1830.73,593.621 1833.17,592.389 1835.58,591.175 1837.96,589.977 1840.3,588.796 1842.61,587.63 1844.9,586.479 1847.15,585.343 1849.37,584.222 1851.57,583.115 1853.74,582.021 1855.88,580.941 1858,579.874 1860.09,578.819 1862.16,577.778 1864.2,576.748 1866.22,575.73 1868.21,574.724 1870.19,573.73 1872.14,572.746 1874.07,571.773 1875.97,570.811 1877.86,569.859 1879.73,568.918 1881.58,567.986 1883.41,567.064 1885.22,566.152 1887.01,565.249 1888.78,564.356 1890.53,563.471 1892.27,562.595 1893.99,561.728 1895.7,560.869 1897.38,560.018 1899.05,559.176 1900.71,558.341 1902.35,557.515 1903.97,556.696 1905.58,555.884 1907.18,555.08 1908.76,554.284 1910.32,553.494 1911.87,552.712 1913.41,551.936 1914.94,551.167 1916.45,550.405 1917.95,549.649 1919.43,548.9 1920.91,548.157 1922.37,547.42 1923.82,546.69 1925.26,545.965 1926.68,545.247 1928.1,544.534 1929.5,543.827 1930.89,543.125 1932.27,542.429 1933.64,541.739 1935,541.054 1936.35,540.374 1937.68,539.699 1939.01,539.03 1940.33,538.365 1941.64,537.706 1942.94,537.051 1944.22,536.402 1945.5,535.757 1946.77,535.116 1948.03,534.481 1949.29,533.85 1950.53,533.223 1951.76,532.601 1952.99,531.983 1954.21,531.37 1955.41,530.76 1956.61,530.155 1957.81,529.554 1958.99,528.958 1960.17,528.365 1961.33,527.776 1962.49,527.191 1963.65,526.61 1964.79,526.033 1965.93,525.459 1967.06,524.889 1968.18,524.323 1969.3,523.761 1970.41,523.202 1971.51,522.646 1972.6,522.094 1973.69,521.546 1974.77,521.001 1975.85,520.459 1976.92,519.92 1977.98,519.385 1979.03,518.853 1980.08,518.325 1981.12,517.799 1982.16,517.276 1983.19,516.757 1984.21,516.241 1985.23,515.727 1986.24,515.217 1987.25,514.71 1988.25,514.205 1989.25,513.703 1990.24,513.205 1991.22,512.709 1992.2,512.215 1993.17,511.725 1994.14,511.237 1995.1,510.752 1996.06,510.27 1997.01,509.79 1997.95,509.313 1998.9,508.838 1999.83,508.366 2000.76,507.897 2001.69,507.43 2002.61,506.965 2003.53,506.503 2004.44,506.043 2005.35,505.586 2006.25,505.131 2007.15,504.678 2008.04,504.228 2008.93,503.78 2009.81,503.334 2010.69,502.891 2011.57,502.449 2012.44,502.01 2013.31,501.573 2014.17,501.139 2015.03,500.706 2015.88,500.276 2016.73,499.847 2017.58,499.421 2018.42,498.997 2019.25,498.574 2020.09,498.154 2020.92,497.736 2021.74,497.32 2022.57,496.905 2023.38,496.493 2024.2,496.082 2025.01,495.674 2025.81,495.267 2026.62,494.863 2027.42,494.46 2028.21,494.059 2029,493.659 2029.79,493.262 2030.58,492.866 2031.36,492.472 2032.14,492.08 2032.91,491.69 2033.68,491.301 2034.45,490.914 2035.21,490.529 2035.97,490.145 2036.73,489.763 2037.49,489.383 2038.24,489.004 2038.98,488.627 2039.73,488.252 2040.47,487.878 2041.21,487.506 2041.94,487.135 2042.68,486.766 2043.41,486.398 2044.13,486.032 2044.85,485.668 2045.57,485.305 2046.29,484.943 2047.01,484.583 2047.72,484.224 2048.43,483.867 2049.13,483.511 2049.83,483.157 2050.53,482.804 2051.23,482.453 2051.93,482.103 2052.62,481.754 2053.31,481.407 2053.99,481.061 2054.68,480.716 2055.36,480.373 2056.03,480.031 2056.71,479.691 2057.38,479.351 2058.05,479.013 2058.72,478.677 2059.39,478.341 2060.05,478.007 2060.71,477.674 2061.37,477.343 2062.02,477.013 2062.67,476.683 2063.33,476.356 2063.97,476.029 2064.62,475.703 2065.26,475.379 2065.9,475.056 2066.54,474.734 2067.18,474.413 2067.81,474.094 2068.44,473.775 2069.07,473.458 2069.7,473.142 2070.32,472.827 2070.95,472.513 2071.57,472.2 2072.18,471.889 2072.8,471.578 2073.41,471.269 2074.03,470.96 2074.64,470.653 2075.24,470.347 2075.85,470.042 2076.45,469.738 2077.05,469.435 2077.65,469.133 2078.25,468.832 2078.84,468.532 2079.44,468.233 2080.03,467.935 2080.62,467.638 2081.2,467.342 2081.79,467.047 2082.37,466.753 2082.95,466.46 2083.53,466.168 2084.11,465.877 2084.68,465.587 2085.26,465.298 2085.83,465.01 2086.4,464.722 2086.97,464.436 2087.53,464.151 2088.1,463.866 2088.66,463.583 2089.22,463.3 2089.78,463.018 2090.34,462.738 2090.89,462.458 2091.44,462.179 2092,461.9 2092.55,461.623 2093.09,461.347 2093.64,461.071 2094.19,460.796 2094.73,460.523 2095.27,460.25 2095.81,459.978 2096.35,459.706 2096.89,459.436 2097.42,459.166 2097.95,458.897 2098.48,458.629 2099.01,458.362 2099.54,458.096 2100.07,457.83 2100.6,457.565 2101.12,457.301 2101.64,457.038 2102.16,456.776 2102.68,456.514 2103.2,456.253 2103.71,455.993 2104.23,455.734 2104.74,455.475 2105.25,455.217 2105.76,454.96 2106.27,454.704 2106.78,454.449 2107.28,454.194 2107.79,453.94 2108.29,453.686 2108.79,453.434 2109.29,453.182 2109.79,452.931 2110.28,452.68 2110.78,452.43 2111.27,452.181 2111.77,451.933 2112.26,451.685 2112.75,451.438 2113.24,451.192 2113.72,450.947 2114.21,450.702 2114.69,450.457 2115.18,450.214 2115.66,449.971 2116.14,449.729 2116.62,449.487 2117.1,449.246 2117.57,449.006 2118.05,448.767 2118.52,448.528 2118.99,448.289 2119.47,448.052 2119.94,447.815 2120.4,447.579 2120.87,447.343 2121.34,447.108 2121.8,446.873 2122.27,446.639 2122.73,446.406 2123.19,446.174 2123.65,445.942 2124.11,445.71 2124.57,445.479 2125.02,445.249 2125.48,445.02 2125.93,444.791 2126.39,444.562 2126.84,444.335 2127.29,444.107 2127.74,443.881 2128.19,443.655 2128.63,443.429 2129.08,443.204 2129.52,442.98 2129.97,442.756 2130.41,442.533 2130.85,442.311 2131.29,442.089 2131.73,441.867 2132.17,441.646 2132.61,441.426 2133.04,441.206 2133.48,440.987 2133.91,440.768 2134.35,440.55 2134.78,440.332 2135.21,440.115 2135.64,439.898 2136.07,439.682 2136.49,439.467 2136.92,439.252 2137.35,439.037 2137.77,438.823 2138.19,438.61 2138.62,438.397 2139.04,438.185 2139.46,437.973 2139.88,437.761 2140.29,437.551 2140.71,437.34 2141.13,437.13 2141.54,436.921 2141.96,436.712 2142.37,436.504 2142.78,436.296 2143.19,436.088 2143.6,435.882 2144.01,435.675 2144.42,435.469 2144.83,435.264 2145.24,435.059 2145.64,434.854 2146.05,434.65 2146.45,434.447 2146.85,434.244 2147.26,434.041 2147.66,433.839 2148.06,433.637 2148.46,433.436 2148.85,433.235 2149.25,433.035 2149.65,432.835 2150.04,432.635 2150.44,432.437 2150.83,432.238 2151.22,432.04 2151.62,431.842 2152.01,431.645 2152.4,431.448 2152.79,431.252 2153.18,431.056 2153.56,430.861 2153.95,430.666 2154.34,430.471 2154.72,430.277 2155.11,430.083 2155.49,429.89 2155.87,429.697 2156.25,429.505 2156.63,429.313 2157.01,429.121 2157.39,428.93 2157.77,428.739 2158.15,428.549 2158.53,428.359 2158.9,428.169 2159.28,427.98 2159.65,427.792 2160.02,427.603 2160.4,427.415 2160.77,427.228 2161.14,427.041 2161.51,426.854 2161.88,426.668 2162.25,426.482 2162.62,426.296 2162.98,426.111 2163.35,425.926 2163.72,425.742 2164.08,425.558 2164.45,425.374 2164.81,425.191 2165.17,425.008 2165.53,424.826 2165.89,424.644 2166.26,424.462 2166.61,424.281 2166.97,424.1 2167.33,423.919 2167.69,423.739 2168.05,423.559 2168.4,423.379 2168.76,423.2 2169.11,423.022 2169.47,422.843 2169.82,422.665 2170.17,422.487 2170.52,422.31 2170.87,422.133 2171.22,421.957 2171.57,421.78 2171.92,421.604 2172.27,421.429 2172.62,421.254 2172.97,421.079 2173.31,420.904 2173.66,420.73 2174,420.556 2174.35,420.383 2174.69,420.21 2175.03,420.037 2175.37,419.864 2175.72,419.692 2176.06,419.521 2176.4,419.349 2176.74,419.178 2177.07,419.007 2177.41,418.837 2177.75,418.667 2178.09,418.497 2178.42,418.327 2178.76,418.158 2179.09,417.989 2179.43,417.821 2179.76,417.653 2180.09,417.485 2180.43,417.317 2180.76,417.15 2181.09,416.983 2181.42,416.817 2181.75,416.65 2182.08,416.484 2182.41,416.319 2182.74,416.153 2183.06,415.988 2183.39,415.824 2183.72,415.659 2184.04,415.495 2184.37,415.331 2184.69,415.168 2185.01,415.005 2185.34,414.842 2185.66,414.679 2185.98,414.517 2186.3,414.355 2186.62,414.193 2186.94,414.032 2187.26,413.871 2187.58,413.71 2187.9,413.549 2188.22,413.389 2188.53,413.229 2188.85,413.07 2189.17,412.91 2189.48,412.751 2189.8,412.592 2190.11,412.434 2190.43,412.276 2190.74,412.118 2191.05,411.96 2191.36,411.803 2191.68,411.646 2191.99,411.489 2192.3,411.332 2192.61,411.176 2192.92,411.02 2193.23,410.865 2193.53,410.709 2193.84,410.554 2194.15,410.399 2194.46,410.245 2194.76,410.09 2195.07,409.936 2195.37,409.782 2195.68,409.629 2195.98,409.476 2196.28,409.323 2196.59,409.17 2196.89,409.018 2197.19,408.865 2197.49,408.713 2197.79,408.562 2198.09,408.41 2198.39,408.259 2198.69,408.108 2198.99,407.958 2199.29,407.807 2199.59,407.657 2199.88,407.507 2200.18,407.358 2200.48,407.208 2200.77,407.059 2201.07,406.91 2201.36,406.762 2201.66,406.614 2201.95,406.465 2202.24,406.318 2202.54,406.17 2202.83,406.023 2203.12,405.876 2203.41,405.729 2203.7,405.582 2203.99,405.436 2204.28,405.29 2204.57,405.144 2204.86,404.998 2205.15,404.853 2205.44,404.708 2205.73,404.563 2206.01,404.418 2206.3,404.273 2206.58,404.129 2206.87,403.985 2207.16,403.842 2207.44,403.698 2207.72,403.555 2208.01,403.412 2208.29,403.269 2208.57,403.126 2208.86,402.984 2209.14,402.842 2209.42,402.7 2209.7,402.558 2209.98,402.417 2210.26,402.276 2210.54,402.135 2210.82,401.994 2211.1,401.853 2211.38,401.713 2211.65,401.573 2211.93,401.433 2212.21,401.294 2212.49,401.154 2212.76,401.015 2213.04,400.876 2213.31,400.737 2213.59,400.599 2213.86,400.46 2214.14,400.322 2214.41,400.184 2214.68,400.047 2214.95,399.909 2215.23,399.772 2215.5,399.635 2215.77,399.498 2216.04,399.362 2216.31,399.225 2216.58,399.089 2216.85,398.953 2217.12,398.817 2217.39,398.682 2217.66,398.546 2217.93,398.411 2218.19,398.276 2218.46,398.142 2218.73,398.007 2218.99,397.873 2219.26,397.739 2219.53,397.605 2219.79,397.471 2220.06,397.338 2220.32,397.204 2220.58,397.071 2220.85,396.938 2221.11,396.806 2221.37,396.673 2221.64,396.541 2221.9,396.409 2222.16,396.277 2222.42,396.145 2222.68,396.014 2222.94,395.882 2223.2,395.751 2223.46,395.62 2223.72,395.49 2223.98,395.359 2224.24,395.229 2224.5,395.099 2224.75,394.969 2225.01,394.839 2225.27,394.709 2225.53,394.58 2225.78,394.451 2226.04,394.322 2226.29,394.193 2226.55,394.064 2226.8,393.936 2227.06,393.808 2227.31,393.68 2227.57,393.552 2227.82,393.424 2228.07,393.297 2228.32,393.169 2228.58,393.042 2228.83,392.915 2229.08,392.788 2229.33,392.662 2229.58,392.535 2229.83,392.409 2230.08,392.283 2230.33,392.157 2230.58,392.032 2230.83,391.906 2231.08,391.781 2231.33,391.656 2231.57,391.531 2231.82,391.406 2232.07,391.281 2232.32,391.157 2232.56,391.033 2232.81,390.908 2233.05,390.785 2233.3,390.661 2233.54,390.537 2233.79,390.414 2234.03,390.291 2234.28,390.168 2234.52,390.045 2234.76,389.922 2235.01,389.799 2235.25,389.677 2235.49,389.555 2235.73,389.433 2235.98,389.311 2236.22,389.189 2236.46,389.068 2236.7,388.946 2236.94,388.825 2237.18,388.704 2237.42,388.583 2237.66,388.463 2237.9,388.342 2238.14,388.222 2238.38,388.102 2238.61,387.982 2238.85,387.862 2239.09,387.742 2239.33,387.623 2239.56,387.503 2239.8,387.384 2240.03,387.265 2240.27,387.146 2240.51,387.027 2240.74,386.909 2240.98,386.79 2241.21,386.672 2241.45,386.554 2241.68,386.436 2241.91,386.318 2242.15,386.201 2242.38,386.083 2242.61,385.966 2242.84,385.849 2243.08,385.732 2243.31,385.615 2243.54,385.498 2243.77,385.382 2244,385.265 2244.23,385.149 2244.46,385.033 2244.69,384.917 2244.92,384.801 2245.15,384.686 2245.38,384.57 2245.61,384.455 2245.84,384.34 2246.07,384.225 2246.29,384.11 2246.52,383.995 2246.75,383.881 2246.97,383.766 2247.2,383.652 2247.43,383.538 2247.65,383.424 2247.88,383.31 2248.1,383.196 2248.33,383.083 2248.55,382.969 2248.78,382.856 2249,382.743 2249.23,382.63 2249.45,382.517 2249.68,382.405 2249.9,382.292 2250.12,382.18 2250.34,382.068 2250.57,381.955 2250.79,381.844 2251.01,381.732 2251.23,381.62 2251.45,381.509 2251.67,381.397 2251.89,381.286 2252.11,381.175 2252.33,381.064 2252.55,380.953 2252.77,380.842 2252.99,380.732 2253.21,380.621 2253.43,380.511 2253.65,380.401 2253.87,380.291 2254.09,380.181 2254.3,380.072 2254.52,379.962 2254.74,379.853 2254.95,379.743 2255.17,379.634 2255.39,379.525 2255.6,379.416 2255.82,379.307 2256.03,379.199 2256.25,379.09 2256.46,378.982 2256.68,378.874 2256.89,378.766 2257.11,378.658 2257.32,378.55 2257.53,378.442 2257.75,378.335 2257.96,378.227 2258.17,378.12 2258.39,378.013 2258.6,377.906 2258.81,377.799 2259.02,377.692 2259.23,377.585 2259.45,377.479 2259.66,377.372 2259.87,377.266 2260.08,377.16 2260.29,377.054 2260.5,376.948 2260.71,376.842 2260.92,376.737 2261.13,376.631 2261.34,376.526 2261.54,376.421 2261.75,376.315 2261.96,376.21 2262.17,376.106 2262.38,376.001 2262.58,375.896 2262.79,375.792 2263,375.687 2263.21,375.583 2263.41,375.479 2263.62,375.375 2263.82,375.271 2264.03,375.167 2264.24,375.064 2264.44,374.96 2264.65,374.857 2264.85,374.753 2265.06,374.65 2265.26,374.547 2265.46,374.444 2265.67,374.342 2265.87,374.239 2266.08,374.136 2266.28,374.034 2266.48,373.932 2266.68,373.829 2266.89,373.727 2267.09,373.625 2267.29,373.524 2267.49,373.422 2267.69,373.32 2267.9,373.219 2268.1,373.117 2268.3,373.016 2268.5,372.915 2268.7,372.814 2268.9,372.713 2269.1,372.612 2269.3,372.512 2269.5,372.411 2269.7,372.311 2269.9,372.21 2270.09,372.11 2270.29,372.01 2270.49,371.91 2270.69,371.81 2270.89,371.71 2271.08,371.611 2271.28,371.511 2271.48,371.412 2271.68,371.312 2271.87,371.213 2272.07,371.114 2272.27,371.015 2272.46,370.916 2272.66,370.817 2272.85,370.719 2273.05,370.62 2273.24,370.522 2273.44,370.424 2273.63,370.325 2273.83,370.227 2274.02,370.129 2274.22,370.031 2274.41,369.934 2274.6,369.836 2274.8,369.738 2274.99,369.641 2275.18,369.544 2275.38,369.446 2275.57,369.349 2275.76,369.252 2275.95,369.155 2276.15,369.059 2276.34,368.962 2276.53,368.865 2276.72,368.769 2276.91,368.672 2277.1,368.576 2277.29,368.48 2277.48,368.384 2277.68,368.288 2277.87,368.192 2278.06,368.096 2278.24,368.001 2278.43,367.905 2278.62,367.81 2278.81,367.714 2279,367.619 2279.19,367.524 2279.38,367.429 2279.57,367.334 2279.76,367.239 2279.94,367.145 2280.13,367.05 2280.32,366.955 2280.51,366.861 2280.69,366.767 2280.88,366.673 2281.07,366.578 2281.25,366.484 2281.44,366.39 2281.62,366.297 2281.81,366.203 2282,366.109 2282.18,366.016 2282.37,365.922 2282.55,365.829 2282.74,365.736 2282.92,365.643 2283.11,365.55 2283.29,365.457 2283.47,365.364 2283.66,365.271 2283.84,365.179 2284.03,365.086 2284.21,364.994 2284.39,364.901 2284.58,364.809 2284.76,364.717 2284.94,364.625 2285.12,364.533 2285.31,364.441 2285.49,364.349 2285.67,364.258 2285.85,364.166 2286.03,364.075 2286.21,363.983 2286.39,363.892 2286.58,363.801 2286.76,363.71 2286.94,363.619 2287.12,363.528 2287.3,363.437 2287.48,363.346 2287.66,363.256 2287.84,363.165 2288.02,363.075 2288.19,362.984 2288.37,362.894 2288.55,362.804 2288.73,362.714 2288.91,362.624 2289.09,362.534 2289.27,362.444 2289.44,362.355 2289.62,362.265 2289.8,362.175 2289.98,362.086 2290.15,361.997 2290.33,361.907 2290.51,361.818 2290.68,361.729 2290.86,361.64 2291.04,361.551 2291.21,361.463 2291.39,361.374 2291.57,361.285 2291.74,361.197 2291.92,361.108 2292.09,361.02 2292.27,360.932 2292.44,360.843 "/>
<polyline clip-path="url(#clip982)" style="stroke:#e26f46; stroke-linecap:round; stroke-linejoin:round; stroke-width:4; stroke-opacity:1; fill:none" points="281.952,1261.67 1088.06,819.917 1208.23,754.059 1278.75,715.416 1328.84,687.965 1367.72,666.658 1399.5,649.242 1426.38,634.513 1449.67,621.752 1470.21,610.493 1488.59,600.421 1505.22,591.309 1520.4,582.989 1534.37,575.336 1547.3,568.249 1559.34,561.651 1570.6,555.479 1581.18,549.681 1591.16,544.214 1600.6,539.043 1609.55,534.137 1618.07,529.47 1626.19,525.02 1633.94,520.768 1641.37,516.697 1648.5,512.792 1655.35,509.04 1661.93,505.43 1668.28,501.951 1674.41,498.594 1680.33,495.351 1686.05,492.214 1691.59,489.176 1696.96,486.232 1702.18,483.377 1707.24,480.603 1712.15,477.908 1716.94,475.287 1721.59,472.735 1726.13,470.25 1730.55,467.828 1734.86,465.466 1739.07,463.16 1743.18,460.909 1747.19,458.709 1751.11,456.559 1754.95,454.456 1758.7,452.399 1762.38,450.384 1765.98,448.412 1769.51,446.479 1772.97,444.584 1776.36,442.726 1779.68,440.903 1782.94,439.115 1786.15,437.359 1789.29,435.635 1792.38,433.942 1795.42,432.278 1798.41,430.642 1801.34,429.034 1804.23,427.453 1807.07,425.897 1809.86,424.366 1812.61,422.859 1815.32,421.375 1817.98,419.915 1820.61,418.476 1823.19,417.058 1825.74,415.661 1828.26,414.285 1830.73,412.927 1833.17,411.589 1835.58,410.269 1837.96,408.967 1840.3,407.683 1842.61,406.416 1844.9,405.165 1847.15,403.93 1849.37,402.711 1851.57,401.508 1853.74,400.319 1855.88,399.145 1858,397.985 1860.09,396.839 1862.16,395.707 1864.2,394.588 1866.22,393.481 1868.21,392.388 1870.19,391.307 1872.14,390.237 1874.07,389.18 1875.97,388.134 1877.86,387.1 1879.73,386.076 1881.58,385.064 1883.41,384.062 1885.22,383.07 1887.01,382.089 1888.78,381.117 1890.53,380.156 1892.27,379.204 1893.99,378.261 1895.7,377.327 1897.38,376.403 1899.05,375.487 1900.71,374.58 1902.35,373.682 1903.97,372.791 1905.58,371.91 1907.18,371.036 1908.76,370.17 1910.32,369.312 1911.87,368.461 1913.41,367.618 1914.94,366.782 1916.45,365.954 1917.95,365.132 1919.43,364.318 1920.91,363.51 1922.37,362.71 1923.82,361.916 1925.26,361.128 1926.68,360.347 1928.1,359.572 1929.5,358.803 1930.89,358.041 1932.27,357.284 1933.64,356.534 1935,355.789 1936.35,355.05 1937.68,354.317 1939.01,353.589 1940.33,352.867 1941.64,352.15 1942.94,351.439 1944.22,350.733 1945.5,350.032 1946.77,349.336 1948.03,348.645 1949.29,347.959 1950.53,347.278 1951.76,346.602 1952.99,345.93 1954.21,345.263 1955.41,344.601 1956.61,343.943 1957.81,343.29 1958.99,342.641 1960.17,341.997 1961.33,341.357 1962.49,340.721 1963.65,340.09 1964.79,339.462 1965.93,338.839 1967.06,338.219 1968.18,337.604 1969.3,336.992 1970.41,336.385 1971.51,335.781 1972.6,335.181 1973.69,334.585 1974.77,333.992 1975.85,333.404 1976.92,332.818 1977.98,332.237 1979.03,331.658 1980.08,331.084 1981.12,330.512 1982.16,329.944 1983.19,329.38 1984.21,328.819 1985.23,328.261 1986.24,327.706 1987.25,327.154 1988.25,326.606 1989.25,326.061 1990.24,325.519 1991.22,324.98 1992.2,324.443 1993.17,323.91 1994.14,323.38 1995.1,322.853 1996.06,322.329 1997.01,321.807 1997.95,321.288 1998.9,320.773 1999.83,320.26 2000.76,319.749 2001.69,319.242 2002.61,318.737 2003.53,318.234 2004.44,317.735 2005.35,317.237 2006.25,316.743 2007.15,316.251 2008.04,315.761 2008.93,315.274 2009.81,314.79 2010.69,314.308 2011.57,313.828 2012.44,313.351 2013.31,312.876 2014.17,312.403 2015.03,311.933 2015.88,311.465 2016.73,311 2017.58,310.536 2018.42,310.075 2019.25,309.616 2020.09,309.159 2020.92,308.705 2021.74,308.252 2022.57,307.802 2023.38,307.354 2024.2,306.908 2025.01,306.464 2025.81,306.022 2026.62,305.582 2027.42,305.144 2028.21,304.708 2029,304.274 2029.79,303.842 2030.58,303.412 2031.36,302.983 2032.14,302.557 2032.91,302.133 2033.68,301.71 2034.45,301.29 2035.21,300.871 2035.97,300.454 2036.73,300.039 2037.49,299.625 2038.24,299.214 2038.98,298.804 2039.73,298.396 2040.47,297.99 2041.21,297.585 2041.94,297.182 2042.68,296.781 2043.41,296.381 2044.13,295.983 2044.85,295.587 2045.57,295.192 2046.29,294.799 2047.01,294.408 2047.72,294.018 2048.43,293.63 2049.13,293.243 2049.83,292.858 2050.53,292.475 2051.23,292.093 2051.93,291.712 2052.62,291.333 2053.31,290.956 2053.99,290.58 2054.68,290.205 2055.36,289.832 2056.03,289.461 2056.71,289.09 2057.38,288.722 2058.05,288.354 2058.72,287.988 2059.39,287.624 2060.05,287.261 2060.71,286.899 2061.37,286.538 2062.02,286.179 2062.67,285.822 2063.33,285.465 2063.97,285.11 2064.62,284.756 2065.26,284.404 2065.9,284.053 2066.54,283.703 2067.18,283.354 2067.81,283.007 2068.44,282.661 2069.07,282.316 2069.7,281.972 2070.32,281.63 2070.95,281.289 2071.57,280.949 2072.18,280.61 2072.8,280.273 2073.41,279.936 2074.03,279.601 2074.64,279.267 2075.24,278.934 2075.85,278.603 2076.45,278.272 2077.05,277.943 2077.65,277.614 2078.25,277.287 2078.84,276.961 2079.44,276.636 2080.03,276.312 2080.62,275.99 2081.2,275.668 2081.79,275.347 2082.37,275.028 2082.95,274.709 2083.53,274.392 2084.11,274.076 2084.68,273.76 2085.26,273.446 2085.83,273.133 2086.4,272.821 2086.97,272.509 2087.53,272.199 2088.1,271.89 2088.66,271.582 2089.22,271.275 2089.78,270.968 2090.34,270.663 2090.89,270.359 2091.44,270.056 2092,269.753 2092.55,269.452 2093.09,269.151 2093.64,268.852 2094.19,268.553 2094.73,268.256 2095.27,267.959 2095.81,267.663 2096.35,267.368 2096.89,267.074 2097.42,266.781 2097.95,266.489 2098.48,266.198 2099.01,265.907 2099.54,265.618 2100.07,265.329 2100.6,265.041 2101.12,264.754 2101.64,264.468 2102.16,264.183 2102.68,263.898 2103.2,263.615 2103.71,263.332 2104.23,263.05 2104.74,262.769 2105.25,262.489 2105.76,262.21 2106.27,261.931 2106.78,261.653 2107.28,261.376 2107.79,261.1 2108.29,260.825 2108.79,260.55 2109.29,260.276 2109.79,260.003 2110.28,259.731 2110.78,259.46 2111.27,259.189 2111.77,258.919 2112.26,258.65 2112.75,258.381 2113.24,258.114 2113.72,257.847 2114.21,257.581 2114.69,257.315 2115.18,257.05 2115.66,256.786 2116.14,256.523 2116.62,256.261 2117.1,255.999 2117.57,255.738 2118.05,255.477 2118.52,255.218 2118.99,254.959 2119.47,254.7 2119.94,254.443 2120.4,254.186 2120.87,253.93 2121.34,253.674 2121.8,253.419 2122.27,253.165 2122.73,252.912 2123.19,252.659 2123.65,252.407 2124.11,252.155 2124.57,251.904 2125.02,251.654 2125.48,251.405 2125.93,251.156 2126.39,250.907 2126.84,250.66 2127.29,250.413 2127.74,250.167 2128.19,249.921 2128.63,249.676 2129.08,249.431 2129.52,249.188 2129.97,248.944 2130.41,248.702 2130.85,248.46 2131.29,248.219 2131.73,247.978 2132.17,247.738 2132.61,247.498 2133.04,247.259 2133.48,247.021 2133.91,246.783 2134.35,246.546 2134.78,246.309 2135.21,246.073 2135.64,245.838 2136.07,245.603 2136.49,245.369 2136.92,245.135 2137.35,244.902 2137.77,244.67 2138.19,244.438 2138.62,244.206 2139.04,243.975 2139.46,243.745 2139.88,243.515 2140.29,243.286 2140.71,243.057 2141.13,242.829 2141.54,242.602 2141.96,242.375 2142.37,242.148 2142.78,241.922 2143.19,241.697 2143.6,241.472 2144.01,241.247 2144.42,241.024 2144.83,240.8 2145.24,240.577 2145.64,240.355 2146.05,240.133 2146.45,239.912 2146.85,239.691 2147.26,239.471 2147.66,239.251 2148.06,239.032 2148.46,238.813 2148.85,238.595 2149.25,238.377 2149.65,238.16 2150.04,237.943 2150.44,237.727 2150.83,237.511 2151.22,237.296 2151.62,237.081 2152.01,236.867 2152.4,236.653 2152.79,236.44 2153.18,236.227 2153.56,236.014 2153.95,235.803 2154.34,235.591 2154.72,235.38 2155.11,235.169 2155.49,234.959 2155.87,234.75 2156.25,234.541 2156.63,234.332 2157.01,234.124 2157.39,233.916 2157.77,233.708 2158.15,233.502 2158.53,233.295 2158.9,233.089 2159.28,232.883 2159.65,232.678 2160.02,232.474 2160.4,232.269 2160.77,232.066 2161.14,231.862 2161.51,231.659 2161.88,231.457 2162.25,231.255 2162.62,231.053 2162.98,230.852 2163.35,230.651 2163.72,230.45 2164.08,230.25 2164.45,230.051 2164.81,229.852 2165.17,229.653 2165.53,229.455 2165.89,229.257 2166.26,229.059 2166.61,228.862 2166.97,228.665 2167.33,228.469 2167.69,228.273 2168.05,228.078 2168.4,227.883 2168.76,227.688 2169.11,227.494 2169.47,227.3 2169.82,227.106 2170.17,226.913 2170.52,226.72 2170.87,226.528 2171.22,226.336 2171.57,226.144 2171.92,225.953 2172.27,225.762 2172.62,225.572 2172.97,225.382 2173.31,225.192 2173.66,225.003 2174,224.814 2174.35,224.625 2174.69,224.437 2175.03,224.249 2175.37,224.062 2175.72,223.875 2176.06,223.688 2176.4,223.502 2176.74,223.316 2177.07,223.13 2177.41,222.945 2177.75,222.76 2178.09,222.575 2178.42,222.391 2178.76,222.207 2179.09,222.024 2179.43,221.841 2179.76,221.658 2180.09,221.475 2180.43,221.293 2180.76,221.111 2181.09,220.93 2181.42,220.749 2181.75,220.568 2182.08,220.388 2182.41,220.208 2182.74,220.028 2183.06,219.849 2183.39,219.67 2183.72,219.491 2184.04,219.313 2184.37,219.135 2184.69,218.957 2185.01,218.78 2185.34,218.602 2185.66,218.426 2185.98,218.249 2186.3,218.073 2186.62,217.898 2186.94,217.722 2187.26,217.547 2187.58,217.372 2187.9,217.198 2188.22,217.024 2188.53,216.85 2188.85,216.676 2189.17,216.503 2189.48,216.33 2189.8,216.158 2190.11,215.985 2190.43,215.813 2190.74,215.642 2191.05,215.47 2191.36,215.299 2191.68,215.129 2191.99,214.958 2192.3,214.788 2192.61,214.618 2192.92,214.449 2193.23,214.279 2193.53,214.111 2193.84,213.942 2194.15,213.774 2194.46,213.606 2194.76,213.438 2195.07,213.27 2195.37,213.103 2195.68,212.936 2195.98,212.77 2196.28,212.603 2196.59,212.437 2196.89,212.272 2197.19,212.106 2197.49,211.941 2197.79,211.776 2198.09,211.612 2198.39,211.448 2198.69,211.284 2198.99,211.12 2199.29,210.956 2199.59,210.793 2199.88,210.63 2200.18,210.468 2200.48,210.305 2200.77,210.143 2201.07,209.982 2201.36,209.82 2201.66,209.659 2201.95,209.498 2202.24,209.337 2202.54,209.177 2202.83,209.016 2203.12,208.857 2203.41,208.697 2203.7,208.538 2203.99,208.379 2204.28,208.22 2204.57,208.061 2204.86,207.903 2205.15,207.745 2205.44,207.587 2205.73,207.429 2206.01,207.272 2206.3,207.115 2206.58,206.958 2206.87,206.802 2207.16,206.646 2207.44,206.49 2207.72,206.334 2208.01,206.179 2208.29,206.023 2208.57,205.868 2208.86,205.714 2209.14,205.559 2209.42,205.405 2209.7,205.251 2209.98,205.097 2210.26,204.944 2210.54,204.79 2210.82,204.637 2211.1,204.485 2211.38,204.332 2211.65,204.18 2211.93,204.028 2212.21,203.876 2212.49,203.725 2212.76,203.573 2213.04,203.422 2213.31,203.271 2213.59,203.121 2213.86,202.971 2214.14,202.82 2214.41,202.671 2214.68,202.521 2214.95,202.372 2215.23,202.222 2215.5,202.073 2215.77,201.925 2216.04,201.776 2216.31,201.628 2216.58,201.48 2216.85,201.332 2217.12,201.185 2217.39,201.037 2217.66,200.89 2217.93,200.743 2218.19,200.597 2218.46,200.45 2218.73,200.304 2218.99,200.158 2219.26,200.012 2219.53,199.867 2219.79,199.721 2220.06,199.576 2220.32,199.431 2220.58,199.287 2220.85,199.142 2221.11,198.998 2221.37,198.854 2221.64,198.71 2221.9,198.567 2222.16,198.423 2222.42,198.28 2222.68,198.137 2222.94,197.994 2223.2,197.852 2223.46,197.71 2223.72,197.568 2223.98,197.426 2224.24,197.284 2224.5,197.142 2224.75,197.001 2225.01,196.86 2225.27,196.719 2225.53,196.579 2225.78,196.438 2226.04,196.298 2226.29,196.158 2226.55,196.018 2226.8,195.879 2227.06,195.739 2227.31,195.6 2227.57,195.461 2227.82,195.322 2228.07,195.184 2228.32,195.045 2228.58,194.907 2228.83,194.769 2229.08,194.631 2229.33,194.494 2229.58,194.356 2229.83,194.219 2230.08,194.082 2230.33,193.945 2230.58,193.809 2230.83,193.672 2231.08,193.536 2231.33,193.4 2231.57,193.264 2231.82,193.129 2232.07,192.993 2232.32,192.858 2232.56,192.723 2232.81,192.588 2233.05,192.453 2233.3,192.319 2233.54,192.184 2233.79,192.05 2234.03,191.916 2234.28,191.783 2234.52,191.649 2234.76,191.516 2235.01,191.383 2235.25,191.25 2235.49,191.117 2235.73,190.984 2235.98,190.852 2236.22,190.719 2236.46,190.587 2236.7,190.455 2236.94,190.324 2237.18,190.192 2237.42,190.061 2237.66,189.93 2237.9,189.799 2238.14,189.668 2238.38,189.537 2238.61,189.407 2238.85,189.276 2239.09,189.146 2239.33,189.016 2239.56,188.887 2239.8,188.757 2240.03,188.628 2240.27,188.498 2240.51,188.369 2240.74,188.24 2240.98,188.112 2241.21,187.983 2241.45,187.855 2241.68,187.727 2241.91,187.599 2242.15,187.471 2242.38,187.343 2242.61,187.216 2242.84,187.088 2243.08,186.961 2243.31,186.834 2243.54,186.707 2243.77,186.581 2244,186.454 2244.23,186.328 2244.46,186.202 2244.69,186.076 2244.92,185.95 2245.15,185.824 2245.38,185.699 2245.61,185.573 2245.84,185.448 2246.07,185.323 2246.29,185.198 2246.52,185.073 2246.75,184.949 2246.97,184.825 2247.2,184.7 2247.43,184.576 2247.65,184.452 2247.88,184.329 2248.1,184.205 2248.33,184.082 2248.55,183.959 2248.78,183.835 2249,183.713 2249.23,183.59 2249.45,183.467 2249.68,183.345 2249.9,183.222 2250.12,183.1 2250.34,182.978 2250.57,182.856 2250.79,182.735 2251.01,182.613 2251.23,182.492 2251.45,182.371 2251.67,182.25 2251.89,182.129 2252.11,182.008 2252.33,181.887 2252.55,181.767 2252.77,181.647 2252.99,181.526 2253.21,181.406 2253.43,181.287 2253.65,181.167 2253.87,181.047 2254.09,180.928 2254.3,180.809 2254.52,180.69 2254.74,180.571 2254.95,180.452 2255.17,180.333 2255.39,180.215 2255.6,180.096 2255.82,179.978 2256.03,179.86 2256.25,179.742 2256.46,179.624 2256.68,179.507 2256.89,179.389 2257.11,179.272 2257.32,179.155 2257.53,179.038 2257.75,178.921 2257.96,178.804 2258.17,178.687 2258.39,178.571 2258.6,178.454 2258.81,178.338 2259.02,178.222 2259.23,178.106 2259.45,177.991 2259.66,177.875 2259.87,177.759 2260.08,177.644 2260.29,177.529 2260.5,177.414 2260.71,177.299 2260.92,177.184 2261.13,177.069 2261.34,176.955 2261.54,176.84 2261.75,176.726 2261.96,176.612 2262.17,176.498 2262.38,176.384 2262.58,176.27 2262.79,176.157 2263,176.043 2263.21,175.93 2263.41,175.817 2263.62,175.704 2263.82,175.591 2264.03,175.478 2264.24,175.365 2264.44,175.253 2264.65,175.14 2264.85,175.028 2265.06,174.916 2265.26,174.804 2265.46,174.692 2265.67,174.581 2265.87,174.469 2266.08,174.357 2266.28,174.246 2266.48,174.135 2266.68,174.024 2266.89,173.913 2267.09,173.802 2267.29,173.691 2267.49,173.581 2267.69,173.47 2267.9,173.36 2268.1,173.25 2268.3,173.14 2268.5,173.03 2268.7,172.92 2268.9,172.81 2269.1,172.701 2269.3,172.591 2269.5,172.482 2269.7,172.373 2269.9,172.264 2270.09,172.155 2270.29,172.046 2270.49,171.937 2270.69,171.829 2270.89,171.72 2271.08,171.612 2271.28,171.504 2271.48,171.396 2271.68,171.288 2271.87,171.18 2272.07,171.072 2272.27,170.965 2272.46,170.857 2272.66,170.75 2272.85,170.643 2273.05,170.536 2273.24,170.429 2273.44,170.322 2273.63,170.215 2273.83,170.108 2274.02,170.002 2274.22,169.896 2274.41,169.789 2274.6,169.683 2274.8,169.577 2274.99,169.471 2275.18,169.365 2275.38,169.26 2275.57,169.154 2275.76,169.049 2275.95,168.943 2276.15,168.838 2276.34,168.733 2276.53,168.628 2276.72,168.523 2276.91,168.418 2277.1,168.314 2277.29,168.209 2277.48,168.105 2277.68,168.001 2277.87,167.896 2278.06,167.792 2278.24,167.688 2278.43,167.584 2278.62,167.481 2278.81,167.377 2279,167.274 2279.19,167.17 2279.38,167.067 2279.57,166.964 2279.76,166.861 2279.94,166.758 2280.13,166.655 2280.32,166.552 2280.51,166.449 2280.69,166.347 2280.88,166.245 2281.07,166.142 2281.25,166.04 2281.44,165.938 2281.62,165.836 2281.81,165.734 2282,165.632 2282.18,165.531 2282.37,165.429 2282.55,165.328 2282.74,165.227 2282.92,165.125 2283.11,165.024 2283.29,164.923 2283.47,164.822 2283.66,164.722 2283.84,164.621 2284.03,164.52 2284.21,164.42 2284.39,164.319 2284.58,164.219 2284.76,164.119 2284.94,164.019 2285.12,163.919 2285.31,163.819 2285.49,163.719 2285.67,163.62 2285.85,163.52 2286.03,163.421 2286.21,163.322 2286.39,163.222 2286.58,163.123 2286.76,163.024 2286.94,162.925 2287.12,162.826 2287.3,162.728 2287.48,162.629 2287.66,162.531 2287.84,162.432 2288.02,162.334 2288.19,162.236 2288.37,162.138 2288.55,162.04 2288.73,161.942 2288.91,161.844 2289.09,161.746 2289.27,161.649 2289.44,161.551 2289.62,161.454 2289.8,161.356 2289.98,161.259 2290.15,161.162 2290.33,161.065 2290.51,160.968 2290.68,160.871 2290.86,160.775 2291.04,160.678 2291.21,160.582 2291.39,160.485 2291.57,160.389 2291.74,160.293 2291.92,160.196 2292.09,160.1 2292.27,160.005 2292.44,159.909 "/>
<path clip-path="url(#clip980)" d="M1949.02 1367.98 L2281.72 1367.98 L2281.72 1212.46 L1949.02 1212.46  Z" fill="#ffffff" fill-rule="evenodd" fill-opacity="1"/>
<polyline clip-path="url(#clip980)" style="stroke:#000000; stroke-linecap:round; stroke-linejoin:round; stroke-width:4; stroke-opacity:1; fill:none" points="1949.02,1367.98 2281.72,1367.98 2281.72,1212.46 1949.02,1212.46 1949.02,1367.98 "/>
<polyline clip-path="url(#clip980)" style="stroke:#009af9; stroke-linecap:round; stroke-linejoin:round; stroke-width:4; stroke-opacity:1; fill:none" points="1972.7,1264.3 2114.78,1264.3 "/>
<path clip-path="url(#clip980)" d="M2166.33 1249.68 L2166.33 1254.62 Q2163.97 1252.42 2161.28 1251.33 Q2158.62 1250.24 2155.61 1250.24 Q2149.68 1250.24 2146.54 1253.87 Q2143.39 1257.49 2143.39 1264.34 Q2143.39 1271.17 2146.54 1274.8 Q2149.68 1278.41 2155.61 1278.41 Q2158.62 1278.41 2161.28 1277.32 Q2163.97 1276.24 2166.33 1274.04 L2166.33 1278.92 Q2163.87 1280.59 2161.12 1281.42 Q2158.39 1282.25 2155.33 1282.25 Q2147.48 1282.25 2142.97 1277.46 Q2138.46 1272.65 2138.46 1264.34 Q2138.46 1256 2142.97 1251.21 Q2147.48 1246.4 2155.33 1246.4 Q2158.43 1246.4 2161.17 1247.23 Q2163.92 1248.04 2166.33 1249.68 Z" fill="#000000" fill-rule="nonzero" fill-opacity="1" /><path clip-path="url(#clip980)" d="M2199.43 1249.68 L2199.43 1254.62 Q2197.07 1252.42 2194.38 1251.33 Q2191.72 1250.24 2188.71 1250.24 Q2182.79 1250.24 2179.64 1253.87 Q2176.49 1257.49 2176.49 1264.34 Q2176.49 1271.17 2179.64 1274.8 Q2182.79 1278.41 2188.71 1278.41 Q2191.72 1278.41 2194.38 1277.32 Q2197.07 1276.24 2199.43 1274.04 L2199.43 1278.92 Q2196.98 1280.59 2194.22 1281.42 Q2191.49 1282.25 2188.43 1282.25 Q2180.59 1282.25 2176.07 1277.46 Q2171.56 1272.65 2171.56 1264.34 Q2171.56 1256 2176.07 1251.21 Q2180.59 1246.4 2188.43 1246.4 Q2191.54 1246.4 2194.27 1247.23 Q2197.02 1248.04 2199.43 1249.68 Z" fill="#000000" fill-rule="nonzero" fill-opacity="1" /><path clip-path="url(#clip980)" d="M2211.33 1250.87 L2211.33 1263.85 L2217.21 1263.85 Q2220.47 1263.85 2222.25 1262.16 Q2224.04 1260.47 2224.04 1257.35 Q2224.04 1254.24 2222.25 1252.55 Q2220.47 1250.87 2217.21 1250.87 L2211.33 1250.87 M2206.65 1247.02 L2217.21 1247.02 Q2223.02 1247.02 2225.98 1249.66 Q2228.97 1252.28 2228.97 1257.35 Q2228.97 1262.46 2225.98 1265.08 Q2223.02 1267.69 2217.21 1267.69 L2211.33 1267.69 L2211.33 1281.58 L2206.65 1281.58 L2206.65 1247.02 Z" fill="#000000" fill-rule="nonzero" fill-opacity="1" /><path clip-path="url(#clip980)" d="M2255.96 1248.16 L2255.96 1252.72 Q2253.29 1251.44 2250.93 1250.82 Q2248.57 1250.19 2246.37 1250.19 Q2242.55 1250.19 2240.47 1251.68 Q2238.41 1253.16 2238.41 1255.89 Q2238.41 1258.18 2239.78 1259.36 Q2241.16 1260.52 2245.01 1261.24 L2247.83 1261.81 Q2253.06 1262.81 2255.54 1265.33 Q2258.04 1267.83 2258.04 1272.05 Q2258.04 1277.07 2254.66 1279.66 Q2251.3 1282.25 2244.8 1282.25 Q2242.35 1282.25 2239.57 1281.7 Q2236.81 1281.14 2233.85 1280.05 L2233.85 1275.24 Q2236.7 1276.84 2239.43 1277.65 Q2242.16 1278.46 2244.8 1278.46 Q2248.8 1278.46 2250.98 1276.88 Q2253.16 1275.31 2253.16 1272.39 Q2253.16 1269.85 2251.58 1268.41 Q2250.03 1266.98 2246.47 1266.26 L2243.62 1265.7 Q2238.39 1264.66 2236.05 1262.44 Q2233.71 1260.22 2233.71 1256.26 Q2233.71 1251.68 2236.93 1249.04 Q2240.17 1246.4 2245.84 1246.4 Q2248.27 1246.4 2250.79 1246.84 Q2253.32 1247.28 2255.96 1248.16 Z" fill="#000000" fill-rule="nonzero" fill-opacity="1" /><polyline clip-path="url(#clip980)" style="stroke:#e26f46; stroke-linecap:round; stroke-linejoin:round; stroke-width:4; stroke-opacity:1; fill:none" points="1972.7,1316.14 2114.78,1316.14 "/>
<path clip-path="url(#clip980)" d="M2138.46 1298.86 L2167.69 1298.86 L2167.69 1302.8 L2155.42 1302.8 L2155.42 1333.42 L2150.73 1333.42 L2150.73 1302.8 L2138.46 1302.8 L2138.46 1298.86 Z" fill="#000000" fill-rule="nonzero" fill-opacity="1" /><path clip-path="url(#clip980)" d="M2172.21 1298.86 L2178.5 1298.86 L2193.83 1327.77 L2193.83 1298.86 L2198.36 1298.86 L2198.36 1333.42 L2192.07 1333.42 L2176.74 1304.51 L2176.74 1333.42 L2172.21 1333.42 L2172.21 1298.86 Z" fill="#000000" fill-rule="nonzero" fill-opacity="1" /><path clip-path="url(#clip980)" d="M2221.7 1302.03 Q2216.6 1302.03 2213.6 1305.83 Q2210.61 1309.63 2210.61 1316.18 Q2210.61 1322.7 2213.6 1326.5 Q2216.6 1330.3 2221.7 1330.3 Q2226.79 1330.3 2229.75 1326.5 Q2232.74 1322.7 2232.74 1316.18 Q2232.74 1309.63 2229.75 1305.83 Q2226.79 1302.03 2221.7 1302.03 M2221.7 1298.24 Q2228.97 1298.24 2233.32 1303.12 Q2237.67 1307.98 2237.67 1316.18 Q2237.67 1324.35 2233.32 1329.23 Q2228.97 1334.09 2221.7 1334.09 Q2214.41 1334.09 2210.03 1329.23 Q2205.68 1324.37 2205.68 1316.18 Q2205.68 1307.98 2210.03 1303.12 Q2214.41 1298.24 2221.7 1298.24 Z" fill="#000000" fill-rule="nonzero" fill-opacity="1" /></svg>
