<?xml version="1.0" encoding="utf-8"?>
<svg xmlns="http://www.w3.org/2000/svg" xmlns:xlink="http://www.w3.org/1999/xlink" width="600" height="400" viewBox="0 0 2400 1600">
<defs>
  <clipPath id="clip410">
    <rect x="0" y="0" width="2400" height="1600"/>
  </clipPath>
</defs>
<path clip-path="url(#clip410)" d="M0 1600 L2400 1600 L2400 0 L0 0  Z" fill="#ffffff" fill-rule="evenodd" fill-opacity="1"/>
<defs>
  <clipPath id="clip411">
    <rect x="480" y="0" width="1681" height="1600"/>
  </clipPath>
</defs>
<path clip-path="url(#clip410)" d="M219.033 1423.18 L2352.76 1423.18 L2352.76 123.472 L219.033 123.472  Z" fill="#ffffff" fill-rule="evenodd" fill-opacity="1"/>
<defs>
  <clipPath id="clip412">
    <rect x="219" y="123" width="2135" height="1301"/>
  </clipPath>
</defs>
<polyline clip-path="url(#clip412)" style="stroke:#000000; stroke-linecap:round; stroke-linejoin:round; stroke-width:2; stroke-opacity:0.1; fill:none" points="279.421,1423.18 279.421,123.472 "/>
<polyline clip-path="url(#clip412)" style="stroke:#000000; stroke-linecap:round; stroke-linejoin:round; stroke-width:2; stroke-opacity:0.1; fill:none" points="588.86,1423.18 588.86,123.472 "/>
<polyline clip-path="url(#clip412)" style="stroke:#000000; stroke-linecap:round; stroke-linejoin:round; stroke-width:2; stroke-opacity:0.1; fill:none" points="898.299,1423.18 898.299,123.472 "/>
<polyline clip-path="url(#clip412)" style="stroke:#000000; stroke-linecap:round; stroke-linejoin:round; stroke-width:2; stroke-opacity:0.1; fill:none" points="1207.74,1423.18 1207.74,123.472 "/>
<polyline clip-path="url(#clip412)" style="stroke:#000000; stroke-linecap:round; stroke-linejoin:round; stroke-width:2; stroke-opacity:0.1; fill:none" points="1517.18,1423.18 1517.18,123.472 "/>
<polyline clip-path="url(#clip412)" style="stroke:#000000; stroke-linecap:round; stroke-linejoin:round; stroke-width:2; stroke-opacity:0.1; fill:none" points="1826.62,1423.18 1826.62,123.472 "/>
<polyline clip-path="url(#clip412)" style="stroke:#000000; stroke-linecap:round; stroke-linejoin:round; stroke-width:2; stroke-opacity:0.1; fill:none" points="2136.05,1423.18 2136.05,123.472 "/>
<polyline clip-path="url(#clip412)" style="stroke:#000000; stroke-linecap:round; stroke-linejoin:round; stroke-width:2; stroke-opacity:0.1; fill:none" points="219.033,1128.26 2352.76,1128.26 "/>
<polyline clip-path="url(#clip412)" style="stroke:#000000; stroke-linecap:round; stroke-linejoin:round; stroke-width:2; stroke-opacity:0.1; fill:none" points="219.033,805.593 2352.76,805.593 "/>
<polyline clip-path="url(#clip412)" style="stroke:#000000; stroke-linecap:round; stroke-linejoin:round; stroke-width:2; stroke-opacity:0.1; fill:none" points="219.033,482.925 2352.76,482.925 "/>
<polyline clip-path="url(#clip412)" style="stroke:#000000; stroke-linecap:round; stroke-linejoin:round; stroke-width:2; stroke-opacity:0.1; fill:none" points="219.033,160.256 2352.76,160.256 "/>
<polyline clip-path="url(#clip410)" style="stroke:#000000; stroke-linecap:round; stroke-linejoin:round; stroke-width:4; stroke-opacity:1; fill:none" points="219.033,1423.18 2352.76,1423.18 "/>
<polyline clip-path="url(#clip410)" style="stroke:#000000; stroke-linecap:round; stroke-linejoin:round; stroke-width:4; stroke-opacity:1; fill:none" points="279.421,1423.18 279.421,1404.28 "/>
<polyline clip-path="url(#clip410)" style="stroke:#000000; stroke-linecap:round; stroke-linejoin:round; stroke-width:4; stroke-opacity:1; fill:none" points="588.86,1423.18 588.86,1404.28 "/>
<polyline clip-path="url(#clip410)" style="stroke:#000000; stroke-linecap:round; stroke-linejoin:round; stroke-width:4; stroke-opacity:1; fill:none" points="898.299,1423.18 898.299,1404.28 "/>
<polyline clip-path="url(#clip410)" style="stroke:#000000; stroke-linecap:round; stroke-linejoin:round; stroke-width:4; stroke-opacity:1; fill:none" points="1207.74,1423.18 1207.74,1404.28 "/>
<polyline clip-path="url(#clip410)" style="stroke:#000000; stroke-linecap:round; stroke-linejoin:round; stroke-width:4; stroke-opacity:1; fill:none" points="1517.18,1423.18 1517.18,1404.28 "/>
<polyline clip-path="url(#clip410)" style="stroke:#000000; stroke-linecap:round; stroke-linejoin:round; stroke-width:4; stroke-opacity:1; fill:none" points="1826.62,1423.18 1826.62,1404.28 "/>
<polyline clip-path="url(#clip410)" style="stroke:#000000; stroke-linecap:round; stroke-linejoin:round; stroke-width:4; stroke-opacity:1; fill:none" points="2136.05,1423.18 2136.05,1404.28 "/>
<path clip-path="url(#clip410)" d="M256.806 1454.1 Q253.195 1454.1 251.366 1457.66 Q249.56 1461.2 249.56 1468.33 Q249.56 1475.44 251.366 1479.01 Q253.195 1482.55 256.806 1482.55 Q260.44 1482.55 262.245 1479.01 Q264.074 1475.44 264.074 1468.33 Q264.074 1461.2 262.245 1457.66 Q260.44 1454.1 256.806 1454.1 M256.806 1450.39 Q262.616 1450.39 265.671 1455 Q268.75 1459.58 268.75 1468.33 Q268.75 1477.06 265.671 1481.67 Q262.616 1486.25 256.806 1486.25 Q250.996 1486.25 247.917 1481.67 Q244.861 1477.06 244.861 1468.33 Q244.861 1459.58 247.917 1455 Q250.996 1450.39 256.806 1450.39 Z" fill="#000000" fill-rule="nonzero" fill-opacity="1" /><path clip-path="url(#clip410)" d="M276.968 1479.7 L281.852 1479.7 L281.852 1485.58 L276.968 1485.58 L276.968 1479.7 Z" fill="#000000" fill-rule="nonzero" fill-opacity="1" /><path clip-path="url(#clip410)" d="M302.037 1454.1 Q298.426 1454.1 296.597 1457.66 Q294.792 1461.2 294.792 1468.33 Q294.792 1475.44 296.597 1479.01 Q298.426 1482.55 302.037 1482.55 Q305.671 1482.55 307.477 1479.01 Q309.305 1475.44 309.305 1468.33 Q309.305 1461.2 307.477 1457.66 Q305.671 1454.1 302.037 1454.1 M302.037 1450.39 Q307.847 1450.39 310.903 1455 Q313.981 1459.58 313.981 1468.33 Q313.981 1477.06 310.903 1481.67 Q307.847 1486.25 302.037 1486.25 Q296.227 1486.25 293.148 1481.67 Q290.093 1477.06 290.093 1468.33 Q290.093 1459.58 293.148 1455 Q296.227 1450.39 302.037 1450.39 Z" fill="#000000" fill-rule="nonzero" fill-opacity="1" /><path clip-path="url(#clip410)" d="M567.043 1454.1 Q563.432 1454.1 561.603 1457.66 Q559.798 1461.2 559.798 1468.33 Q559.798 1475.44 561.603 1479.01 Q563.432 1482.55 567.043 1482.55 Q570.677 1482.55 572.483 1479.01 Q574.312 1475.44 574.312 1468.33 Q574.312 1461.2 572.483 1457.66 Q570.677 1454.1 567.043 1454.1 M567.043 1450.39 Q572.853 1450.39 575.909 1455 Q578.988 1459.58 578.988 1468.33 Q578.988 1477.06 575.909 1481.67 Q572.853 1486.25 567.043 1486.25 Q561.233 1486.25 558.154 1481.67 Q555.099 1477.06 555.099 1468.33 Q555.099 1459.58 558.154 1455 Q561.233 1450.39 567.043 1450.39 Z" fill="#000000" fill-rule="nonzero" fill-opacity="1" /><path clip-path="url(#clip410)" d="M587.205 1479.7 L592.089 1479.7 L592.089 1485.58 L587.205 1485.58 L587.205 1479.7 Z" fill="#000000" fill-rule="nonzero" fill-opacity="1" /><path clip-path="url(#clip410)" d="M606.302 1481.64 L622.622 1481.64 L622.622 1485.58 L600.677 1485.58 L600.677 1481.64 Q603.339 1478.89 607.923 1474.26 Q612.529 1469.61 613.71 1468.27 Q615.955 1465.74 616.835 1464.01 Q617.737 1462.25 617.737 1460.56 Q617.737 1457.8 615.793 1456.07 Q613.872 1454.33 610.77 1454.33 Q608.571 1454.33 606.117 1455.09 Q603.686 1455.86 600.909 1457.41 L600.909 1452.69 Q603.733 1451.55 606.186 1450.97 Q608.64 1450.39 610.677 1450.39 Q616.048 1450.39 619.242 1453.08 Q622.436 1455.77 622.436 1460.26 Q622.436 1462.39 621.626 1464.31 Q620.839 1466.2 618.733 1468.8 Q618.154 1469.47 615.052 1472.69 Q611.95 1475.88 606.302 1481.64 Z" fill="#000000" fill-rule="nonzero" fill-opacity="1" /><path clip-path="url(#clip410)" d="M875.44 1454.1 Q871.829 1454.1 870.001 1457.66 Q868.195 1461.2 868.195 1468.33 Q868.195 1475.44 870.001 1479.01 Q871.829 1482.55 875.44 1482.55 Q879.075 1482.55 880.88 1479.01 Q882.709 1475.44 882.709 1468.33 Q882.709 1461.2 880.88 1457.66 Q879.075 1454.1 875.44 1454.1 M875.44 1450.39 Q881.251 1450.39 884.306 1455 Q887.385 1459.58 887.385 1468.33 Q887.385 1477.06 884.306 1481.67 Q881.251 1486.25 875.44 1486.25 Q869.63 1486.25 866.552 1481.67 Q863.496 1477.06 863.496 1468.33 Q863.496 1459.58 866.552 1455 Q869.63 1450.39 875.44 1450.39 Z" fill="#000000" fill-rule="nonzero" fill-opacity="1" /><path clip-path="url(#clip410)" d="M895.602 1479.7 L900.487 1479.7 L900.487 1485.58 L895.602 1485.58 L895.602 1479.7 Z" fill="#000000" fill-rule="nonzero" fill-opacity="1" /><path clip-path="url(#clip410)" d="M923.519 1455.09 L911.713 1473.54 L923.519 1473.54 L923.519 1455.09 M922.292 1451.02 L928.172 1451.02 L928.172 1473.54 L933.102 1473.54 L933.102 1477.43 L928.172 1477.43 L928.172 1485.58 L923.519 1485.58 L923.519 1477.43 L907.917 1477.43 L907.917 1472.92 L922.292 1451.02 Z" fill="#000000" fill-rule="nonzero" fill-opacity="1" /><path clip-path="url(#clip410)" d="M1185.04 1454.1 Q1181.43 1454.1 1179.6 1457.66 Q1177.8 1461.2 1177.8 1468.33 Q1177.8 1475.44 1179.6 1479.01 Q1181.43 1482.55 1185.04 1482.55 Q1188.68 1482.55 1190.48 1479.01 Q1192.31 1475.44 1192.31 1468.33 Q1192.31 1461.2 1190.48 1457.66 Q1188.68 1454.1 1185.04 1454.1 M1185.04 1450.39 Q1190.85 1450.39 1193.91 1455 Q1196.99 1459.58 1196.99 1468.33 Q1196.99 1477.06 1193.91 1481.67 Q1190.85 1486.25 1185.04 1486.25 Q1179.23 1486.25 1176.15 1481.67 Q1173.1 1477.06 1173.1 1468.33 Q1173.1 1459.58 1176.15 1455 Q1179.23 1450.39 1185.04 1450.39 Z" fill="#000000" fill-rule="nonzero" fill-opacity="1" /><path clip-path="url(#clip410)" d="M1205.2 1479.7 L1210.09 1479.7 L1210.09 1485.58 L1205.2 1485.58 L1205.2 1479.7 Z" fill="#000000" fill-rule="nonzero" fill-opacity="1" /><path clip-path="url(#clip410)" d="M1230.85 1466.44 Q1227.7 1466.44 1225.85 1468.59 Q1224.02 1470.74 1224.02 1474.49 Q1224.02 1478.22 1225.85 1480.39 Q1227.7 1482.55 1230.85 1482.55 Q1234 1482.55 1235.83 1480.39 Q1237.68 1478.22 1237.68 1474.49 Q1237.68 1470.74 1235.83 1468.59 Q1234 1466.44 1230.85 1466.44 M1240.13 1451.78 L1240.13 1456.04 Q1238.37 1455.21 1236.57 1454.77 Q1234.79 1454.33 1233.03 1454.33 Q1228.4 1454.33 1225.94 1457.45 Q1223.51 1460.58 1223.17 1466.9 Q1224.53 1464.89 1226.59 1463.82 Q1228.65 1462.73 1231.13 1462.73 Q1236.34 1462.73 1239.35 1465.9 Q1242.38 1469.05 1242.38 1474.49 Q1242.38 1479.82 1239.23 1483.03 Q1236.08 1486.25 1230.85 1486.25 Q1224.86 1486.25 1221.68 1481.67 Q1218.51 1477.06 1218.51 1468.33 Q1218.51 1460.14 1222.4 1455.28 Q1226.29 1450.39 1232.84 1450.39 Q1234.6 1450.39 1236.38 1450.74 Q1238.19 1451.09 1240.13 1451.78 Z" fill="#000000" fill-rule="nonzero" fill-opacity="1" /><path clip-path="url(#clip410)" d="M1494.61 1454.1 Q1491 1454.1 1489.17 1457.66 Q1487.36 1461.2 1487.36 1468.33 Q1487.36 1475.44 1489.17 1479.01 Q1491 1482.55 1494.61 1482.55 Q1498.24 1482.55 1500.05 1479.01 Q1501.88 1475.44 1501.88 1468.33 Q1501.88 1461.2 1500.05 1457.66 Q1498.24 1454.1 1494.61 1454.1 M1494.61 1450.39 Q1500.42 1450.39 1503.47 1455 Q1506.55 1459.58 1506.55 1468.33 Q1506.55 1477.06 1503.47 1481.67 Q1500.42 1486.25 1494.61 1486.25 Q1488.8 1486.25 1485.72 1481.67 Q1482.66 1477.06 1482.66 1468.33 Q1482.66 1459.58 1485.72 1455 Q1488.8 1450.39 1494.61 1450.39 Z" fill="#000000" fill-rule="nonzero" fill-opacity="1" /><path clip-path="url(#clip410)" d="M1514.77 1479.7 L1519.65 1479.7 L1519.65 1485.58 L1514.77 1485.58 L1514.77 1479.7 Z" fill="#000000" fill-rule="nonzero" fill-opacity="1" /><path clip-path="url(#clip410)" d="M1539.84 1469.17 Q1536.51 1469.17 1534.58 1470.95 Q1532.69 1472.73 1532.69 1475.86 Q1532.69 1478.98 1534.58 1480.77 Q1536.51 1482.55 1539.84 1482.55 Q1543.17 1482.55 1545.09 1480.77 Q1547.01 1478.96 1547.01 1475.86 Q1547.01 1472.73 1545.09 1470.95 Q1543.2 1469.17 1539.84 1469.17 M1535.16 1467.18 Q1532.15 1466.44 1530.46 1464.38 Q1528.8 1462.32 1528.8 1459.35 Q1528.8 1455.21 1531.74 1452.8 Q1534.7 1450.39 1539.84 1450.39 Q1545 1450.39 1547.94 1452.8 Q1550.88 1455.21 1550.88 1459.35 Q1550.88 1462.32 1549.19 1464.38 Q1547.52 1466.44 1544.54 1467.18 Q1547.92 1467.96 1549.79 1470.26 Q1551.69 1472.55 1551.69 1475.86 Q1551.69 1480.88 1548.61 1483.57 Q1545.56 1486.25 1539.84 1486.25 Q1534.12 1486.25 1531.04 1483.57 Q1527.99 1480.88 1527.99 1475.86 Q1527.99 1472.55 1529.89 1470.26 Q1531.78 1467.96 1535.16 1467.18 M1533.45 1459.79 Q1533.45 1462.48 1535.12 1463.98 Q1536.81 1465.49 1539.84 1465.49 Q1542.85 1465.49 1544.54 1463.98 Q1546.25 1462.48 1546.25 1459.79 Q1546.25 1457.11 1544.54 1455.6 Q1542.85 1454.1 1539.84 1454.1 Q1536.81 1454.1 1535.12 1455.6 Q1533.45 1457.11 1533.45 1459.79 Z" fill="#000000" fill-rule="nonzero" fill-opacity="1" /><path clip-path="url(#clip410)" d="M1793.77 1481.64 L1801.41 1481.64 L1801.41 1455.28 L1793.1 1456.95 L1793.1 1452.69 L1801.36 1451.02 L1806.04 1451.02 L1806.04 1481.64 L1813.68 1481.64 L1813.68 1485.58 L1793.77 1485.58 L1793.77 1481.64 Z" fill="#000000" fill-rule="nonzero" fill-opacity="1" /><path clip-path="url(#clip410)" d="M1823.12 1479.7 L1828 1479.7 L1828 1485.58 L1823.12 1485.58 L1823.12 1479.7 Z" fill="#000000" fill-rule="nonzero" fill-opacity="1" /><path clip-path="url(#clip410)" d="M1848.19 1454.1 Q1844.58 1454.1 1842.75 1457.66 Q1840.94 1461.2 1840.94 1468.33 Q1840.94 1475.44 1842.75 1479.01 Q1844.58 1482.55 1848.19 1482.55 Q1851.82 1482.55 1853.63 1479.01 Q1855.46 1475.44 1855.46 1468.33 Q1855.46 1461.2 1853.63 1457.66 Q1851.82 1454.1 1848.19 1454.1 M1848.19 1450.39 Q1854 1450.39 1857.06 1455 Q1860.13 1459.58 1860.13 1468.33 Q1860.13 1477.06 1857.06 1481.67 Q1854 1486.25 1848.19 1486.25 Q1842.38 1486.25 1839.3 1481.67 Q1836.25 1477.06 1836.25 1468.33 Q1836.25 1459.58 1839.3 1455 Q1842.38 1450.39 1848.19 1450.39 Z" fill="#000000" fill-rule="nonzero" fill-opacity="1" /><path clip-path="url(#clip410)" d="M2104.01 1481.64 L2111.64 1481.64 L2111.64 1455.28 L2103.33 1456.95 L2103.33 1452.69 L2111.6 1451.02 L2116.27 1451.02 L2116.27 1481.64 L2123.91 1481.64 L2123.91 1485.58 L2104.01 1485.58 L2104.01 1481.64 Z" fill="#000000" fill-rule="nonzero" fill-opacity="1" /><path clip-path="url(#clip410)" d="M2133.36 1479.7 L2138.24 1479.7 L2138.24 1485.58 L2133.36 1485.58 L2133.36 1479.7 Z" fill="#000000" fill-rule="nonzero" fill-opacity="1" /><path clip-path="url(#clip410)" d="M2152.45 1481.64 L2168.77 1481.64 L2168.77 1485.58 L2146.83 1485.58 L2146.83 1481.64 Q2149.49 1478.89 2154.08 1474.26 Q2158.68 1469.61 2159.86 1468.27 Q2162.11 1465.74 2162.99 1464.01 Q2163.89 1462.25 2163.89 1460.56 Q2163.89 1457.8 2161.95 1456.07 Q2160.02 1454.33 2156.92 1454.33 Q2154.72 1454.33 2152.27 1455.09 Q2149.84 1455.86 2147.06 1457.41 L2147.06 1452.69 Q2149.89 1451.55 2152.34 1450.97 Q2154.79 1450.39 2156.83 1450.39 Q2162.2 1450.39 2165.39 1453.08 Q2168.59 1455.77 2168.59 1460.26 Q2168.59 1462.39 2167.78 1464.31 Q2166.99 1466.2 2164.89 1468.8 Q2164.31 1469.47 2161.2 1472.69 Q2158.1 1475.88 2152.45 1481.64 Z" fill="#000000" fill-rule="nonzero" fill-opacity="1" /><path clip-path="url(#clip410)" d="M865.233 1545.76 Q867.301 1546.46 869.243 1548.76 Q871.216 1551.05 873.19 1555.06 L879.715 1568.04 L872.808 1568.04 L866.729 1555.85 Q864.373 1551.08 862.145 1549.52 Q859.949 1547.96 856.13 1547.96 L849.127 1547.96 L849.127 1568.04 L842.698 1568.04 L842.698 1520.52 L857.212 1520.52 Q865.36 1520.52 869.37 1523.93 Q873.381 1527.34 873.381 1534.21 Q873.381 1538.7 871.28 1541.66 Q869.211 1544.62 865.233 1545.76 M849.127 1525.81 L849.127 1542.68 L857.212 1542.68 Q861.859 1542.68 864.214 1540.54 Q866.601 1538.38 866.601 1534.21 Q866.601 1530.04 864.214 1527.94 Q861.859 1525.81 857.212 1525.81 L849.127 1525.81 Z" fill="#000000" fill-rule="nonzero" fill-opacity="1" /><path clip-path="url(#clip410)" d="M915.299 1548.76 L915.299 1551.62 L888.372 1551.62 Q888.754 1557.67 892 1560.85 Q895.279 1564 901.103 1564 Q904.477 1564 907.628 1563.17 Q910.811 1562.35 913.93 1560.69 L913.93 1566.23 Q910.779 1567.57 907.469 1568.27 Q904.159 1568.97 900.753 1568.97 Q892.223 1568.97 887.226 1564 Q882.261 1559.04 882.261 1550.57 Q882.261 1541.82 886.972 1536.69 Q891.714 1531.54 899.735 1531.54 Q906.928 1531.54 911.098 1536.18 Q915.299 1540.8 915.299 1548.76 M909.442 1547.04 Q909.379 1542.23 906.737 1539.37 Q904.127 1536.5 899.798 1536.5 Q894.897 1536.5 891.937 1539.27 Q889.009 1542.04 888.563 1547.07 L909.442 1547.04 Z" fill="#000000" fill-rule="nonzero" fill-opacity="1" /><path clip-path="url(#clip410)" d="M924.911 1518.52 L930.768 1518.52 L930.768 1568.04 L924.911 1568.04 L924.911 1518.52 Z" fill="#000000" fill-rule="nonzero" fill-opacity="1" /><path clip-path="url(#clip410)" d="M959.222 1550.12 Q952.125 1550.12 949.387 1551.75 Q946.65 1553.37 946.65 1557.29 Q946.65 1560.4 948.687 1562.25 Q950.756 1564.07 954.289 1564.07 Q959.159 1564.07 962.087 1560.63 Q965.047 1557.16 965.047 1551.43 L965.047 1550.12 L959.222 1550.12 M970.903 1547.71 L970.903 1568.04 L965.047 1568.04 L965.047 1562.63 Q963.042 1565.88 960.05 1567.44 Q957.058 1568.97 952.729 1568.97 Q947.255 1568.97 944.008 1565.91 Q940.794 1562.82 940.794 1557.67 Q940.794 1551.65 944.804 1548.6 Q948.846 1545.54 956.835 1545.54 L965.047 1545.54 L965.047 1544.97 Q965.047 1540.93 962.373 1538.73 Q959.732 1536.5 954.925 1536.5 Q951.87 1536.5 948.973 1537.23 Q946.077 1537.97 943.403 1539.43 L943.403 1534.02 Q946.618 1532.78 949.642 1532.17 Q952.666 1531.54 955.53 1531.54 Q963.264 1531.54 967.084 1535.55 Q970.903 1539.56 970.903 1547.71 Z" fill="#000000" fill-rule="nonzero" fill-opacity="1" /><path clip-path="url(#clip410)" d="M988.759 1522.27 L988.759 1532.4 L1000.82 1532.4 L1000.82 1536.95 L988.759 1536.95 L988.759 1556.3 Q988.759 1560.66 989.937 1561.9 Q991.146 1563.14 994.807 1563.14 L1000.82 1563.14 L1000.82 1568.04 L994.807 1568.04 Q988.027 1568.04 985.449 1565.53 Q982.871 1562.98 982.871 1556.3 L982.871 1536.95 L978.574 1536.95 L978.574 1532.4 L982.871 1532.4 L982.871 1522.27 L988.759 1522.27 Z" fill="#000000" fill-rule="nonzero" fill-opacity="1" /><path clip-path="url(#clip410)" d="M1008.52 1532.4 L1014.38 1532.4 L1014.38 1568.04 L1008.52 1568.04 L1008.52 1532.4 M1008.52 1518.52 L1014.38 1518.52 L1014.38 1525.93 L1008.52 1525.93 L1008.52 1518.52 Z" fill="#000000" fill-rule="nonzero" fill-opacity="1" /><path clip-path="url(#clip410)" d="M1022.43 1532.4 L1028.64 1532.4 L1039.78 1562.31 L1050.92 1532.4 L1057.13 1532.4 L1043.76 1568.04 L1035.8 1568.04 L1022.43 1532.4 Z" fill="#000000" fill-rule="nonzero" fill-opacity="1" /><path clip-path="url(#clip410)" d="M1095.7 1548.76 L1095.7 1551.62 L1068.78 1551.62 Q1069.16 1557.67 1072.4 1560.85 Q1075.68 1564 1081.51 1564 Q1084.88 1564 1088.03 1563.17 Q1091.22 1562.35 1094.33 1560.69 L1094.33 1566.23 Q1091.18 1567.57 1087.87 1568.27 Q1084.56 1568.97 1081.16 1568.97 Q1072.63 1568.97 1067.63 1564 Q1062.67 1559.04 1062.67 1550.57 Q1062.67 1541.82 1067.38 1536.69 Q1072.12 1531.54 1080.14 1531.54 Q1087.33 1531.54 1091.5 1536.18 Q1095.7 1540.8 1095.7 1548.76 M1089.85 1547.04 Q1089.78 1542.23 1087.14 1539.37 Q1084.53 1536.5 1080.2 1536.5 Q1075.3 1536.5 1072.34 1539.27 Q1069.41 1542.04 1068.97 1547.07 L1089.85 1547.04 Z" fill="#000000" fill-rule="nonzero" fill-opacity="1" /><path clip-path="url(#clip410)" d="M1122.06 1520.52 L1128.55 1520.52 L1138.54 1560.69 L1148.51 1520.52 L1155.73 1520.52 L1165.73 1560.69 L1175.69 1520.52 L1182.21 1520.52 L1170.28 1568.04 L1162.19 1568.04 L1152.17 1526.79 L1142.05 1568.04 L1133.96 1568.04 L1122.06 1520.52 Z" fill="#000000" fill-rule="nonzero" fill-opacity="1" /><path clip-path="url(#clip410)" d="M1189.06 1532.4 L1194.91 1532.4 L1194.91 1568.04 L1189.06 1568.04 L1189.06 1532.4 M1189.06 1518.52 L1194.91 1518.52 L1194.91 1525.93 L1189.06 1525.93 L1189.06 1518.52 Z" fill="#000000" fill-rule="nonzero" fill-opacity="1" /><path clip-path="url(#clip410)" d="M1236.8 1546.53 L1236.8 1568.04 L1230.94 1568.04 L1230.94 1546.72 Q1230.94 1541.66 1228.97 1539.14 Q1227 1536.63 1223.05 1536.63 Q1218.31 1536.63 1215.57 1539.65 Q1212.83 1542.68 1212.83 1547.9 L1212.83 1568.04 L1206.94 1568.04 L1206.94 1532.4 L1212.83 1532.4 L1212.83 1537.93 Q1214.93 1534.72 1217.77 1533.13 Q1220.63 1531.54 1224.35 1531.54 Q1230.5 1531.54 1233.65 1535.36 Q1236.8 1539.14 1236.8 1546.53 Z" fill="#000000" fill-rule="nonzero" fill-opacity="1" /><path clip-path="url(#clip410)" d="M1271.94 1537.81 L1271.94 1518.52 L1277.79 1518.52 L1277.79 1568.04 L1271.94 1568.04 L1271.94 1562.7 Q1270.09 1565.88 1267.26 1567.44 Q1264.46 1568.97 1260.51 1568.97 Q1254.05 1568.97 1249.98 1563.81 Q1245.93 1558.65 1245.93 1550.25 Q1245.93 1541.85 1249.98 1536.69 Q1254.05 1531.54 1260.51 1531.54 Q1264.46 1531.54 1267.26 1533.1 Q1270.09 1534.62 1271.94 1537.81 M1251.98 1550.25 Q1251.98 1556.71 1254.62 1560.4 Q1257.3 1564.07 1261.94 1564.07 Q1266.59 1564.07 1269.26 1560.4 Q1271.94 1556.71 1271.94 1550.25 Q1271.94 1543.79 1269.26 1540.13 Q1266.59 1536.44 1261.94 1536.44 Q1257.3 1536.44 1254.62 1540.13 Q1251.98 1543.79 1251.98 1550.25 Z" fill="#000000" fill-rule="nonzero" fill-opacity="1" /><path clip-path="url(#clip410)" d="M1312.58 1533.45 L1312.58 1538.98 Q1310.1 1537.71 1307.43 1537.07 Q1304.75 1536.44 1301.89 1536.44 Q1297.53 1536.44 1295.33 1537.77 Q1293.17 1539.11 1293.17 1541.79 Q1293.17 1543.82 1294.73 1545 Q1296.29 1546.15 1301 1547.2 L1303 1547.64 Q1309.24 1548.98 1311.85 1551.43 Q1314.49 1553.85 1314.49 1558.21 Q1314.49 1563.17 1310.55 1566.07 Q1306.63 1568.97 1299.76 1568.97 Q1296.89 1568.97 1293.77 1568.39 Q1290.68 1567.85 1287.25 1566.74 L1287.25 1560.69 Q1290.49 1562.38 1293.64 1563.24 Q1296.8 1564.07 1299.88 1564.07 Q1304.02 1564.07 1306.25 1562.66 Q1308.48 1561.23 1308.48 1558.65 Q1308.48 1556.27 1306.85 1554.99 Q1305.26 1553.72 1299.82 1552.54 L1297.78 1552.07 Q1292.34 1550.92 1289.92 1548.56 Q1287.5 1546.18 1287.5 1542.04 Q1287.5 1537.01 1291.07 1534.27 Q1294.63 1531.54 1301.19 1531.54 Q1304.43 1531.54 1307.3 1532.01 Q1310.16 1532.49 1312.58 1533.45 Z" fill="#000000" fill-rule="nonzero" fill-opacity="1" /><path clip-path="url(#clip410)" d="M1329.48 1562.7 L1329.48 1581.6 L1323.6 1581.6 L1323.6 1532.4 L1329.48 1532.4 L1329.48 1537.81 Q1331.33 1534.62 1334.13 1533.1 Q1336.96 1531.54 1340.88 1531.54 Q1347.37 1531.54 1351.41 1536.69 Q1355.49 1541.85 1355.49 1550.25 Q1355.49 1558.65 1351.41 1563.81 Q1347.37 1568.97 1340.88 1568.97 Q1336.96 1568.97 1334.13 1567.44 Q1331.33 1565.88 1329.48 1562.7 M1349.41 1550.25 Q1349.41 1543.79 1346.73 1540.13 Q1344.09 1536.44 1339.45 1536.44 Q1334.8 1536.44 1332.13 1540.13 Q1329.48 1543.79 1329.48 1550.25 Q1329.48 1556.71 1332.13 1560.4 Q1334.8 1564.07 1339.45 1564.07 Q1344.09 1564.07 1346.73 1560.4 Q1349.41 1556.71 1349.41 1550.25 Z" fill="#000000" fill-rule="nonzero" fill-opacity="1" /><path clip-path="url(#clip410)" d="M1395.69 1548.76 L1395.69 1551.62 L1368.76 1551.62 Q1369.14 1557.67 1372.39 1560.85 Q1375.67 1564 1381.49 1564 Q1384.87 1564 1388.02 1563.17 Q1391.2 1562.35 1394.32 1560.69 L1394.32 1566.23 Q1391.17 1567.57 1387.86 1568.27 Q1384.55 1568.97 1381.14 1568.97 Q1372.61 1568.97 1367.61 1564 Q1362.65 1559.04 1362.65 1550.57 Q1362.65 1541.82 1367.36 1536.69 Q1372.1 1531.54 1380.12 1531.54 Q1387.32 1531.54 1391.49 1536.18 Q1395.69 1540.8 1395.69 1548.76 M1389.83 1547.04 Q1389.77 1542.23 1387.13 1539.37 Q1384.52 1536.5 1380.19 1536.5 Q1375.28 1536.5 1372.32 1539.27 Q1369.4 1542.04 1368.95 1547.07 L1389.83 1547.04 Z" fill="#000000" fill-rule="nonzero" fill-opacity="1" /><path clip-path="url(#clip410)" d="M1435.79 1548.76 L1435.79 1551.62 L1408.86 1551.62 Q1409.25 1557.67 1412.49 1560.85 Q1415.77 1564 1421.6 1564 Q1424.97 1564 1428.12 1563.17 Q1431.3 1562.35 1434.42 1560.69 L1434.42 1566.23 Q1431.27 1567.57 1427.96 1568.27 Q1424.65 1568.97 1421.25 1568.97 Q1412.72 1568.97 1407.72 1564 Q1402.75 1559.04 1402.75 1550.57 Q1402.75 1541.82 1407.46 1536.69 Q1412.21 1531.54 1420.23 1531.54 Q1427.42 1531.54 1431.59 1536.18 Q1435.79 1540.8 1435.79 1548.76 M1429.93 1547.04 Q1429.87 1542.23 1427.23 1539.37 Q1424.62 1536.5 1420.29 1536.5 Q1415.39 1536.5 1412.43 1539.27 Q1409.5 1542.04 1409.05 1547.07 L1429.93 1547.04 Z" fill="#000000" fill-rule="nonzero" fill-opacity="1" /><path clip-path="url(#clip410)" d="M1468.86 1537.81 L1468.86 1518.52 L1474.72 1518.52 L1474.72 1568.04 L1468.86 1568.04 L1468.86 1562.7 Q1467.01 1565.88 1464.18 1567.44 Q1461.38 1568.97 1457.43 1568.97 Q1450.97 1568.97 1446.9 1563.81 Q1442.86 1558.65 1442.86 1550.25 Q1442.86 1541.85 1446.9 1536.69 Q1450.97 1531.54 1457.43 1531.54 Q1461.38 1531.54 1464.18 1533.1 Q1467.01 1534.62 1468.86 1537.81 M1448.9 1550.25 Q1448.9 1556.71 1451.55 1560.4 Q1454.22 1564.07 1458.87 1564.07 Q1463.51 1564.07 1466.19 1560.4 Q1468.86 1556.71 1468.86 1550.25 Q1468.86 1543.79 1466.19 1540.13 Q1463.51 1536.44 1458.87 1536.44 Q1454.22 1536.44 1451.55 1540.13 Q1448.9 1543.79 1448.9 1550.25 Z" fill="#000000" fill-rule="nonzero" fill-opacity="1" /><path clip-path="url(#clip410)" d="M1521.57 1518.58 Q1517.3 1525.9 1515.23 1533.06 Q1513.17 1540.23 1513.17 1547.58 Q1513.17 1554.93 1515.23 1562.16 Q1517.34 1569.35 1521.57 1576.64 L1516.48 1576.64 Q1511.7 1569.16 1509.31 1561.93 Q1506.96 1554.71 1506.96 1547.58 Q1506.96 1540.48 1509.31 1533.29 Q1511.67 1526.09 1516.48 1518.58 L1521.57 1518.58 Z" fill="#000000" fill-rule="nonzero" fill-opacity="1" /><path clip-path="url(#clip410)" d="M1532.33 1553.98 L1532.33 1532.4 L1538.18 1532.4 L1538.18 1553.75 Q1538.18 1558.81 1540.16 1561.36 Q1542.13 1563.87 1546.08 1563.87 Q1550.82 1563.87 1553.56 1560.85 Q1556.33 1557.83 1556.33 1552.61 L1556.33 1532.4 L1562.18 1532.4 L1562.18 1568.04 L1556.33 1568.04 L1556.33 1562.57 Q1554.19 1565.82 1551.36 1567.41 Q1548.56 1568.97 1544.84 1568.97 Q1538.69 1568.97 1535.51 1565.15 Q1532.33 1561.33 1532.33 1553.98 M1547.06 1531.54 L1547.06 1531.54 Z" fill="#000000" fill-rule="nonzero" fill-opacity="1" /><path clip-path="url(#clip410)" d="M1584.65 1520.52 L1590.06 1520.52 L1573.51 1574.09 L1568.1 1574.09 L1584.65 1520.52 Z" fill="#000000" fill-rule="nonzero" fill-opacity="1" /><path clip-path="url(#clip410)" d="M1595.6 1553.98 L1595.6 1532.4 L1601.46 1532.4 L1601.46 1553.75 Q1601.46 1558.81 1603.43 1561.36 Q1605.41 1563.87 1609.35 1563.87 Q1614.09 1563.87 1616.83 1560.85 Q1619.6 1557.83 1619.6 1552.61 L1619.6 1532.4 L1625.46 1532.4 L1625.46 1568.04 L1619.6 1568.04 L1619.6 1562.57 Q1617.47 1565.82 1614.64 1567.41 Q1611.83 1568.97 1608.11 1568.97 Q1601.97 1568.97 1598.78 1565.15 Q1595.6 1561.33 1595.6 1553.98 M1610.34 1531.54 L1610.34 1531.54 Z" fill="#000000" fill-rule="nonzero" fill-opacity="1" /><path clip-path="url(#clip410)" d="M1664.61 1578.87 L1664.61 1583.42 L1630.74 1583.42 L1630.74 1578.87 L1664.61 1578.87 Z" fill="#000000" fill-rule="nonzero" fill-opacity="1" /><path clip-path="url(#clip410)" d="M1692.9 1545.76 Q1694.97 1546.46 1696.91 1548.76 Q1698.89 1551.05 1700.86 1555.06 L1707.38 1568.04 L1700.48 1568.04 L1694.4 1555.85 Q1692.04 1551.08 1689.81 1549.52 Q1687.62 1547.96 1683.8 1547.96 L1676.8 1547.96 L1676.8 1568.04 L1670.37 1568.04 L1670.37 1520.52 L1684.88 1520.52 Q1693.03 1520.52 1697.04 1523.93 Q1701.05 1527.34 1701.05 1534.21 Q1701.05 1538.7 1698.95 1541.66 Q1696.88 1544.62 1692.9 1545.76 M1676.8 1525.81 L1676.8 1542.68 L1684.88 1542.68 Q1689.53 1542.68 1691.88 1540.54 Q1694.27 1538.38 1694.27 1534.21 Q1694.27 1530.04 1691.88 1527.94 Q1689.53 1525.81 1684.88 1525.81 L1676.8 1525.81 Z" fill="#000000" fill-rule="nonzero" fill-opacity="1" /><path clip-path="url(#clip410)" d="M1714.48 1518.58 L1719.57 1518.58 Q1724.35 1526.09 1726.7 1533.29 Q1729.09 1540.48 1729.09 1547.58 Q1729.09 1554.71 1726.7 1561.93 Q1724.35 1569.16 1719.57 1576.64 L1714.48 1576.64 Q1718.71 1569.35 1720.78 1562.16 Q1722.88 1554.93 1722.88 1547.58 Q1722.88 1540.23 1720.78 1533.06 Q1718.71 1525.9 1714.48 1518.58 Z" fill="#000000" fill-rule="nonzero" fill-opacity="1" /><polyline clip-path="url(#clip410)" style="stroke:#000000; stroke-linecap:round; stroke-linejoin:round; stroke-width:4; stroke-opacity:1; fill:none" points="219.033,1423.18 219.033,123.472 "/>
<polyline clip-path="url(#clip410)" style="stroke:#000000; stroke-linecap:round; stroke-linejoin:round; stroke-width:4; stroke-opacity:1; fill:none" points="219.033,1128.26 237.931,1128.26 "/>
<polyline clip-path="url(#clip410)" style="stroke:#000000; stroke-linecap:round; stroke-linejoin:round; stroke-width:4; stroke-opacity:1; fill:none" points="219.033,805.593 237.931,805.593 "/>
<polyline clip-path="url(#clip410)" style="stroke:#000000; stroke-linecap:round; stroke-linejoin:round; stroke-width:4; stroke-opacity:1; fill:none" points="219.033,482.925 237.931,482.925 "/>
<polyline clip-path="url(#clip410)" style="stroke:#000000; stroke-linecap:round; stroke-linejoin:round; stroke-width:4; stroke-opacity:1; fill:none" points="219.033,160.256 237.931,160.256 "/>
<path clip-path="url(#clip410)" d="M126.853 1114.06 Q123.242 1114.06 121.413 1117.62 Q119.607 1121.17 119.607 1128.3 Q119.607 1135.4 121.413 1138.97 Q123.242 1142.51 126.853 1142.51 Q130.487 1142.51 132.292 1138.97 Q134.121 1135.4 134.121 1128.3 Q134.121 1121.17 132.292 1117.62 Q130.487 1114.06 126.853 1114.06 M126.853 1110.36 Q132.663 1110.36 135.718 1114.96 Q138.797 1119.55 138.797 1128.3 Q138.797 1137.02 135.718 1141.63 Q132.663 1146.21 126.853 1146.21 Q121.043 1146.21 117.964 1141.63 Q114.908 1137.02 114.908 1128.3 Q114.908 1119.55 117.964 1114.96 Q121.043 1110.36 126.853 1110.36 Z" fill="#000000" fill-rule="nonzero" fill-opacity="1" /><path clip-path="url(#clip410)" d="M147.015 1139.66 L151.899 1139.66 L151.899 1145.54 L147.015 1145.54 L147.015 1139.66 Z" fill="#000000" fill-rule="nonzero" fill-opacity="1" /><path clip-path="url(#clip410)" d="M162.13 1110.98 L180.487 1110.98 L180.487 1114.92 L166.413 1114.92 L166.413 1123.39 Q167.431 1123.04 168.45 1122.88 Q169.468 1122.69 170.487 1122.69 Q176.274 1122.69 179.653 1125.87 Q183.033 1129.04 183.033 1134.45 Q183.033 1140.03 179.561 1143.13 Q176.089 1146.21 169.769 1146.21 Q167.593 1146.21 165.325 1145.84 Q163.079 1145.47 160.672 1144.73 L160.672 1140.03 Q162.755 1141.17 164.977 1141.72 Q167.2 1142.28 169.677 1142.28 Q173.681 1142.28 176.019 1140.17 Q178.357 1138.06 178.357 1134.45 Q178.357 1130.84 176.019 1128.74 Q173.681 1126.63 169.677 1126.63 Q167.802 1126.63 165.927 1127.05 Q164.075 1127.46 162.13 1128.34 L162.13 1110.98 Z" fill="#000000" fill-rule="nonzero" fill-opacity="1" /><path clip-path="url(#clip410)" d="M116.668 818.938 L124.306 818.938 L124.306 792.572 L115.996 794.239 L115.996 789.979 L124.26 788.313 L128.936 788.313 L128.936 818.938 L136.575 818.938 L136.575 822.873 L116.668 822.873 L116.668 818.938 Z" fill="#000000" fill-rule="nonzero" fill-opacity="1" /><path clip-path="url(#clip410)" d="M146.019 816.993 L150.903 816.993 L150.903 822.873 L146.019 822.873 L146.019 816.993 Z" fill="#000000" fill-rule="nonzero" fill-opacity="1" /><path clip-path="url(#clip410)" d="M171.089 791.391 Q167.477 791.391 165.649 794.956 Q163.843 798.498 163.843 805.628 Q163.843 812.734 165.649 816.299 Q167.477 819.84 171.089 819.84 Q174.723 819.84 176.528 816.299 Q178.357 812.734 178.357 805.628 Q178.357 798.498 176.528 794.956 Q174.723 791.391 171.089 791.391 M171.089 787.688 Q176.899 787.688 179.954 792.294 Q183.033 796.878 183.033 805.628 Q183.033 814.354 179.954 818.961 Q176.899 823.544 171.089 823.544 Q165.278 823.544 162.2 818.961 Q159.144 814.354 159.144 805.628 Q159.144 796.878 162.2 792.294 Q165.278 787.688 171.089 787.688 Z" fill="#000000" fill-rule="nonzero" fill-opacity="1" /><path clip-path="url(#clip410)" d="M117.663 496.269 L125.302 496.269 L125.302 469.904 L116.992 471.57 L116.992 467.311 L125.255 465.645 L129.931 465.645 L129.931 496.269 L137.57 496.269 L137.57 500.205 L117.663 500.205 L117.663 496.269 Z" fill="#000000" fill-rule="nonzero" fill-opacity="1" /><path clip-path="url(#clip410)" d="M147.015 494.325 L151.899 494.325 L151.899 500.205 L147.015 500.205 L147.015 494.325 Z" fill="#000000" fill-rule="nonzero" fill-opacity="1" /><path clip-path="url(#clip410)" d="M162.13 465.645 L180.487 465.645 L180.487 469.58 L166.413 469.58 L166.413 478.052 Q167.431 477.705 168.45 477.543 Q169.468 477.357 170.487 477.357 Q176.274 477.357 179.653 480.529 Q183.033 483.7 183.033 489.117 Q183.033 494.695 179.561 497.797 Q176.089 500.876 169.769 500.876 Q167.593 500.876 165.325 500.505 Q163.079 500.135 160.672 499.394 L160.672 494.695 Q162.755 495.83 164.977 496.385 Q167.2 496.941 169.677 496.941 Q173.681 496.941 176.019 494.834 Q178.357 492.728 178.357 489.117 Q178.357 485.506 176.019 483.399 Q173.681 481.293 169.677 481.293 Q167.802 481.293 165.927 481.709 Q164.075 482.126 162.13 483.006 L162.13 465.645 Z" fill="#000000" fill-rule="nonzero" fill-opacity="1" /><path clip-path="url(#clip410)" d="M119.885 173.601 L136.204 173.601 L136.204 177.536 L114.26 177.536 L114.26 173.601 Q116.922 170.847 121.505 166.217 Q126.112 161.564 127.292 160.222 Q129.538 157.698 130.417 155.962 Q131.32 154.203 131.32 152.513 Q131.32 149.759 129.376 148.023 Q127.455 146.286 124.353 146.286 Q122.154 146.286 119.7 147.05 Q117.269 147.814 114.492 149.365 L114.492 144.643 Q117.316 143.509 119.769 142.93 Q122.223 142.351 124.26 142.351 Q129.63 142.351 132.825 145.036 Q136.019 147.722 136.019 152.212 Q136.019 154.342 135.209 156.263 Q134.422 158.161 132.316 160.754 Q131.737 161.425 128.635 164.643 Q125.533 167.837 119.885 173.601 Z" fill="#000000" fill-rule="nonzero" fill-opacity="1" /><path clip-path="url(#clip410)" d="M146.019 171.657 L150.903 171.657 L150.903 177.536 L146.019 177.536 L146.019 171.657 Z" fill="#000000" fill-rule="nonzero" fill-opacity="1" /><path clip-path="url(#clip410)" d="M171.089 146.055 Q167.477 146.055 165.649 149.62 Q163.843 153.161 163.843 160.291 Q163.843 167.397 165.649 170.962 Q167.477 174.504 171.089 174.504 Q174.723 174.504 176.528 170.962 Q178.357 167.397 178.357 160.291 Q178.357 153.161 176.528 149.62 Q174.723 146.055 171.089 146.055 M171.089 142.351 Q176.899 142.351 179.954 146.958 Q183.033 151.541 183.033 160.291 Q183.033 169.018 179.954 173.624 Q176.899 178.208 171.089 178.208 Q165.278 178.208 162.2 173.624 Q159.144 169.018 159.144 160.291 Q159.144 151.541 162.2 146.958 Q165.278 142.351 171.089 142.351 Z" fill="#000000" fill-rule="nonzero" fill-opacity="1" /><path clip-path="url(#clip410)" d="M41.7242 1157.91 Q42.4244 1155.84 44.7161 1153.9 Q47.0077 1151.93 51.0181 1149.95 L64.0042 1143.43 L64.0042 1150.33 L51.8138 1156.41 Q47.0395 1158.77 45.48 1161 Q43.9204 1163.19 43.9204 1167.01 L43.9204 1174.02 L64.0042 1174.02 L64.0042 1180.44 L16.4842 1180.44 L16.4842 1165.93 Q16.4842 1157.78 19.8898 1153.77 Q23.2955 1149.76 30.1704 1149.76 Q34.6582 1149.76 37.6183 1151.86 Q40.5784 1153.93 41.7242 1157.91 M21.7677 1174.02 L38.6368 1174.02 L38.6368 1165.93 Q38.6368 1161.28 36.5043 1158.93 Q34.34 1156.54 30.1704 1156.54 Q26.0009 1156.54 23.9002 1158.93 Q21.7677 1161.28 21.7677 1165.93 L21.7677 1174.02 Z" fill="#000000" fill-rule="nonzero" fill-opacity="1" /><path clip-path="url(#clip410)" d="M44.7161 1107.84 L47.5806 1107.84 L47.5806 1134.77 Q53.6281 1134.39 56.8109 1131.14 Q59.9619 1127.86 59.9619 1122.04 Q59.9619 1118.67 59.1344 1115.51 Q58.3069 1112.33 56.6518 1109.21 L62.1899 1109.21 Q63.5267 1112.36 64.227 1115.67 Q64.9272 1118.98 64.9272 1122.39 Q64.9272 1130.92 59.9619 1135.92 Q54.9967 1140.88 46.5303 1140.88 Q37.7774 1140.88 32.6531 1136.17 Q27.4968 1131.43 27.4968 1123.41 Q27.4968 1116.21 32.1438 1112.05 Q36.7589 1107.84 44.7161 1107.84 M42.9973 1113.7 Q38.1912 1113.76 35.3266 1116.41 Q32.4621 1119.02 32.4621 1123.34 Q32.4621 1128.25 35.2312 1131.21 Q38.0002 1134.13 43.0292 1134.58 L42.9973 1113.7 Z" fill="#000000" fill-rule="nonzero" fill-opacity="1" /><path clip-path="url(#clip410)" d="M14.479 1098.23 L14.479 1092.38 L64.0042 1092.38 L64.0042 1098.23 L14.479 1098.23 Z" fill="#000000" fill-rule="nonzero" fill-opacity="1" /><path clip-path="url(#clip410)" d="M46.0847 1063.92 Q46.0847 1071.02 47.7079 1073.76 Q49.3312 1076.49 53.2461 1076.49 Q56.3653 1076.49 58.2114 1074.46 Q60.0256 1072.39 60.0256 1068.85 Q60.0256 1063.98 56.5881 1061.06 Q53.1188 1058.1 47.3897 1058.1 L46.0847 1058.1 L46.0847 1063.92 M43.6657 1052.24 L64.0042 1052.24 L64.0042 1058.1 L58.5933 1058.1 Q61.8398 1060.1 63.3994 1063.09 Q64.9272 1066.08 64.9272 1070.41 Q64.9272 1075.89 61.8716 1079.13 Q58.7843 1082.35 53.6281 1082.35 Q47.6125 1082.35 44.5569 1078.34 Q41.5014 1074.3 41.5014 1066.31 L41.5014 1058.1 L40.9285 1058.1 Q36.8862 1058.1 34.6901 1060.77 Q32.4621 1063.41 32.4621 1068.22 Q32.4621 1071.27 33.1941 1074.17 Q33.9262 1077.07 35.3903 1079.74 L29.9795 1079.74 Q28.7381 1076.52 28.1334 1073.5 Q27.4968 1070.48 27.4968 1067.61 Q27.4968 1059.88 31.5072 1056.06 Q35.5176 1052.24 43.6657 1052.24 Z" fill="#000000" fill-rule="nonzero" fill-opacity="1" /><path clip-path="url(#clip410)" d="M18.2347 1034.38 L28.3562 1034.38 L28.3562 1022.32 L32.9077 1022.32 L32.9077 1034.38 L52.2594 1034.38 Q56.6199 1034.38 57.8613 1033.21 Q59.1026 1032 59.1026 1028.34 L59.1026 1022.32 L64.0042 1022.32 L64.0042 1028.34 Q64.0042 1035.12 61.4897 1037.69 Q58.9434 1040.27 52.2594 1040.27 L32.9077 1040.27 L32.9077 1044.57 L28.3562 1044.57 L28.3562 1040.27 L18.2347 1040.27 L18.2347 1034.38 Z" fill="#000000" fill-rule="nonzero" fill-opacity="1" /><path clip-path="url(#clip410)" d="M28.3562 1014.62 L28.3562 1008.76 L64.0042 1008.76 L64.0042 1014.62 L28.3562 1014.62 M14.479 1014.62 L14.479 1008.76 L21.895 1008.76 L21.895 1014.62 L14.479 1014.62 Z" fill="#000000" fill-rule="nonzero" fill-opacity="1" /><path clip-path="url(#clip410)" d="M28.3562 1000.71 L28.3562 994.502 L58.275 983.362 L28.3562 972.222 L28.3562 966.016 L64.0042 979.384 L64.0042 987.341 L28.3562 1000.71 Z" fill="#000000" fill-rule="nonzero" fill-opacity="1" /><path clip-path="url(#clip410)" d="M44.7161 927.44 L47.5806 927.44 L47.5806 954.367 Q53.6281 953.985 56.8109 950.738 Q59.9619 947.46 59.9619 941.635 Q59.9619 938.261 59.1344 935.11 Q58.3069 931.928 56.6518 928.808 L62.1899 928.808 Q63.5267 931.959 64.227 935.27 Q64.9272 938.58 64.9272 941.985 Q64.9272 950.515 59.9619 955.513 Q54.9967 960.478 46.5303 960.478 Q37.7774 960.478 32.6531 955.767 Q27.4968 951.025 27.4968 943.004 Q27.4968 935.811 32.1438 931.641 Q36.7589 927.44 44.7161 927.44 M42.9973 933.296 Q38.1912 933.36 35.3266 936.002 Q32.4621 938.612 32.4621 942.94 Q32.4621 947.842 35.2312 950.802 Q38.0002 953.73 43.0292 954.176 L42.9973 933.296 Z" fill="#000000" fill-rule="nonzero" fill-opacity="1" /><path clip-path="url(#clip410)" d="M16.4842 896.853 L16.4842 866.806 L21.895 866.806 L21.895 890.423 L35.9632 890.423 L35.9632 867.793 L41.3741 867.793 L41.3741 890.423 L58.5933 890.423 L58.5933 866.233 L64.0042 866.233 L64.0042 896.853 L16.4842 896.853 Z" fill="#000000" fill-rule="nonzero" fill-opacity="1" /><path clip-path="url(#clip410)" d="M14.479 855.921 L14.479 850.065 L64.0042 850.065 L64.0042 855.921 L14.479 855.921 Z" fill="#000000" fill-rule="nonzero" fill-opacity="1" /><path clip-path="url(#clip410)" d="M44.7161 807.319 L47.5806 807.319 L47.5806 834.246 Q53.6281 833.864 56.8109 830.617 Q59.9619 827.339 59.9619 821.514 Q59.9619 818.141 59.1344 814.99 Q58.3069 811.807 56.6518 808.687 L62.1899 808.687 Q63.5267 811.839 64.227 815.149 Q64.9272 818.459 64.9272 821.864 Q64.9272 830.395 59.9619 835.392 Q54.9967 840.357 46.5303 840.357 Q37.7774 840.357 32.6531 835.646 Q27.4968 830.904 27.4968 822.883 Q27.4968 815.69 32.1438 811.52 Q36.7589 807.319 44.7161 807.319 M42.9973 813.175 Q38.1912 813.239 35.3266 815.881 Q32.4621 818.491 32.4621 822.819 Q32.4621 827.721 35.2312 830.681 Q38.0002 833.609 43.0292 834.055 L42.9973 813.175 Z" fill="#000000" fill-rule="nonzero" fill-opacity="1" /><path clip-path="url(#clip410)" d="M28.3562 801.908 L28.3562 795.701 L58.275 784.561 L28.3562 773.421 L28.3562 767.215 L64.0042 780.583 L64.0042 788.54 L28.3562 801.908 Z" fill="#000000" fill-rule="nonzero" fill-opacity="1" /><path clip-path="url(#clip410)" d="M46.0847 742.93 Q46.0847 750.027 47.7079 752.765 Q49.3312 755.502 53.2461 755.502 Q56.3653 755.502 58.2114 753.465 Q60.0256 751.396 60.0256 747.863 Q60.0256 742.993 56.5881 740.065 Q53.1188 737.105 47.3897 737.105 L46.0847 737.105 L46.0847 742.93 M43.6657 731.249 L64.0042 731.249 L64.0042 737.105 L58.5933 737.105 Q61.8398 739.11 63.3994 742.102 Q64.9272 745.094 64.9272 749.423 Q64.9272 754.897 61.8716 758.144 Q58.7843 761.358 53.6281 761.358 Q47.6125 761.358 44.5569 757.348 Q41.5014 753.306 41.5014 745.317 L41.5014 737.105 L40.9285 737.105 Q36.8862 737.105 34.6901 739.779 Q32.4621 742.42 32.4621 747.227 Q32.4621 750.282 33.1941 753.179 Q33.9262 756.075 35.3903 758.749 L29.9795 758.749 Q28.7381 755.534 28.1334 752.51 Q27.4968 749.486 27.4968 746.622 Q27.4968 738.888 31.5072 735.068 Q35.5176 731.249 43.6657 731.249 Z" fill="#000000" fill-rule="nonzero" fill-opacity="1" /><path clip-path="url(#clip410)" d="M18.2347 713.393 L28.3562 713.393 L28.3562 701.33 L32.9077 701.33 L32.9077 713.393 L52.2594 713.393 Q56.6199 713.393 57.8613 712.215 Q59.1026 711.006 59.1026 707.345 L59.1026 701.33 L64.0042 701.33 L64.0042 707.345 Q64.0042 714.125 61.4897 716.703 Q58.9434 719.281 52.2594 719.281 L32.9077 719.281 L32.9077 723.578 L28.3562 723.578 L28.3562 719.281 L18.2347 719.281 L18.2347 713.393 Z" fill="#000000" fill-rule="nonzero" fill-opacity="1" /><path clip-path="url(#clip410)" d="M28.3562 693.627 L28.3562 687.771 L64.0042 687.771 L64.0042 693.627 L28.3562 693.627 M14.479 693.627 L14.479 687.771 L21.895 687.771 L21.895 693.627 L14.479 693.627 Z" fill="#000000" fill-rule="nonzero" fill-opacity="1" /><path clip-path="url(#clip410)" d="M32.4621 661.703 Q32.4621 666.414 36.1542 669.151 Q39.8145 671.888 46.212 671.888 Q52.6095 671.888 56.3017 669.183 Q59.9619 666.446 59.9619 661.703 Q59.9619 657.025 56.2698 654.287 Q52.5777 651.55 46.212 651.55 Q39.8781 651.55 36.186 654.287 Q32.4621 657.025 32.4621 661.703 M27.4968 661.703 Q27.4968 654.064 32.4621 649.704 Q37.4273 645.343 46.212 645.343 Q54.9649 645.343 59.9619 649.704 Q64.9272 654.064 64.9272 661.703 Q64.9272 669.374 59.9619 673.735 Q54.9649 678.063 46.212 678.063 Q37.4273 678.063 32.4621 673.735 Q27.4968 669.374 27.4968 661.703 Z" fill="#000000" fill-rule="nonzero" fill-opacity="1" /><path clip-path="url(#clip410)" d="M42.4881 606.003 L64.0042 606.003 L64.0042 611.86 L42.679 611.86 Q37.6183 611.86 35.1038 613.833 Q32.5894 615.807 32.5894 619.753 Q32.5894 624.496 35.6131 627.233 Q38.6368 629.97 43.8567 629.97 L64.0042 629.97 L64.0042 635.859 L28.3562 635.859 L28.3562 629.97 L33.8944 629.97 Q30.6797 627.87 29.0883 625.037 Q27.4968 622.172 27.4968 618.448 Q27.4968 612.305 31.3163 609.154 Q35.1038 606.003 42.4881 606.003 Z" fill="#000000" fill-rule="nonzero" fill-opacity="1" /><path clip-path="url(#clip410)" d="M14.5426 559.534 Q21.8632 563.799 29.0246 565.868 Q36.186 567.936 43.5384 567.936 Q50.8908 567.936 58.1159 565.868 Q65.3091 563.767 72.5979 559.534 L72.5979 564.626 Q65.1182 569.401 57.8931 571.788 Q50.668 574.143 43.5384 574.143 Q36.4406 574.143 29.2474 571.788 Q22.0542 569.432 14.5426 564.626 L14.5426 559.534 Z" fill="#000000" fill-rule="nonzero" fill-opacity="1" /><path clip-path="url(#clip410)" d="M28.3562 550.717 L28.3562 522.899 L33.7034 522.899 L59.3254 544.924 L59.3254 522.899 L64.0042 522.899 L64.0042 551.513 L58.657 551.513 L33.035 529.488 L33.035 550.717 L28.3562 550.717 Z" fill="#000000" fill-rule="nonzero" fill-opacity="1" /><path clip-path="url(#clip410)" d="M16.4842 503.547 L16.4842 498.136 L70.0516 514.687 L70.0516 520.098 L16.4842 503.547 Z" fill="#000000" fill-rule="nonzero" fill-opacity="1" /><path clip-path="url(#clip410)" d="M28.3562 494.54 L28.3562 466.722 L33.7034 466.722 L59.3254 488.747 L59.3254 466.722 L64.0042 466.722 L64.0042 495.336 L58.657 495.336 L33.035 473.31 L33.035 494.54 L28.3562 494.54 Z" fill="#000000" fill-rule="nonzero" fill-opacity="1" /><path clip-path="url(#clip410)" d="M74.8259 430.692 L79.3773 430.692 L79.3773 464.557 L74.8259 464.557 L74.8259 430.692 Z" fill="#000000" fill-rule="nonzero" fill-opacity="1" /><path clip-path="url(#clip410)" d="M41.7242 402.396 Q42.4244 400.327 44.7161 398.386 Q47.0077 396.412 51.0181 394.439 L64.0042 387.914 L64.0042 394.821 L51.8138 400.9 Q47.0395 403.256 45.48 405.484 Q43.9204 407.68 43.9204 411.499 L43.9204 418.501 L64.0042 418.501 L64.0042 424.931 L16.4842 424.931 L16.4842 410.417 Q16.4842 402.269 19.8898 398.259 Q23.2955 394.248 30.1704 394.248 Q34.6582 394.248 37.6183 396.349 Q40.5784 398.418 41.7242 402.396 M21.7677 418.501 L38.6368 418.501 L38.6368 410.417 Q38.6368 405.77 36.5043 403.415 Q34.34 401.028 30.1704 401.028 Q26.0009 401.028 23.9002 403.415 Q21.7677 405.77 21.7677 410.417 L21.7677 418.501 Z" fill="#000000" fill-rule="nonzero" fill-opacity="1" /><path clip-path="url(#clip410)" d="M14.5426 380.817 L14.5426 375.724 Q22.0542 370.95 29.2474 368.594 Q36.4406 366.207 43.5384 366.207 Q50.668 366.207 57.8931 368.594 Q65.1182 370.95 72.5979 375.724 L72.5979 380.817 Q65.3091 376.583 58.1159 374.514 Q50.8908 372.414 43.5384 372.414 Q36.186 372.414 29.0246 374.514 Q21.8632 376.583 14.5426 380.817 Z" fill="#000000" fill-rule="nonzero" fill-opacity="1" /><path clip-path="url(#clip410)" d="M623.896 12.096 L632.159 12.096 L644.879 63.2184 L657.559 12.096 L666.754 12.096 L679.474 63.2184 L692.153 12.096 L700.458 12.096 L685.267 72.576 L674.978 72.576 L662.217 20.0763 L649.335 72.576 L639.046 72.576 L623.896 12.096 Z" fill="#000000" fill-rule="nonzero" fill-opacity="1" /><path clip-path="url(#clip410)" d="M709.167 27.2059 L716.621 27.2059 L716.621 72.576 L709.167 72.576 L709.167 27.2059 M709.167 9.54393 L716.621 9.54393 L716.621 18.9825 L709.167 18.9825 L709.167 9.54393 Z" fill="#000000" fill-rule="nonzero" fill-opacity="1" /><path clip-path="url(#clip410)" d="M769.931 45.1919 L769.931 72.576 L762.477 72.576 L762.477 45.4349 Q762.477 38.994 759.966 35.7938 Q757.454 32.5936 752.431 32.5936 Q746.395 32.5936 742.911 36.4419 Q739.427 40.2903 739.427 46.9338 L739.427 72.576 L731.933 72.576 L731.933 27.2059 L739.427 27.2059 L739.427 34.2544 Q742.101 30.163 745.706 28.1376 Q749.352 26.1121 754.092 26.1121 Q761.91 26.1121 765.92 30.9732 Q769.931 35.7938 769.931 45.1919 Z" fill="#000000" fill-rule="nonzero" fill-opacity="1" /><path clip-path="url(#clip410)" d="M814.653 34.0924 L814.653 9.54393 L822.106 9.54393 L822.106 72.576 L814.653 72.576 L814.653 65.7705 Q812.303 69.8214 808.698 71.8063 Q805.133 73.7508 800.11 73.7508 Q791.887 73.7508 786.701 67.1883 Q781.557 60.6258 781.557 49.9314 Q781.557 39.2371 786.701 32.6746 Q791.887 26.1121 800.11 26.1121 Q805.133 26.1121 808.698 28.0971 Q812.303 30.0415 814.653 34.0924 M789.254 49.9314 Q789.254 58.1548 792.616 62.8538 Q796.019 67.5124 801.933 67.5124 Q807.847 67.5124 811.25 62.8538 Q814.653 58.1548 814.653 49.9314 Q814.653 41.7081 811.25 37.0496 Q807.847 32.3505 801.933 32.3505 Q796.019 32.3505 792.616 37.0496 Q789.254 41.7081 789.254 49.9314 Z" fill="#000000" fill-rule="nonzero" fill-opacity="1" /><path clip-path="url(#clip410)" d="M866.383 28.5427 L866.383 35.5912 Q863.223 33.9709 859.82 33.1607 Q856.418 32.3505 852.772 32.3505 Q847.222 32.3505 844.427 34.0519 Q841.672 35.7533 841.672 39.156 Q841.672 41.7486 843.657 43.2475 Q845.642 44.7058 851.637 46.0426 L854.19 46.6097 Q862.129 48.3111 865.451 51.4303 Q868.813 54.509 868.813 60.0587 Q868.813 66.3781 863.79 70.0644 Q858.808 73.7508 850.058 73.7508 Q846.412 73.7508 842.442 73.0216 Q838.513 72.3329 834.138 70.9151 L834.138 63.2184 Q838.27 65.3654 842.28 66.4591 Q846.29 67.5124 850.22 67.5124 Q855.486 67.5124 858.321 65.73 Q861.157 63.9071 861.157 60.6258 Q861.157 57.5877 859.091 55.9673 Q857.066 54.3469 850.139 52.8481 L847.546 52.2405 Q840.619 50.7821 837.54 47.7845 Q834.462 44.7463 834.462 39.4801 Q834.462 33.0797 838.999 29.5959 Q843.536 26.1121 851.881 26.1121 Q856.012 26.1121 859.658 26.7198 Q863.304 27.3274 866.383 28.5427 Z" fill="#000000" fill-rule="nonzero" fill-opacity="1" /><path clip-path="url(#clip410)" d="M887.893 65.7705 L887.893 89.8329 L880.399 89.8329 L880.399 27.2059 L887.893 27.2059 L887.893 34.0924 Q890.243 30.0415 893.807 28.0971 Q897.413 26.1121 902.395 26.1121 Q910.659 26.1121 915.804 32.6746 Q920.989 39.2371 920.989 49.9314 Q920.989 60.6258 915.804 67.1883 Q910.659 73.7508 902.395 73.7508 Q897.413 73.7508 893.807 71.8063 Q890.243 69.8214 887.893 65.7705 M913.252 49.9314 Q913.252 41.7081 909.849 37.0496 Q906.487 32.3505 900.572 32.3505 Q894.658 32.3505 891.255 37.0496 Q887.893 41.7081 887.893 49.9314 Q887.893 58.1548 891.255 62.8538 Q894.658 67.5124 900.572 67.5124 Q906.487 67.5124 909.849 62.8538 Q913.252 58.1548 913.252 49.9314 Z" fill="#000000" fill-rule="nonzero" fill-opacity="1" /><path clip-path="url(#clip410)" d="M972.152 48.0275 L972.152 51.6733 L937.881 51.6733 Q938.367 59.3701 942.499 63.421 Q946.672 67.4314 954.085 67.4314 Q958.379 67.4314 962.389 66.3781 Q966.44 65.3249 970.41 63.2184 L970.41 70.267 Q966.4 71.9684 962.187 72.8596 Q957.974 73.7508 953.639 73.7508 Q942.783 73.7508 936.423 67.4314 Q930.104 61.1119 930.104 50.3365 Q930.104 39.1965 936.099 32.6746 Q942.135 26.1121 952.343 26.1121 Q961.498 26.1121 966.805 32.0264 Q972.152 37.9003 972.152 48.0275 M964.698 45.84 Q964.617 39.7232 961.255 36.0774 Q957.933 32.4315 952.424 32.4315 Q946.186 32.4315 942.418 35.9558 Q938.691 39.4801 938.124 45.8805 L964.698 45.84 Z" fill="#000000" fill-rule="nonzero" fill-opacity="1" /><path clip-path="url(#clip410)" d="M1023.19 48.0275 L1023.19 51.6733 L988.923 51.6733 Q989.409 59.3701 993.541 63.421 Q997.713 67.4314 1005.13 67.4314 Q1009.42 67.4314 1013.43 66.3781 Q1017.48 65.3249 1021.45 63.2184 L1021.45 70.267 Q1017.44 71.9684 1013.23 72.8596 Q1009.02 73.7508 1004.68 73.7508 Q993.824 73.7508 987.464 67.4314 Q981.145 61.1119 981.145 50.3365 Q981.145 39.1965 987.14 32.6746 Q993.176 26.1121 1003.38 26.1121 Q1012.54 26.1121 1017.85 32.0264 Q1023.19 37.9003 1023.19 48.0275 M1015.74 45.84 Q1015.66 39.7232 1012.3 36.0774 Q1008.97 32.4315 1003.47 32.4315 Q997.227 32.4315 993.46 35.9558 Q989.733 39.4801 989.166 45.8805 L1015.74 45.84 Z" fill="#000000" fill-rule="nonzero" fill-opacity="1" /><path clip-path="url(#clip410)" d="M1065.28 34.0924 L1065.28 9.54393 L1072.74 9.54393 L1072.74 72.576 L1065.28 72.576 L1065.28 65.7705 Q1062.93 69.8214 1059.33 71.8063 Q1055.76 73.7508 1050.74 73.7508 Q1042.52 73.7508 1037.33 67.1883 Q1032.19 60.6258 1032.19 49.9314 Q1032.19 39.2371 1037.33 32.6746 Q1042.52 26.1121 1050.74 26.1121 Q1055.76 26.1121 1059.33 28.0971 Q1062.93 30.0415 1065.28 34.0924 M1039.88 49.9314 Q1039.88 58.1548 1043.25 62.8538 Q1046.65 67.5124 1052.56 67.5124 Q1058.48 67.5124 1061.88 62.8538 Q1065.28 58.1548 1065.28 49.9314 Q1065.28 41.7081 1061.88 37.0496 Q1058.48 32.3505 1052.56 32.3505 Q1046.65 32.3505 1043.25 37.0496 Q1039.88 41.7081 1039.88 49.9314 Z" fill="#000000" fill-rule="nonzero" fill-opacity="1" /><path clip-path="url(#clip410)" d="M1137.43 9.54393 L1137.43 15.7418 L1130.3 15.7418 Q1126.29 15.7418 1124.71 17.3622 Q1123.17 18.9825 1123.17 23.1955 L1123.17 27.2059 L1135.44 27.2059 L1135.44 32.9987 L1123.17 32.9987 L1123.17 72.576 L1115.68 72.576 L1115.68 32.9987 L1108.55 32.9987 L1108.55 27.2059 L1115.68 27.2059 L1115.68 24.0462 Q1115.68 16.471 1119.2 13.0277 Q1122.72 9.54393 1130.38 9.54393 L1137.43 9.54393 Z" fill="#000000" fill-rule="nonzero" fill-opacity="1" /><path clip-path="url(#clip410)" d="M1161.25 32.4315 Q1155.25 32.4315 1151.77 37.1306 Q1148.29 41.7891 1148.29 49.9314 Q1148.29 58.0738 1151.73 62.7728 Q1155.21 67.4314 1161.25 67.4314 Q1167.2 67.4314 1170.69 62.7323 Q1174.17 58.0333 1174.17 49.9314 Q1174.17 41.8701 1170.69 37.1711 Q1167.2 32.4315 1161.25 32.4315 M1161.25 26.1121 Q1170.97 26.1121 1176.52 32.4315 Q1182.07 38.7509 1182.07 49.9314 Q1182.07 61.0714 1176.52 67.4314 Q1170.97 73.7508 1161.25 73.7508 Q1151.49 73.7508 1145.94 67.4314 Q1140.43 61.0714 1140.43 49.9314 Q1140.43 38.7509 1145.94 32.4315 Q1151.49 26.1121 1161.25 26.1121 Z" fill="#000000" fill-rule="nonzero" fill-opacity="1" /><path clip-path="url(#clip410)" d="M1220.72 34.1734 Q1219.46 33.4443 1217.96 33.1202 Q1216.5 32.7556 1214.72 32.7556 Q1208.4 32.7556 1205 36.8875 Q1201.64 40.9789 1201.64 48.6757 L1201.64 72.576 L1194.14 72.576 L1194.14 27.2059 L1201.64 27.2059 L1201.64 34.2544 Q1203.99 30.1225 1207.75 28.1376 Q1211.52 26.1121 1216.91 26.1121 Q1217.68 26.1121 1218.61 26.2337 Q1219.54 26.3147 1220.67 26.5172 L1220.72 34.1734 Z" fill="#000000" fill-rule="nonzero" fill-opacity="1" /><path clip-path="url(#clip410)" d="M1300.52 16.7545 L1300.52 25.383 Q1296.39 21.5346 1291.69 19.6307 Q1287.03 17.7268 1281.76 17.7268 Q1271.39 17.7268 1265.88 24.0867 Q1260.37 30.4061 1260.37 42.3968 Q1260.37 54.3469 1265.88 60.7069 Q1271.39 67.0263 1281.76 67.0263 Q1287.03 67.0263 1291.69 65.1223 Q1296.39 63.2184 1300.52 59.3701 L1300.52 67.9175 Q1296.22 70.8341 1291.4 72.2924 Q1286.62 73.7508 1281.28 73.7508 Q1267.54 73.7508 1259.64 65.3654 Q1251.75 56.9395 1251.75 42.3968 Q1251.75 27.8135 1259.64 19.4281 Q1267.54 11.0023 1281.28 11.0023 Q1286.7 11.0023 1291.48 12.4606 Q1296.31 13.8784 1300.52 16.7545 Z" fill="#000000" fill-rule="nonzero" fill-opacity="1" /><path clip-path="url(#clip410)" d="M1312.83 9.54393 L1320.29 9.54393 L1320.29 72.576 L1312.83 72.576 L1312.83 9.54393 Z" fill="#000000" fill-rule="nonzero" fill-opacity="1" /><path clip-path="url(#clip410)" d="M1356.5 49.7694 Q1347.47 49.7694 1343.98 51.8354 Q1340.5 53.9013 1340.5 58.8839 Q1340.5 62.8538 1343.09 65.2034 Q1345.73 67.5124 1350.22 67.5124 Q1356.42 67.5124 1360.15 63.1374 Q1363.91 58.7219 1363.91 51.4303 L1363.91 49.7694 L1356.5 49.7694 M1371.37 46.6907 L1371.37 72.576 L1363.91 72.576 L1363.91 65.6895 Q1361.36 69.8214 1357.55 71.8063 Q1353.75 73.7508 1348.24 73.7508 Q1341.27 73.7508 1337.14 69.8619 Q1333.05 65.9325 1333.05 59.3701 Q1333.05 51.7138 1338.15 47.825 Q1343.3 43.9361 1353.46 43.9361 L1363.91 43.9361 L1363.91 43.2069 Q1363.91 38.0623 1360.51 35.2672 Q1357.15 32.4315 1351.03 32.4315 Q1347.14 32.4315 1343.46 33.3632 Q1339.77 34.295 1336.37 36.1584 L1336.37 29.2718 Q1340.46 27.692 1344.31 26.9223 Q1348.16 26.1121 1351.8 26.1121 Q1361.65 26.1121 1366.51 31.2163 Q1371.37 36.3204 1371.37 46.6907 Z" fill="#000000" fill-rule="nonzero" fill-opacity="1" /><path clip-path="url(#clip410)" d="M1415.64 28.5427 L1415.64 35.5912 Q1412.49 33.9709 1409.08 33.1607 Q1405.68 32.3505 1402.03 32.3505 Q1396.48 32.3505 1393.69 34.0519 Q1390.93 35.7533 1390.93 39.156 Q1390.93 41.7486 1392.92 43.2475 Q1394.9 44.7058 1400.9 46.0426 L1403.45 46.6097 Q1411.39 48.3111 1414.71 51.4303 Q1418.08 54.509 1418.08 60.0587 Q1418.08 66.3781 1413.05 70.0644 Q1408.07 73.7508 1399.32 73.7508 Q1395.67 73.7508 1391.7 73.0216 Q1387.77 72.3329 1383.4 70.9151 L1383.4 63.2184 Q1387.53 65.3654 1391.54 66.4591 Q1395.55 67.5124 1399.48 67.5124 Q1404.75 67.5124 1407.58 65.73 Q1410.42 63.9071 1410.42 60.6258 Q1410.42 57.5877 1408.35 55.9673 Q1406.33 54.3469 1399.4 52.8481 L1396.81 52.2405 Q1389.88 50.7821 1386.8 47.7845 Q1383.72 44.7463 1383.72 39.4801 Q1383.72 33.0797 1388.26 29.5959 Q1392.8 26.1121 1401.14 26.1121 Q1405.27 26.1121 1408.92 26.7198 Q1412.57 27.3274 1415.64 28.5427 Z" fill="#000000" fill-rule="nonzero" fill-opacity="1" /><path clip-path="url(#clip410)" d="M1458.87 28.5427 L1458.87 35.5912 Q1455.71 33.9709 1452.31 33.1607 Q1448.9 32.3505 1445.26 32.3505 Q1439.71 32.3505 1436.91 34.0519 Q1434.16 35.7533 1434.16 39.156 Q1434.16 41.7486 1436.14 43.2475 Q1438.13 44.7058 1444.12 46.0426 L1446.67 46.6097 Q1454.61 48.3111 1457.94 51.4303 Q1461.3 54.509 1461.3 60.0587 Q1461.3 66.3781 1456.28 70.0644 Q1451.29 73.7508 1442.54 73.7508 Q1438.9 73.7508 1434.93 73.0216 Q1431 72.3329 1426.62 70.9151 L1426.62 63.2184 Q1430.75 65.3654 1434.77 66.4591 Q1438.78 67.5124 1442.7 67.5124 Q1447.97 67.5124 1450.81 65.73 Q1453.64 63.9071 1453.64 60.6258 Q1453.64 57.5877 1451.58 55.9673 Q1449.55 54.3469 1442.62 52.8481 L1440.03 52.2405 Q1433.1 50.7821 1430.03 47.7845 Q1426.95 44.7463 1426.95 39.4801 Q1426.95 33.0797 1431.48 29.5959 Q1436.02 26.1121 1444.37 26.1121 Q1448.5 26.1121 1452.14 26.7198 Q1455.79 27.3274 1458.87 28.5427 Z" fill="#000000" fill-rule="nonzero" fill-opacity="1" /><path clip-path="url(#clip410)" d="M1481.67 18.8205 L1481.67 65.8515 L1491.56 65.8515 Q1504.08 65.8515 1509.87 60.1802 Q1515.7 54.509 1515.7 42.2752 Q1515.7 30.1225 1509.87 24.4918 Q1504.08 18.8205 1491.56 18.8205 L1481.67 18.8205 M1473.49 12.096 L1490.3 12.096 Q1507.88 12.096 1516.11 19.4281 Q1524.33 26.7198 1524.33 42.2752 Q1524.33 57.9117 1516.07 65.2439 Q1507.8 72.576 1490.3 72.576 L1473.49 72.576 L1473.49 12.096 Z" fill="#000000" fill-rule="nonzero" fill-opacity="1" /><path clip-path="url(#clip410)" d="M1554.96 9.62495 Q1549.53 18.942 1546.89 28.0566 Q1544.26 37.1711 1544.26 46.5287 Q1544.26 55.8863 1546.89 65.0818 Q1549.57 74.2369 1554.96 83.5134 L1548.47 83.5134 Q1542.4 73.9938 1539.36 64.7983 Q1536.36 55.6027 1536.36 46.5287 Q1536.36 37.4952 1539.36 28.3401 Q1542.36 19.1851 1548.47 9.62495 L1554.96 9.62495 Z" fill="#000000" fill-rule="nonzero" fill-opacity="1" /><path clip-path="url(#clip410)" d="M1568.24 9.62495 L1574.72 9.62495 Q1580.8 19.1851 1583.8 28.3401 Q1586.84 37.4952 1586.84 46.5287 Q1586.84 55.6027 1583.8 64.7983 Q1580.8 73.9938 1574.72 83.5134 L1568.24 83.5134 Q1573.63 74.2369 1576.26 65.0818 Q1578.94 55.8863 1578.94 46.5287 Q1578.94 37.1711 1576.26 28.0566 Q1573.63 18.942 1568.24 9.62495 Z" fill="#000000" fill-rule="nonzero" fill-opacity="1" /><path clip-path="url(#clip410)" d="M1657.08 28.5427 L1657.08 35.5912 Q1653.92 33.9709 1650.52 33.1607 Q1647.11 32.3505 1643.47 32.3505 Q1637.92 32.3505 1635.12 34.0519 Q1632.37 35.7533 1632.37 39.156 Q1632.37 41.7486 1634.35 43.2475 Q1636.34 44.7058 1642.33 46.0426 L1644.89 46.6097 Q1652.83 48.3111 1656.15 51.4303 Q1659.51 54.509 1659.51 60.0587 Q1659.51 66.3781 1654.49 70.0644 Q1649.5 73.7508 1640.75 73.7508 Q1637.11 73.7508 1633.14 73.0216 Q1629.21 72.3329 1624.83 70.9151 L1624.83 63.2184 Q1628.97 65.3654 1632.98 66.4591 Q1636.99 67.5124 1640.92 67.5124 Q1646.18 67.5124 1649.02 65.73 Q1651.85 63.9071 1651.85 60.6258 Q1651.85 57.5877 1649.79 55.9673 Q1647.76 54.3469 1640.83 52.8481 L1638.24 52.2405 Q1631.32 50.7821 1628.24 47.7845 Q1625.16 44.7463 1625.16 39.4801 Q1625.16 33.0797 1629.69 29.5959 Q1634.23 26.1121 1642.58 26.1121 Q1646.71 26.1121 1650.35 26.7198 Q1654 27.3274 1657.08 28.5427 Z" fill="#000000" fill-rule="nonzero" fill-opacity="1" /><path clip-path="url(#clip410)" d="M1678.75 14.324 L1678.75 27.2059 L1694.1 27.2059 L1694.1 32.9987 L1678.75 32.9987 L1678.75 57.6282 Q1678.75 63.1779 1680.25 64.7578 Q1681.79 66.3376 1686.45 66.3376 L1694.1 66.3376 L1694.1 72.576 L1686.45 72.576 Q1677.82 72.576 1674.54 69.3758 Q1671.26 66.1351 1671.26 57.6282 L1671.26 32.9987 L1665.79 32.9987 L1665.79 27.2059 L1671.26 27.2059 L1671.26 14.324 L1678.75 14.324 Z" fill="#000000" fill-rule="nonzero" fill-opacity="1" /><path clip-path="url(#clip410)" d="M1724.53 49.7694 Q1715.49 49.7694 1712.01 51.8354 Q1708.53 53.9013 1708.53 58.8839 Q1708.53 62.8538 1711.12 65.2034 Q1713.75 67.5124 1718.25 67.5124 Q1724.45 67.5124 1728.17 63.1374 Q1731.94 58.7219 1731.94 51.4303 L1731.94 49.7694 L1724.53 49.7694 M1739.39 46.6907 L1739.39 72.576 L1731.94 72.576 L1731.94 65.6895 Q1729.39 69.8214 1725.58 71.8063 Q1721.77 73.7508 1716.26 73.7508 Q1709.29 73.7508 1705.16 69.8619 Q1701.07 65.9325 1701.07 59.3701 Q1701.07 51.7138 1706.18 47.825 Q1711.32 43.9361 1721.49 43.9361 L1731.94 43.9361 L1731.94 43.2069 Q1731.94 38.0623 1728.54 35.2672 Q1725.17 32.4315 1719.06 32.4315 Q1715.17 32.4315 1711.48 33.3632 Q1707.8 34.295 1704.39 36.1584 L1704.39 29.2718 Q1708.48 27.692 1712.33 26.9223 Q1716.18 26.1121 1719.83 26.1121 Q1729.67 26.1121 1734.53 31.2163 Q1739.39 36.3204 1739.39 46.6907 Z" fill="#000000" fill-rule="nonzero" fill-opacity="1" /><path clip-path="url(#clip410)" d="M1787.32 49.9314 Q1787.32 41.7081 1783.91 37.0496 Q1780.55 32.3505 1774.64 32.3505 Q1768.72 32.3505 1765.32 37.0496 Q1761.96 41.7081 1761.96 49.9314 Q1761.96 58.1548 1765.32 62.8538 Q1768.72 67.5124 1774.64 67.5124 Q1780.55 67.5124 1783.91 62.8538 Q1787.32 58.1548 1787.32 49.9314 M1761.96 34.0924 Q1764.31 30.0415 1767.87 28.0971 Q1771.48 26.1121 1776.46 26.1121 Q1784.72 26.1121 1789.87 32.6746 Q1795.05 39.2371 1795.05 49.9314 Q1795.05 60.6258 1789.87 67.1883 Q1784.72 73.7508 1776.46 73.7508 Q1771.48 73.7508 1767.87 71.8063 Q1764.31 69.8214 1761.96 65.7705 L1761.96 72.576 L1754.46 72.576 L1754.46 9.54393 L1761.96 9.54393 L1761.96 34.0924 Z" fill="#000000" fill-rule="nonzero" fill-opacity="1" /><path clip-path="url(#clip410)" d="M1807.41 27.2059 L1814.86 27.2059 L1814.86 72.576 L1807.41 72.576 L1807.41 27.2059 M1807.41 9.54393 L1814.86 9.54393 L1814.86 18.9825 L1807.41 18.9825 L1807.41 9.54393 Z" fill="#000000" fill-rule="nonzero" fill-opacity="1" /><path clip-path="url(#clip410)" d="M1830.46 9.54393 L1837.91 9.54393 L1837.91 72.576 L1830.46 72.576 L1830.46 9.54393 Z" fill="#000000" fill-rule="nonzero" fill-opacity="1" /><path clip-path="url(#clip410)" d="M1853.51 27.2059 L1860.96 27.2059 L1860.96 72.576 L1853.51 72.576 L1853.51 27.2059 M1853.51 9.54393 L1860.96 9.54393 L1860.96 18.9825 L1853.51 18.9825 L1853.51 9.54393 Z" fill="#000000" fill-rule="nonzero" fill-opacity="1" /><path clip-path="url(#clip410)" d="M1883.93 14.324 L1883.93 27.2059 L1899.28 27.2059 L1899.28 32.9987 L1883.93 32.9987 L1883.93 57.6282 Q1883.93 63.1779 1885.43 64.7578 Q1886.97 66.3376 1891.63 66.3376 L1899.28 66.3376 L1899.28 72.576 L1891.63 72.576 Q1883 72.576 1879.72 69.3758 Q1876.44 66.1351 1876.44 57.6282 L1876.44 32.9987 L1870.97 32.9987 L1870.97 27.2059 L1876.44 27.2059 L1876.44 14.324 L1883.93 14.324 Z" fill="#000000" fill-rule="nonzero" fill-opacity="1" /><path clip-path="url(#clip410)" d="M1927.96 76.7889 Q1924.8 84.8907 1921.81 87.3618 Q1918.81 89.8329 1913.78 89.8329 L1907.83 89.8329 L1907.83 83.5945 L1912.2 83.5945 Q1915.28 83.5945 1916.98 82.1361 Q1918.69 80.6778 1920.75 75.2496 L1922.09 71.8468 L1903.74 27.2059 L1911.64 27.2059 L1925.82 62.6918 L1939.99 27.2059 L1947.89 27.2059 L1927.96 76.7889 Z" fill="#000000" fill-rule="nonzero" fill-opacity="1" /><polyline clip-path="url(#clip412)" style="stroke:#009af9; stroke-linecap:round; stroke-linejoin:round; stroke-width:4; stroke-opacity:1; fill:none" points="1395.11,1386.4 1510.52,1321.86 1583.48,1257.33 1637.85,1192.79 1681.58,1128.26 1718.36,1063.73 1750.2,999.194 1778.36,934.66 1803.64,870.126 1826.62,805.593 1847.7,741.059 1867.19,676.526 1885.34,611.992 1902.33,547.458 1918.31,482.925 1933.4,418.391 1947.7,353.857 1961.3,289.324 1974.26,224.79 1986.65,160.256 "/>
<polyline clip-path="url(#clip412)" style="stroke:#e26f46; stroke-linecap:round; stroke-linejoin:round; stroke-width:4; stroke-opacity:1; fill:none" points="1374.75,1386.4 1494.77,1321.86 1570.98,1257.33 1627.93,1192.79 1673.83,1128.26 1712.49,1063.73 1746.01,999.194 1775.69,934.66 1802.36,870.126 1826.62,805.593 1848.89,741.059 1869.51,676.526 1888.72,611.992 1906.71,547.458 1923.64,482.925 1939.63,418.391 1954.8,353.857 1969.22,289.324 1982.98,224.79 1996.14,160.256 "/>
<polyline clip-path="url(#clip412)" style="stroke:#3da44d; stroke-linecap:round; stroke-linejoin:round; stroke-width:4; stroke-opacity:1; fill:none" points="1149.47,1386.4 1314.09,1321.86 1424.47,1257.33 1509.86,1192.79 1580.45,1128.26 1641.13,1063.73 1694.63,999.194 1742.67,934.66 1786.39,870.126 1826.62,805.593 1863.92,741.059 1898.77,676.526 1931.5,611.992 1962.39,547.458 1991.67,482.925 2019.52,418.391 2046.1,353.857 2071.52,289.324 2095.91,224.79 2119.36,160.256 "/>
<polyline clip-path="url(#clip412)" style="stroke:#c271d2; stroke-linecap:round; stroke-linejoin:round; stroke-width:4; stroke-opacity:1; fill:none" points="1149.47,1386.4 1314.09,1321.86 1424.47,1257.33 1509.86,1192.79 1580.45,1128.26 1641.13,1063.73 1694.63,999.194 1742.67,934.66 1786.39,870.126 1826.62,805.593 1863.92,741.059 1898.77,676.526 1931.5,611.992 1962.39,547.458 1991.67,482.925 2019.52,418.391 2046.1,353.857 2071.52,289.324 2095.91,224.79 2119.36,160.256 "/>
<polyline clip-path="url(#clip412)" style="stroke:#ac8d18; stroke-linecap:round; stroke-linejoin:round; stroke-width:4; stroke-opacity:1; fill:none" points="1053.02,1386.4 1285.89,1321.86 1422.12,1257.33 1518.77,1192.79 1593.74,1128.26 1654.99,1063.73 1706.78,999.194 1751.65,934.66 1791.22,870.126 1826.62,805.593 1858.64,741.059 1887.87,676.526 1914.76,611.992 1939.66,547.458 1962.84,482.925 1984.52,418.391 2004.89,353.857 2024.09,289.324 2042.26,224.79 2059.49,160.256 "/>
<polyline clip-path="url(#clip412)" style="stroke:#00a9ad; stroke-linecap:round; stroke-linejoin:round; stroke-width:4; stroke-opacity:1; fill:none" points="279.421,1386.4 745.173,1321.86 1017.62,1257.33 1210.93,1192.79 1360.86,1128.26 1483.37,1063.73 1586.95,999.194 1676.68,934.66 1755.82,870.126 1826.62,805.593 1890.66,741.059 1949.12,676.526 2002.91,611.992 2052.7,547.458 2099.06,482.925 2142.43,418.391 2183.16,353.857 2221.57,289.324 2257.9,224.79 2292.37,160.256 "/>
<path clip-path="url(#clip410)" d="M290.157 529.676 L838.18 529.676 L838.18 166.796 L290.157 166.796  Z" fill="#ffffff" fill-rule="evenodd" fill-opacity="1"/>
<polyline clip-path="url(#clip410)" style="stroke:#000000; stroke-linecap:round; stroke-linejoin:round; stroke-width:4; stroke-opacity:1; fill:none" points="290.157,529.676 838.18,529.676 838.18,166.796 290.157,166.796 290.157,529.676 "/>
<polyline clip-path="url(#clip410)" style="stroke:#009af9; stroke-linecap:round; stroke-linejoin:round; stroke-width:4; stroke-opacity:1; fill:none" points="313.865,218.636 456.113,218.636 "/>
<path clip-path="url(#clip410)" d="M484.497 205.198 L484.497 232.073 L490.145 232.073 Q497.298 232.073 500.608 228.832 Q503.942 225.592 503.942 218.601 Q503.942 211.657 500.608 208.439 Q497.298 205.198 490.145 205.198 L484.497 205.198 M479.821 201.356 L489.428 201.356 Q499.474 201.356 504.173 205.546 Q508.872 209.712 508.872 218.601 Q508.872 227.536 504.15 231.726 Q499.428 235.916 489.428 235.916 L479.821 235.916 L479.821 201.356 Z" fill="#000000" fill-rule="nonzero" fill-opacity="1" /><path clip-path="url(#clip410)" d="M538.316 221.888 L538.316 223.971 L518.733 223.971 Q519.011 228.369 521.372 230.684 Q523.756 232.976 527.992 232.976 Q530.446 232.976 532.738 232.374 Q535.052 231.772 537.321 230.569 L537.321 234.596 Q535.029 235.568 532.622 236.078 Q530.215 236.587 527.738 236.587 Q521.534 236.587 517.9 232.976 Q514.289 229.365 514.289 223.207 Q514.289 216.842 517.715 213.115 Q521.164 209.365 526.997 209.365 Q532.228 209.365 535.261 212.745 Q538.316 216.101 538.316 221.888 M534.057 220.638 Q534.011 217.143 532.09 215.059 Q530.191 212.976 527.043 212.976 Q523.478 212.976 521.326 214.99 Q519.196 217.004 518.872 220.661 L534.057 220.638 Z" fill="#000000" fill-rule="nonzero" fill-opacity="1" /><path clip-path="url(#clip410)" d="M558.432 199.897 L558.432 203.439 L554.358 203.439 Q552.066 203.439 551.164 204.365 Q550.284 205.291 550.284 207.698 L550.284 209.99 L557.298 209.99 L557.298 213.3 L550.284 213.3 L550.284 235.916 L546.002 235.916 L546.002 213.3 L541.927 213.3 L541.927 209.99 L546.002 209.99 L546.002 208.184 Q546.002 203.856 548.015 201.888 Q550.029 199.897 554.404 199.897 L558.432 199.897 Z" fill="#000000" fill-rule="nonzero" fill-opacity="1" /><path clip-path="url(#clip410)" d="M573.779 222.883 Q568.617 222.883 566.626 224.064 Q564.636 225.244 564.636 228.092 Q564.636 230.36 566.117 231.703 Q567.622 233.022 570.191 233.022 Q573.733 233.022 575.862 230.522 Q578.015 227.999 578.015 223.832 L578.015 222.883 L573.779 222.883 M582.274 221.124 L582.274 235.916 L578.015 235.916 L578.015 231.981 Q576.557 234.342 574.381 235.476 Q572.205 236.587 569.057 236.587 Q565.075 236.587 562.714 234.365 Q560.376 232.119 560.376 228.369 Q560.376 223.994 563.293 221.772 Q566.233 219.55 572.043 219.55 L578.015 219.55 L578.015 219.133 Q578.015 216.194 576.071 214.596 Q574.149 212.976 570.654 212.976 Q568.432 212.976 566.325 213.508 Q564.219 214.041 562.275 215.106 L562.275 211.17 Q564.613 210.268 566.812 209.828 Q569.011 209.365 571.094 209.365 Q576.719 209.365 579.497 212.282 Q582.274 215.198 582.274 221.124 Z" fill="#000000" fill-rule="nonzero" fill-opacity="1" /><path clip-path="url(#clip410)" d="M590.608 225.684 L590.608 209.99 L594.867 209.99 L594.867 225.522 Q594.867 229.203 596.302 231.055 Q597.737 232.883 600.608 232.883 Q604.057 232.883 606.047 230.684 Q608.061 228.485 608.061 224.689 L608.061 209.99 L612.321 209.99 L612.321 235.916 L608.061 235.916 L608.061 231.934 Q606.51 234.295 604.45 235.453 Q602.413 236.587 599.705 236.587 Q595.237 236.587 592.923 233.809 Q590.608 231.031 590.608 225.684 M601.325 209.365 L601.325 209.365 Z" fill="#000000" fill-rule="nonzero" fill-opacity="1" /><path clip-path="url(#clip410)" d="M621.094 199.897 L625.353 199.897 L625.353 235.916 L621.094 235.916 L621.094 199.897 Z" fill="#000000" fill-rule="nonzero" fill-opacity="1" /><path clip-path="url(#clip410)" d="M638.478 202.629 L638.478 209.99 L647.251 209.99 L647.251 213.3 L638.478 213.3 L638.478 227.374 Q638.478 230.545 639.334 231.448 Q640.214 232.351 642.876 232.351 L647.251 232.351 L647.251 235.916 L642.876 235.916 Q637.945 235.916 636.07 234.087 Q634.195 232.235 634.195 227.374 L634.195 213.3 L631.07 213.3 L631.07 209.99 L634.195 209.99 L634.195 202.629 L638.478 202.629 Z" fill="#000000" fill-rule="nonzero" fill-opacity="1" /><polyline clip-path="url(#clip410)" style="stroke:#e26f46; stroke-linecap:round; stroke-linejoin:round; stroke-width:4; stroke-opacity:1; fill:none" points="313.865,270.476 456.113,270.476 "/>
<path clip-path="url(#clip410)" d="M479.821 253.196 L484.497 253.196 L484.497 287.756 L479.821 287.756 L479.821 253.196 Z" fill="#000000" fill-rule="nonzero" fill-opacity="1" /><path clip-path="url(#clip410)" d="M508.641 265.811 Q507.923 265.395 507.067 265.21 Q506.233 265.001 505.215 265.001 Q501.604 265.001 499.659 267.362 Q497.738 269.7 497.738 274.098 L497.738 287.756 L493.455 287.756 L493.455 261.83 L497.738 261.83 L497.738 265.858 Q499.08 263.497 501.233 262.362 Q503.386 261.205 506.465 261.205 Q506.904 261.205 507.437 261.274 Q507.969 261.321 508.617 261.436 L508.641 265.811 Z" fill="#000000" fill-rule="nonzero" fill-opacity="1" /><path clip-path="url(#clip410)" d="M510.631 261.83 L514.891 261.83 L520.215 282.061 L525.515 261.83 L530.539 261.83 L535.863 282.061 L541.164 261.83 L545.423 261.83 L538.64 287.756 L533.617 287.756 L528.039 266.506 L522.437 287.756 L517.414 287.756 L510.631 261.83 Z" fill="#000000" fill-rule="nonzero" fill-opacity="1" /><path clip-path="url(#clip410)" d="M551.881 261.83 L556.14 261.83 L556.14 287.756 L551.881 287.756 L551.881 261.83 M551.881 251.737 L556.14 251.737 L556.14 257.131 L551.881 257.131 L551.881 251.737 Z" fill="#000000" fill-rule="nonzero" fill-opacity="1" /><path clip-path="url(#clip410)" d="M586.603 272.108 L586.603 287.756 L582.344 287.756 L582.344 272.247 Q582.344 268.566 580.909 266.737 Q579.474 264.909 576.603 264.909 Q573.154 264.909 571.163 267.108 Q569.173 269.307 569.173 273.103 L569.173 287.756 L564.89 287.756 L564.89 261.83 L569.173 261.83 L569.173 265.858 Q570.7 263.52 572.761 262.362 Q574.844 261.205 577.552 261.205 Q582.02 261.205 584.311 263.983 Q586.603 266.737 586.603 272.108 Z" fill="#000000" fill-rule="nonzero" fill-opacity="1" /><path clip-path="url(#clip410)" d="M626.742 271.552 Q628.246 272.061 629.658 273.728 Q631.094 275.395 632.529 278.311 L637.274 287.756 L632.251 287.756 L627.83 278.89 Q626.117 275.418 624.496 274.284 Q622.899 273.149 620.121 273.149 L615.029 273.149 L615.029 287.756 L610.353 287.756 L610.353 253.196 L620.909 253.196 Q626.834 253.196 629.751 255.673 Q632.668 258.149 632.668 263.149 Q632.668 266.413 631.14 268.566 Q629.635 270.719 626.742 271.552 M615.029 257.038 L615.029 269.307 L620.909 269.307 Q624.288 269.307 626.001 267.756 Q627.737 266.182 627.737 263.149 Q627.737 260.117 626.001 258.589 Q624.288 257.038 620.909 257.038 L615.029 257.038 Z" fill="#000000" fill-rule="nonzero" fill-opacity="1" /><path clip-path="url(#clip410)" d="M640.538 277.524 L640.538 261.83 L644.797 261.83 L644.797 277.362 Q644.797 281.043 646.232 282.895 Q647.668 284.723 650.538 284.723 Q653.987 284.723 655.978 282.524 Q657.992 280.325 657.992 276.529 L657.992 261.83 L662.251 261.83 L662.251 287.756 L657.992 287.756 L657.992 283.774 Q656.441 286.135 654.381 287.293 Q652.344 288.427 649.635 288.427 Q645.168 288.427 642.853 285.649 Q640.538 282.871 640.538 277.524 M651.256 261.205 L651.256 261.205 Z" fill="#000000" fill-rule="nonzero" fill-opacity="1" /><path clip-path="url(#clip410)" d="M686.047 265.811 Q685.329 265.395 684.473 265.21 Q683.64 265.001 682.621 265.001 Q679.01 265.001 677.066 267.362 Q675.144 269.7 675.144 274.098 L675.144 287.756 L670.862 287.756 L670.862 261.83 L675.144 261.83 L675.144 265.858 Q676.487 263.497 678.64 262.362 Q680.792 261.205 683.871 261.205 Q684.311 261.205 684.843 261.274 Q685.376 261.321 686.024 261.436 L686.047 265.811 Z" fill="#000000" fill-rule="nonzero" fill-opacity="1" /><path clip-path="url(#clip410)" d="M702.297 274.723 Q697.135 274.723 695.144 275.904 Q693.153 277.084 693.153 279.932 Q693.153 282.2 694.635 283.543 Q696.14 284.862 698.709 284.862 Q702.251 284.862 704.38 282.362 Q706.533 279.839 706.533 275.672 L706.533 274.723 L702.297 274.723 M710.792 272.964 L710.792 287.756 L706.533 287.756 L706.533 283.821 Q705.075 286.182 702.899 287.316 Q700.723 288.427 697.575 288.427 Q693.593 288.427 691.232 286.205 Q688.894 283.959 688.894 280.209 Q688.894 275.834 691.811 273.612 Q694.751 271.39 700.561 271.39 L706.533 271.39 L706.533 270.973 Q706.533 268.034 704.589 266.436 Q702.667 264.816 699.172 264.816 Q696.95 264.816 694.843 265.348 Q692.737 265.881 690.792 266.946 L690.792 263.01 Q693.13 262.108 695.329 261.668 Q697.528 261.205 699.612 261.205 Q705.237 261.205 708.015 264.122 Q710.792 267.038 710.792 272.964 Z" fill="#000000" fill-rule="nonzero" fill-opacity="1" /><path clip-path="url(#clip410)" d="M719.565 251.737 L723.825 251.737 L723.825 287.756 L719.565 287.756 L719.565 251.737 Z" fill="#000000" fill-rule="nonzero" fill-opacity="1" /><polyline clip-path="url(#clip410)" style="stroke:#3da44d; stroke-linecap:round; stroke-linejoin:round; stroke-width:4; stroke-opacity:1; fill:none" points="313.865,322.316 456.113,322.316 "/>
<path clip-path="url(#clip410)" d="M479.821 305.036 L484.497 305.036 L484.497 339.596 L479.821 339.596 L479.821 305.036 Z" fill="#000000" fill-rule="nonzero" fill-opacity="1" /><path clip-path="url(#clip410)" d="M508.641 317.651 Q507.923 317.235 507.067 317.05 Q506.233 316.841 505.215 316.841 Q501.604 316.841 499.659 319.202 Q497.738 321.54 497.738 325.938 L497.738 339.596 L493.455 339.596 L493.455 313.67 L497.738 313.67 L497.738 317.698 Q499.08 315.337 501.233 314.202 Q503.386 313.045 506.465 313.045 Q506.904 313.045 507.437 313.114 Q507.969 313.161 508.617 313.276 L508.641 317.651 Z" fill="#000000" fill-rule="nonzero" fill-opacity="1" /><path clip-path="url(#clip410)" d="M510.631 313.67 L514.891 313.67 L520.215 333.901 L525.515 313.67 L530.539 313.67 L535.863 333.901 L541.164 313.67 L545.423 313.67 L538.64 339.596 L533.617 339.596 L528.039 318.346 L522.437 339.596 L517.414 339.596 L510.631 313.67 Z" fill="#000000" fill-rule="nonzero" fill-opacity="1" /><path clip-path="url(#clip410)" d="M551.881 313.67 L556.14 313.67 L556.14 339.596 L551.881 339.596 L551.881 313.67 M551.881 303.577 L556.14 303.577 L556.14 308.971 L551.881 308.971 L551.881 303.577 Z" fill="#000000" fill-rule="nonzero" fill-opacity="1" /><path clip-path="url(#clip410)" d="M586.603 323.948 L586.603 339.596 L582.344 339.596 L582.344 324.087 Q582.344 320.406 580.909 318.577 Q579.474 316.749 576.603 316.749 Q573.154 316.749 571.163 318.948 Q569.173 321.147 569.173 324.943 L569.173 339.596 L564.89 339.596 L564.89 313.67 L569.173 313.67 L569.173 317.698 Q570.7 315.36 572.761 314.202 Q574.844 313.045 577.552 313.045 Q582.02 313.045 584.311 315.823 Q586.603 318.577 586.603 323.948 Z" fill="#000000" fill-rule="nonzero" fill-opacity="1" /><path clip-path="url(#clip410)" d="M609.821 305.036 L614.52 305.036 L614.52 326.031 Q614.52 331.587 616.534 334.04 Q618.547 336.471 623.061 336.471 Q627.552 336.471 629.566 334.04 Q631.58 331.587 631.58 326.031 L631.58 305.036 L636.279 305.036 L636.279 326.61 Q636.279 333.369 632.922 336.818 Q629.589 340.267 623.061 340.267 Q616.51 340.267 613.154 336.818 Q609.821 333.369 609.821 326.61 L609.821 305.036 Z" fill="#000000" fill-rule="nonzero" fill-opacity="1" /><path clip-path="url(#clip410)" d="M659.89 317.651 Q659.172 317.235 658.316 317.05 Q657.482 316.841 656.464 316.841 Q652.853 316.841 650.908 319.202 Q648.987 321.54 648.987 325.938 L648.987 339.596 L644.705 339.596 L644.705 313.67 L648.987 313.67 L648.987 317.698 Q650.33 315.337 652.482 314.202 Q654.635 313.045 657.714 313.045 Q658.154 313.045 658.686 313.114 Q659.218 313.161 659.867 313.276 L659.89 317.651 Z" fill="#000000" fill-rule="nonzero" fill-opacity="1" /><path clip-path="url(#clip410)" d="M682.968 326.656 Q682.968 321.957 681.024 319.295 Q679.103 316.61 675.723 316.61 Q672.343 316.61 670.399 319.295 Q668.478 321.957 668.478 326.656 Q668.478 331.355 670.399 334.04 Q672.343 336.702 675.723 336.702 Q679.103 336.702 681.024 334.04 Q682.968 331.355 682.968 326.656 M668.478 317.605 Q669.82 315.29 671.857 314.179 Q673.917 313.045 676.765 313.045 Q681.487 313.045 684.427 316.795 Q687.39 320.545 687.39 326.656 Q687.39 332.767 684.427 336.517 Q681.487 340.267 676.765 340.267 Q673.917 340.267 671.857 339.156 Q669.82 338.022 668.478 335.707 L668.478 339.596 L664.195 339.596 L664.195 303.577 L668.478 303.577 L668.478 317.605 Z" fill="#000000" fill-rule="nonzero" fill-opacity="1" /><path clip-path="url(#clip410)" d="M706.232 326.563 Q701.07 326.563 699.079 327.744 Q697.089 328.924 697.089 331.772 Q697.089 334.04 698.57 335.383 Q700.075 336.702 702.644 336.702 Q706.186 336.702 708.315 334.202 Q710.468 331.679 710.468 327.512 L710.468 326.563 L706.232 326.563 M714.727 324.804 L714.727 339.596 L710.468 339.596 L710.468 335.661 Q709.01 338.022 706.834 339.156 Q704.658 340.267 701.51 340.267 Q697.528 340.267 695.167 338.045 Q692.829 335.799 692.829 332.049 Q692.829 327.674 695.746 325.452 Q698.686 323.23 704.496 323.23 L710.468 323.23 L710.468 322.813 Q710.468 319.874 708.524 318.276 Q706.602 316.656 703.107 316.656 Q700.885 316.656 698.778 317.188 Q696.672 317.721 694.728 318.786 L694.728 314.85 Q697.066 313.948 699.265 313.508 Q701.464 313.045 703.547 313.045 Q709.172 313.045 711.95 315.962 Q714.727 318.878 714.727 324.804 Z" fill="#000000" fill-rule="nonzero" fill-opacity="1" /><path clip-path="url(#clip410)" d="M745.051 323.948 L745.051 339.596 L740.792 339.596 L740.792 324.087 Q740.792 320.406 739.357 318.577 Q737.922 316.749 735.051 316.749 Q731.602 316.749 729.612 318.948 Q727.621 321.147 727.621 324.943 L727.621 339.596 L723.339 339.596 L723.339 313.67 L727.621 313.67 L727.621 317.698 Q729.149 315.36 731.209 314.202 Q733.292 313.045 736 313.045 Q740.468 313.045 742.76 315.823 Q745.051 318.577 745.051 323.948 Z" fill="#000000" fill-rule="nonzero" fill-opacity="1" /><polyline clip-path="url(#clip410)" style="stroke:#c271d2; stroke-linecap:round; stroke-linejoin:round; stroke-width:4; stroke-opacity:1; fill:none" points="313.865,374.156 456.113,374.156 "/>
<path clip-path="url(#clip410)" d="M479.821 356.876 L484.497 356.876 L484.497 391.436 L479.821 391.436 L479.821 356.876 Z" fill="#000000" fill-rule="nonzero" fill-opacity="1" /><path clip-path="url(#clip410)" d="M514.52 358.01 L514.52 362.57 Q511.858 361.297 509.497 360.672 Q507.136 360.047 504.937 360.047 Q501.117 360.047 499.034 361.528 Q496.974 363.01 496.974 365.741 Q496.974 368.033 498.34 369.214 Q499.729 370.371 503.571 371.089 L506.395 371.667 Q511.627 372.663 514.104 375.186 Q516.604 377.686 516.604 381.899 Q516.604 386.922 513.224 389.514 Q509.867 392.107 503.363 392.107 Q500.909 392.107 498.131 391.551 Q495.377 390.996 492.414 389.908 L492.414 385.093 Q495.261 386.69 497.992 387.501 Q500.724 388.311 503.363 388.311 Q507.367 388.311 509.543 386.737 Q511.719 385.163 511.719 382.246 Q511.719 379.7 510.145 378.264 Q508.594 376.829 505.029 376.112 L502.182 375.556 Q496.951 374.515 494.613 372.292 Q492.275 370.07 492.275 366.112 Q492.275 361.528 495.493 358.89 Q498.733 356.251 504.405 356.251 Q506.835 356.251 509.358 356.691 Q511.881 357.13 514.52 358.01 Z" fill="#000000" fill-rule="nonzero" fill-opacity="1" /><path clip-path="url(#clip410)" d="M549.775 359.538 L549.775 364.468 Q547.414 362.269 544.728 361.181 Q542.066 360.093 539.057 360.093 Q533.131 360.093 529.983 363.728 Q526.835 367.339 526.835 374.19 Q526.835 381.019 529.983 384.653 Q533.131 388.264 539.057 388.264 Q542.066 388.264 544.728 387.176 Q547.414 386.089 549.775 383.889 L549.775 388.774 Q547.321 390.44 544.566 391.274 Q541.835 392.107 538.779 392.107 Q530.932 392.107 526.418 387.315 Q521.904 382.501 521.904 374.19 Q521.904 365.857 526.418 361.066 Q530.932 356.251 538.779 356.251 Q541.881 356.251 544.613 357.084 Q547.367 357.894 549.775 359.538 Z" fill="#000000" fill-rule="nonzero" fill-opacity="1" /><path clip-path="url(#clip410)" d="M571.58 372.802 Q574.937 373.519 576.812 375.788 Q578.71 378.056 578.71 381.389 Q578.71 386.505 575.191 389.306 Q571.673 392.107 565.191 392.107 Q563.015 392.107 560.7 391.667 Q558.409 391.251 555.955 390.394 L555.955 385.88 Q557.9 387.014 560.214 387.593 Q562.529 388.172 565.052 388.172 Q569.45 388.172 571.742 386.436 Q574.057 384.7 574.057 381.389 Q574.057 378.334 571.904 376.621 Q569.775 374.885 565.955 374.885 L561.927 374.885 L561.927 371.042 L566.14 371.042 Q569.589 371.042 571.418 369.677 Q573.247 368.288 573.247 365.695 Q573.247 363.033 571.349 361.621 Q569.474 360.186 565.955 360.186 Q564.034 360.186 561.835 360.603 Q559.636 361.019 556.997 361.899 L556.997 357.732 Q559.659 356.991 561.974 356.621 Q564.312 356.251 566.372 356.251 Q571.696 356.251 574.798 358.681 Q577.899 361.089 577.899 365.209 Q577.899 368.079 576.256 370.07 Q574.612 372.038 571.58 372.802 Z" fill="#000000" fill-rule="nonzero" fill-opacity="1" /><path clip-path="url(#clip410)" d="M601.696 356.876 L606.395 356.876 L606.395 377.871 Q606.395 383.427 608.409 385.88 Q610.422 388.311 614.936 388.311 Q619.427 388.311 621.441 385.88 Q623.455 383.427 623.455 377.871 L623.455 356.876 L628.154 356.876 L628.154 378.45 Q628.154 385.209 624.797 388.658 Q621.464 392.107 614.936 392.107 Q608.385 392.107 605.029 388.658 Q601.696 385.209 601.696 378.45 L601.696 356.876 Z" fill="#000000" fill-rule="nonzero" fill-opacity="1" /><path clip-path="url(#clip410)" d="M651.765 369.491 Q651.047 369.075 650.191 368.89 Q649.357 368.681 648.339 368.681 Q644.728 368.681 642.783 371.042 Q640.862 373.38 640.862 377.778 L640.862 391.436 L636.58 391.436 L636.58 365.51 L640.862 365.51 L640.862 369.538 Q642.205 367.177 644.357 366.042 Q646.51 364.885 649.589 364.885 Q650.029 364.885 650.561 364.954 Q651.094 365.001 651.742 365.116 L651.765 369.491 Z" fill="#000000" fill-rule="nonzero" fill-opacity="1" /><path clip-path="url(#clip410)" d="M674.843 378.496 Q674.843 373.797 672.899 371.135 Q670.978 368.45 667.598 368.45 Q664.218 368.45 662.274 371.135 Q660.353 373.797 660.353 378.496 Q660.353 383.195 662.274 385.88 Q664.218 388.542 667.598 388.542 Q670.978 388.542 672.899 385.88 Q674.843 383.195 674.843 378.496 M660.353 369.445 Q661.695 367.13 663.732 366.019 Q665.793 364.885 668.64 364.885 Q673.362 364.885 676.302 368.635 Q679.265 372.385 679.265 378.496 Q679.265 384.607 676.302 388.357 Q673.362 392.107 668.64 392.107 Q665.793 392.107 663.732 390.996 Q661.695 389.862 660.353 387.547 L660.353 391.436 L656.07 391.436 L656.07 355.417 L660.353 355.417 L660.353 369.445 Z" fill="#000000" fill-rule="nonzero" fill-opacity="1" /><path clip-path="url(#clip410)" d="M698.107 378.403 Q692.945 378.403 690.954 379.584 Q688.964 380.764 688.964 383.612 Q688.964 385.88 690.445 387.223 Q691.95 388.542 694.519 388.542 Q698.061 388.542 700.19 386.042 Q702.343 383.519 702.343 379.352 L702.343 378.403 L698.107 378.403 M706.602 376.644 L706.602 391.436 L702.343 391.436 L702.343 387.501 Q700.885 389.862 698.709 390.996 Q696.533 392.107 693.385 392.107 Q689.404 392.107 687.042 389.885 Q684.704 387.639 684.704 383.889 Q684.704 379.514 687.621 377.292 Q690.561 375.07 696.371 375.07 L702.343 375.07 L702.343 374.653 Q702.343 371.714 700.399 370.116 Q698.478 368.496 694.982 368.496 Q692.76 368.496 690.654 369.028 Q688.547 369.561 686.603 370.626 L686.603 366.69 Q688.941 365.788 691.14 365.348 Q693.339 364.885 695.422 364.885 Q701.047 364.885 703.825 367.802 Q706.602 370.718 706.602 376.644 Z" fill="#000000" fill-rule="nonzero" fill-opacity="1" /><path clip-path="url(#clip410)" d="M736.926 375.788 L736.926 391.436 L732.667 391.436 L732.667 375.927 Q732.667 372.246 731.232 370.417 Q729.797 368.589 726.926 368.589 Q723.477 368.589 721.487 370.788 Q719.496 372.987 719.496 376.783 L719.496 391.436 L715.214 391.436 L715.214 365.51 L719.496 365.51 L719.496 369.538 Q721.024 367.2 723.084 366.042 Q725.167 364.885 727.876 364.885 Q732.343 364.885 734.635 367.663 Q736.926 370.417 736.926 375.788 Z" fill="#000000" fill-rule="nonzero" fill-opacity="1" /><polyline clip-path="url(#clip410)" style="stroke:#ac8d18; stroke-linecap:round; stroke-linejoin:round; stroke-width:4; stroke-opacity:1; fill:none" points="313.865,425.996 456.113,425.996 "/>
<path clip-path="url(#clip410)" d="M479.821 408.716 L509.057 408.716 L509.057 412.651 L496.789 412.651 L496.789 443.276 L492.09 443.276 L492.09 412.651 L479.821 412.651 L479.821 408.716 Z" fill="#000000" fill-rule="nonzero" fill-opacity="1" /><path clip-path="url(#clip410)" d="M513.571 408.716 L519.867 408.716 L535.191 437.628 L535.191 408.716 L539.728 408.716 L539.728 443.276 L533.432 443.276 L518.108 414.364 L518.108 443.276 L513.571 443.276 L513.571 408.716 Z" fill="#000000" fill-rule="nonzero" fill-opacity="1" /><path clip-path="url(#clip410)" d="M563.062 411.887 Q557.969 411.887 554.96 415.683 Q551.974 419.48 551.974 426.03 Q551.974 432.558 554.96 436.354 Q557.969 440.151 563.062 440.151 Q568.154 440.151 571.117 436.354 Q574.103 432.558 574.103 426.03 Q574.103 419.48 571.117 415.683 Q568.154 411.887 563.062 411.887 M563.062 408.091 Q570.33 408.091 574.682 412.975 Q579.034 417.836 579.034 426.03 Q579.034 434.202 574.682 439.086 Q570.33 443.947 563.062 443.947 Q555.77 443.947 551.395 439.086 Q547.043 434.225 547.043 426.03 Q547.043 417.836 551.395 412.975 Q555.77 408.091 563.062 408.091 Z" fill="#000000" fill-rule="nonzero" fill-opacity="1" /><polyline clip-path="url(#clip410)" style="stroke:#00a9ad; stroke-linecap:round; stroke-linejoin:round; stroke-width:4; stroke-opacity:1; fill:none" points="313.865,477.836 456.113,477.836 "/>
<path clip-path="url(#clip410)" d="M484.497 478.611 L484.497 491.273 L491.997 491.273 Q495.77 491.273 497.576 489.722 Q499.405 488.148 499.405 484.931 Q499.405 481.69 497.576 480.162 Q495.77 478.611 491.997 478.611 L484.497 478.611 M484.497 464.398 L484.497 474.815 L491.418 474.815 Q494.844 474.815 496.511 473.542 Q498.201 472.245 498.201 469.607 Q498.201 466.991 496.511 465.695 Q494.844 464.398 491.418 464.398 L484.497 464.398 M479.821 460.556 L491.766 460.556 Q497.113 460.556 500.006 462.778 Q502.9 465 502.9 469.097 Q502.9 472.269 501.418 474.144 Q499.937 476.019 497.067 476.482 Q500.516 477.222 502.414 479.583 Q504.335 481.921 504.335 485.44 Q504.335 490.069 501.187 492.593 Q498.039 495.116 492.229 495.116 L479.821 495.116 L479.821 460.556 Z" fill="#000000" fill-rule="nonzero" fill-opacity="1" /><path clip-path="url(#clip410)" d="M511.719 484.884 L511.719 469.19 L515.979 469.19 L515.979 484.722 Q515.979 488.403 517.414 490.255 Q518.849 492.083 521.719 492.083 Q525.168 492.083 527.159 489.884 Q529.173 487.685 529.173 483.889 L529.173 469.19 L533.432 469.19 L533.432 495.116 L529.173 495.116 L529.173 491.134 Q527.622 493.495 525.562 494.653 Q523.525 495.787 520.816 495.787 Q516.349 495.787 514.034 493.009 Q511.719 490.231 511.719 484.884 M522.437 468.565 L522.437 468.565 Z" fill="#000000" fill-rule="nonzero" fill-opacity="1" /><path clip-path="url(#clip410)" d="M558.733 469.954 L558.733 473.982 Q556.927 473.056 554.983 472.593 Q553.039 472.13 550.955 472.13 Q547.784 472.13 546.187 473.102 Q544.613 474.074 544.613 476.019 Q544.613 477.5 545.747 478.357 Q546.881 479.19 550.307 479.954 L551.765 480.278 Q556.302 481.25 558.201 483.032 Q560.122 484.792 560.122 487.963 Q560.122 491.574 557.251 493.681 Q554.404 495.787 549.404 495.787 Q547.321 495.787 545.052 495.37 Q542.807 494.977 540.307 494.167 L540.307 489.769 Q542.668 490.995 544.96 491.62 Q547.251 492.222 549.497 492.222 Q552.506 492.222 554.126 491.204 Q555.747 490.162 555.747 488.287 Q555.747 486.551 554.566 485.625 Q553.409 484.699 549.451 483.843 L547.969 483.495 Q544.011 482.662 542.252 480.949 Q540.492 479.213 540.492 476.204 Q540.492 472.546 543.085 470.556 Q545.677 468.565 550.446 468.565 Q552.807 468.565 554.89 468.912 Q556.974 469.259 558.733 469.954 Z" fill="#000000" fill-rule="nonzero" fill-opacity="1" /><path clip-path="url(#clip410)" d="M566.904 469.19 L571.163 469.19 L571.163 495.116 L566.904 495.116 L566.904 469.19 M566.904 459.097 L571.163 459.097 L571.163 464.491 L566.904 464.491 L566.904 459.097 Z" fill="#000000" fill-rule="nonzero" fill-opacity="1" /><path clip-path="url(#clip410)" d="M601.626 479.468 L601.626 495.116 L597.367 495.116 L597.367 479.607 Q597.367 475.926 595.932 474.097 Q594.497 472.269 591.626 472.269 Q588.177 472.269 586.186 474.468 Q584.196 476.667 584.196 480.463 L584.196 495.116 L579.913 495.116 L579.913 469.19 L584.196 469.19 L584.196 473.218 Q585.724 470.88 587.784 469.722 Q589.867 468.565 592.575 468.565 Q597.043 468.565 599.335 471.343 Q601.626 474.097 601.626 479.468 Z" fill="#000000" fill-rule="nonzero" fill-opacity="1" /><path clip-path="url(#clip410)" d="M627.182 481.852 Q627.182 477.222 625.26 474.676 Q623.362 472.13 619.913 472.13 Q616.487 472.13 614.566 474.676 Q612.668 477.222 612.668 481.852 Q612.668 486.458 614.566 489.005 Q616.487 491.551 619.913 491.551 Q623.362 491.551 625.26 489.005 Q627.182 486.458 627.182 481.852 M631.441 491.898 Q631.441 498.518 628.501 501.736 Q625.561 504.977 619.496 504.977 Q617.251 504.977 615.26 504.63 Q613.27 504.305 611.395 503.611 L611.395 499.468 Q613.27 500.486 615.098 500.972 Q616.927 501.458 618.825 501.458 Q623.015 501.458 625.098 499.259 Q627.182 497.083 627.182 492.662 L627.182 490.556 Q625.862 492.847 623.802 493.981 Q621.742 495.116 618.871 495.116 Q614.103 495.116 611.186 491.481 Q608.27 487.847 608.27 481.852 Q608.27 475.833 611.186 472.199 Q614.103 468.565 618.871 468.565 Q621.742 468.565 623.802 469.699 Q625.862 470.833 627.182 473.125 L627.182 469.19 L631.441 469.19 L631.441 491.898 Z" fill="#000000" fill-rule="nonzero" fill-opacity="1" /><path clip-path="url(#clip410)" d="M662.39 481.088 L662.39 483.171 L642.807 483.171 Q643.084 487.569 645.445 489.884 Q647.83 492.176 652.066 492.176 Q654.519 492.176 656.811 491.574 Q659.126 490.972 661.394 489.769 L661.394 493.796 Q659.103 494.768 656.695 495.278 Q654.288 495.787 651.811 495.787 Q645.607 495.787 641.973 492.176 Q638.362 488.565 638.362 482.407 Q638.362 476.042 641.788 472.315 Q645.237 468.565 651.07 468.565 Q656.302 468.565 659.334 471.945 Q662.39 475.301 662.39 481.088 M658.131 479.838 Q658.084 476.343 656.163 474.259 Q654.265 472.176 651.117 472.176 Q647.552 472.176 645.399 474.19 Q643.269 476.204 642.945 479.861 L658.131 479.838 Z" fill="#000000" fill-rule="nonzero" fill-opacity="1" /><path clip-path="url(#clip410)" d="M684.404 473.171 Q683.686 472.755 682.829 472.57 Q681.996 472.361 680.978 472.361 Q677.367 472.361 675.422 474.722 Q673.501 477.06 673.501 481.458 L673.501 495.116 L669.218 495.116 L669.218 469.19 L673.501 469.19 L673.501 473.218 Q674.843 470.857 676.996 469.722 Q679.149 468.565 682.228 468.565 Q682.667 468.565 683.2 468.634 Q683.732 468.681 684.38 468.796 L684.404 473.171 Z" fill="#000000" fill-rule="nonzero" fill-opacity="1" /><path clip-path="url(#clip410)" d="M726.116 481.088 L726.116 483.171 L706.533 483.171 Q706.811 487.569 709.172 489.884 Q711.556 492.176 715.792 492.176 Q718.246 492.176 720.538 491.574 Q722.852 490.972 725.121 489.769 L725.121 493.796 Q722.829 494.768 720.422 495.278 Q718.014 495.787 715.538 495.787 Q709.334 495.787 705.7 492.176 Q702.089 488.565 702.089 482.407 Q702.089 476.042 705.515 472.315 Q708.964 468.565 714.797 468.565 Q720.028 468.565 723.061 471.945 Q726.116 475.301 726.116 481.088 M721.857 479.838 Q721.811 476.343 719.889 474.259 Q717.991 472.176 714.843 472.176 Q711.278 472.176 709.126 474.19 Q706.996 476.204 706.672 479.861 L721.857 479.838 Z" fill="#000000" fill-rule="nonzero" fill-opacity="1" /><path clip-path="url(#clip410)" d="M737.32 461.829 L737.32 469.19 L746.093 469.19 L746.093 472.5 L737.32 472.5 L737.32 486.574 Q737.32 489.745 738.176 490.648 Q739.056 491.551 741.718 491.551 L746.093 491.551 L746.093 495.116 L741.718 495.116 Q736.788 495.116 734.913 493.287 Q733.038 491.435 733.038 486.574 L733.038 472.5 L729.913 472.5 L729.913 469.19 L733.038 469.19 L733.038 461.829 L737.32 461.829 Z" fill="#000000" fill-rule="nonzero" fill-opacity="1" /><path clip-path="url(#clip410)" d="M778.547 482.083 Q773.385 482.083 771.394 483.264 Q769.403 484.444 769.403 487.292 Q769.403 489.56 770.885 490.903 Q772.389 492.222 774.959 492.222 Q778.5 492.222 780.63 489.722 Q782.783 487.199 782.783 483.032 L782.783 482.083 L778.547 482.083 M787.042 480.324 L787.042 495.116 L782.783 495.116 L782.783 491.181 Q781.324 493.542 779.148 494.676 Q776.972 495.787 773.824 495.787 Q769.843 495.787 767.482 493.565 Q765.144 491.319 765.144 487.569 Q765.144 483.194 768.06 480.972 Q771 478.75 776.81 478.75 L782.783 478.75 L782.783 478.333 Q782.783 475.394 780.838 473.796 Q778.917 472.176 775.422 472.176 Q773.199 472.176 771.093 472.708 Q768.986 473.241 767.042 474.306 L767.042 470.37 Q769.38 469.468 771.579 469.028 Q773.778 468.565 775.861 468.565 Q781.486 468.565 784.264 471.482 Q787.042 474.398 787.042 480.324 Z" fill="#000000" fill-rule="nonzero" fill-opacity="1" /><path clip-path="url(#clip410)" d="M795.815 459.097 L800.074 459.097 L800.074 495.116 L795.815 495.116 L795.815 459.097 Z" fill="#000000" fill-rule="nonzero" fill-opacity="1" /><path clip-path="url(#clip410)" d="M809.588 489.236 L814.472 489.236 L814.472 495.116 L809.588 495.116 L809.588 489.236 Z" fill="#000000" fill-rule="nonzero" fill-opacity="1" /></svg>
